<svg id="SvgjsSvg1001" width="887" height="300" xmlns="http://www.w3.org/2000/svg" version="1.1" xmlns:xlink="http://www.w3.org/1999/xlink" xmlns:svgjs="http://svgjs.com/svgjs"><defs id="SvgjsDefs1002"><marker id="SvgjsMarker1220" markerWidth="14" markerHeight="10" refX="10" refY="5" viewBox="0 0 14 10" orient="auto" markerUnits="userSpaceOnUse" stroke-dasharray="0,0"><path id="SvgjsPath1221" d="M0,0 L14,5 L0,10 L0,0" fill="#323232" stroke="#323232" stroke-width="1"></path></marker><marker id="SvgjsMarker1224" markerWidth="14" markerHeight="10" refX="10" refY="5" viewBox="0 0 14 10" orient="auto" markerUnits="userSpaceOnUse" stroke-dasharray="0,0"><path id="SvgjsPath1225" d="M0,0 L14,5 L0,10 L0,0" fill="#323232" stroke="#323232" stroke-width="1"></path></marker><marker id="SvgjsMarker1228" markerWidth="14" markerHeight="10" refX="10" refY="5" viewBox="0 0 14 10" orient="auto" markerUnits="userSpaceOnUse" stroke-dasharray="0,0"><path id="SvgjsPath1229" d="M0,0 L14,5 L0,10 L0,0" fill="#323232" stroke="#323232" stroke-width="1"></path></marker><marker id="SvgjsMarker1232" markerWidth="14" markerHeight="10" refX="10" refY="5" viewBox="0 0 14 10" orient="auto" markerUnits="userSpaceOnUse" stroke-dasharray="0,0"><path id="SvgjsPath1233" d="M0,0 L14,5 L0,10 L0,0" fill="#323232" stroke="#323232" stroke-width="1"></path></marker></defs><g id="SvgjsG1008" transform="translate(41,25)"><path id="SvgjsPath1009" d="M 0 0L 96 0L 96 54L 0 54Z" stroke="rgba(33,41,48,1)" stroke-width="2" fill-opacity="1" fill="#c8e6c9"></path><g id="SvgjsG1010"><text id="SvgjsText1011" font-family="微软雅黑" text-anchor="middle" font-size="15px" width="76px" fill="#323232" font-weight="400" align="middle" lineHeight="125%" anchor="middle" family="微软雅黑" size="15px" weight="400" font-style="" opacity="1" y="14.625" transform="rotate(0)"><tspan id="SvgjsTspan1012" dy="18" x="48"><tspan id="SvgjsTspan1013" style="text-decoration:;">木</tspan></tspan></text></g></g><g id="SvgjsG1014" transform="translate(222,25)"><path id="SvgjsPath1015" d="M 0 0L 96 0L 96 54L 0 54Z" stroke="rgba(33,41,48,1)" stroke-width="2" fill-opacity="1" fill="#e57373"></path><g id="SvgjsG1016"><text id="SvgjsText1017" font-family="微软雅黑" text-anchor="middle" font-size="15px" width="76px" fill="#323232" font-weight="400" align="middle" lineHeight="125%" anchor="middle" family="微软雅黑" size="15px" weight="400" font-style="" opacity="1" y="14.625" transform="rotate(0)"><tspan id="SvgjsTspan1018" dy="18" x="48"><tspan id="SvgjsTspan1019" style="text-decoration:;">火</tspan></tspan></text></g></g><g id="SvgjsG1020" transform="translate(391,25)"><path id="SvgjsPath1021" d="M 0 0L 96 0L 96 54L 0 54Z" stroke="rgba(33,41,48,1)" stroke-width="2" fill-opacity="1" fill="#ffb74d"></path><g id="SvgjsG1022"><text id="SvgjsText1023" font-family="微软雅黑" text-anchor="middle" font-size="15px" width="76px" fill="#323232" font-weight="400" align="middle" lineHeight="125%" anchor="middle" family="微软雅黑" size="15px" weight="400" font-style="" opacity="1" y="14.625" transform="rotate(0)"><tspan id="SvgjsTspan1024" dy="18" x="48"><tspan id="SvgjsTspan1025" style="text-decoration:;">土</tspan></tspan></text></g></g><g id="SvgjsG1026" transform="translate(574,25)"><path id="SvgjsPath1027" d="M 0 0L 96 0L 96 54L 0 54Z" stroke="rgba(33,41,48,1)" stroke-width="2" fill-opacity="1" fill="#fff176"></path><g id="SvgjsG1028"><text id="SvgjsText1029" font-family="微软雅黑" text-anchor="middle" font-size="15px" width="76px" fill="#323232" font-weight="400" align="middle" lineHeight="125%" anchor="middle" family="微软雅黑" size="15px" weight="400" font-style="" opacity="1" y="14.625" transform="rotate(0)"><tspan id="SvgjsTspan1030" dy="18" x="48"><tspan id="SvgjsTspan1031" style="text-decoration:;">金</tspan></tspan></text></g></g><g id="SvgjsG1032" transform="translate(741,25)"><path id="SvgjsPath1033" d="M 0 0L 96 0L 96 54L 0 54Z" stroke="rgba(33,41,48,1)" stroke-width="2" fill-opacity="1" fill="#b2ebf2"></path><g id="SvgjsG1034"><text id="SvgjsText1035" font-family="微软雅黑" text-anchor="middle" font-size="15px" width="76px" fill="#323232" font-weight="400" align="middle" lineHeight="125%" anchor="middle" family="微软雅黑" size="15px" weight="400" font-style="" opacity="1" y="14.625" transform="rotate(0)"><tspan id="SvgjsTspan1036" dy="18" x="48"><tspan id="SvgjsTspan1037" style="text-decoration:;">水</tspan></tspan></text></g></g><g id="SvgjsG1038" transform="translate(25,110)"><path id="SvgjsPath1039" d="M 0 0L 43 0L 43 43L 0 43Z" stroke="rgba(33,41,48,1)" stroke-width="2" fill-opacity="1" fill="#ffffff"></path><g id="SvgjsG1040"><text id="SvgjsText1041" font-family="微软雅黑" text-anchor="middle" font-size="13px" width="23px" fill="#323232" font-weight="400" align="middle" lineHeight="125%" anchor="middle" family="微软雅黑" size="13px" weight="400" font-style="" opacity="1" y="10.875" transform="rotate(0)"><tspan id="SvgjsTspan1042" dy="16" x="21.5"><tspan id="SvgjsTspan1043" style="text-decoration:;">甲</tspan></tspan></text></g></g><g id="SvgjsG1044" transform="translate(119,110)"><path id="SvgjsPath1045" d="M 0 0L 43 0L 43 43L 0 43Z" stroke="rgba(33,41,48,1)" stroke-width="2" fill-opacity="1" fill="#ffffff"></path><g id="SvgjsG1046"><text id="SvgjsText1047" font-family="微软雅黑" text-anchor="middle" font-size="13px" width="23px" fill="#323232" font-weight="400" align="middle" lineHeight="125%" anchor="middle" family="微软雅黑" size="13px" weight="400" font-style="" opacity="1" y="10.875" transform="rotate(0)"><tspan id="SvgjsTspan1048" dy="16" x="21.5"><tspan id="SvgjsTspan1049" style="text-decoration:;">乙</tspan></tspan></text></g></g><g id="SvgjsG1050" transform="translate(205,110)"><path id="SvgjsPath1051" d="M 0 0L 43 0L 43 43L 0 43Z" stroke="rgba(33,41,48,1)" stroke-width="2" fill-opacity="1" fill="#ffffff"></path><g id="SvgjsG1052"><text id="SvgjsText1053" font-family="微软雅黑" text-anchor="middle" font-size="13px" width="23px" fill="#323232" font-weight="400" align="middle" lineHeight="125%" anchor="middle" family="微软雅黑" size="13px" weight="400" font-style="" opacity="1" y="10.875" transform="rotate(0)"><tspan id="SvgjsTspan1054" dy="16" x="21.5"><tspan id="SvgjsTspan1055" style="text-decoration:;">丙</tspan></tspan></text></g></g><g id="SvgjsG1056" transform="translate(299,110)"><path id="SvgjsPath1057" d="M 0 0L 43 0L 43 43L 0 43Z" stroke="rgba(33,41,48,1)" stroke-width="2" fill-opacity="1" fill="#ffffff"></path><g id="SvgjsG1058"><text id="SvgjsText1059" font-family="微软雅黑" text-anchor="middle" font-size="13px" width="23px" fill="#323232" font-weight="400" align="middle" lineHeight="125%" anchor="middle" family="微软雅黑" size="13px" weight="400" font-style="" opacity="1" y="10.875" transform="rotate(0)"><tspan id="SvgjsTspan1060" dy="16" x="21.5"><tspan id="SvgjsTspan1061" style="text-decoration:;">丁</tspan></tspan></text></g></g><g id="SvgjsG1062" transform="translate(375,110)"><path id="SvgjsPath1063" d="M 0 0L 43 0L 43 43L 0 43Z" stroke="rgba(33,41,48,1)" stroke-width="2" fill-opacity="1" fill="#ffffff"></path><g id="SvgjsG1064"><text id="SvgjsText1065" font-family="微软雅黑" text-anchor="middle" font-size="13px" width="23px" fill="#323232" font-weight="400" align="middle" lineHeight="125%" anchor="middle" family="微软雅黑" size="13px" weight="400" font-style="" opacity="1" y="10.875" transform="rotate(0)"><tspan id="SvgjsTspan1066" dy="16" x="21.5"><tspan id="SvgjsTspan1067" style="text-decoration:;">戊</tspan></tspan></text></g></g><g id="SvgjsG1068" transform="translate(469,110)"><path id="SvgjsPath1069" d="M 0 0L 43 0L 43 43L 0 43Z" stroke="rgba(33,41,48,1)" stroke-width="2" fill-opacity="1" fill="#ffffff"></path><g id="SvgjsG1070"><text id="SvgjsText1071" font-family="微软雅黑" text-anchor="middle" font-size="13px" width="23px" fill="#323232" font-weight="400" align="middle" lineHeight="125%" anchor="middle" family="微软雅黑" size="13px" weight="400" font-style="" opacity="1" y="10.875" transform="rotate(0)"><tspan id="SvgjsTspan1072" dy="16" x="21.5"><tspan id="SvgjsTspan1073" style="text-decoration:;">己</tspan></tspan></text></g></g><g id="SvgjsG1074" transform="translate(555,110)"><path id="SvgjsPath1075" d="M 0 0L 43 0L 43 43L 0 43Z" stroke="rgba(33,41,48,1)" stroke-width="2" fill-opacity="1" fill="#ffffff"></path><g id="SvgjsG1076"><text id="SvgjsText1077" font-family="微软雅黑" text-anchor="middle" font-size="13px" width="23px" fill="#323232" font-weight="400" align="middle" lineHeight="125%" anchor="middle" family="微软雅黑" size="13px" weight="400" font-style="" opacity="1" y="10.875" transform="rotate(0)"><tspan id="SvgjsTspan1078" dy="16" x="21.5"><tspan id="SvgjsTspan1079" style="text-decoration:;">庚</tspan></tspan></text></g></g><g id="SvgjsG1080" transform="translate(649,110)"><path id="SvgjsPath1081" d="M 0 0L 43 0L 43 43L 0 43Z" stroke="rgba(33,41,48,1)" stroke-width="2" fill-opacity="1" fill="#ffffff"></path><g id="SvgjsG1082"><text id="SvgjsText1083" font-family="微软雅黑" text-anchor="middle" font-size="13px" width="23px" fill="#323232" font-weight="400" align="middle" lineHeight="125%" anchor="middle" family="微软雅黑" size="13px" weight="400" font-style="" opacity="1" y="10.875" transform="rotate(0)"><tspan id="SvgjsTspan1084" dy="16" x="21.5"><tspan id="SvgjsTspan1085" style="text-decoration:;">辛</tspan></tspan></text></g></g><g id="SvgjsG1086" transform="translate(725,110)"><path id="SvgjsPath1087" d="M 0 0L 43 0L 43 43L 0 43Z" stroke="rgba(33,41,48,1)" stroke-width="2" fill-opacity="1" fill="#ffffff"></path><g id="SvgjsG1088"><text id="SvgjsText1089" font-family="微软雅黑" text-anchor="middle" font-size="13px" width="23px" fill="#323232" font-weight="400" align="middle" lineHeight="125%" anchor="middle" family="微软雅黑" size="13px" weight="400" font-style="" opacity="1" y="10.875" transform="rotate(0)"><tspan id="SvgjsTspan1090" dy="16" x="21.5"><tspan id="SvgjsTspan1091" style="text-decoration:;">壬</tspan></tspan></text></g></g><g id="SvgjsG1092" transform="translate(819,110)"><path id="SvgjsPath1093" d="M 0 0L 43 0L 43 43L 0 43Z" stroke="rgba(33,41,48,1)" stroke-width="2" fill-opacity="1" fill="#ffffff"></path><g id="SvgjsG1094"><text id="SvgjsText1095" font-family="微软雅黑" text-anchor="middle" font-size="13px" width="23px" fill="#323232" font-weight="400" align="middle" lineHeight="125%" anchor="middle" family="微软雅黑" size="13px" weight="400" font-style="" opacity="1" y="10.875" transform="rotate(0)"><tspan id="SvgjsTspan1096" dy="16" x="21.5"><tspan id="SvgjsTspan1097" style="text-decoration:;">癸</tspan></tspan></text></g></g><g id="SvgjsG1098" transform="translate(25,190)"><path id="SvgjsPath1099" d="M 0 0L 43 0L 43 85L 0 85Z" stroke="rgba(33,41,48,1)" stroke-width="2" fill-opacity="1" fill="#e1bee7"></path><g id="SvgjsG1100"><text id="SvgjsText1101" font-family="微软雅黑" text-anchor="middle" font-size="13px" width="23px" fill="#323232" font-weight="400" align="middle" lineHeight="125%" anchor="middle" family="微软雅黑" size="13px" weight="400" font-style="" opacity="1" y="23.375" transform="rotate(0)"><tspan id="SvgjsTspan1102" dy="16" x="21.5"><tspan id="SvgjsTspan1103" style="text-decoration:;">阳</tspan></tspan><tspan id="SvgjsTspan1104" dy="16" x="21.5"><tspan id="SvgjsTspan1105" style="text-decoration:;">木</tspan></tspan></text></g></g><g id="SvgjsG1106" transform="translate(119,190)"><path id="SvgjsPath1107" d="M 0 0L 43 0L 43 85L 0 85Z" stroke="rgba(33,41,48,1)" stroke-width="2" fill-opacity="1" fill="#9e9e9e"></path><g id="SvgjsG1108"><text id="SvgjsText1109" font-family="微软雅黑" text-anchor="middle" font-size="13px" width="23px" fill="#323232" font-weight="400" align="middle" lineHeight="125%" anchor="middle" family="微软雅黑" size="13px" weight="400" font-style="" opacity="1" y="23.375" transform="rotate(0)"><tspan id="SvgjsTspan1110" dy="16" x="21.5"><tspan id="SvgjsTspan1111" style="text-decoration:;">阴</tspan></tspan><tspan id="SvgjsTspan1112" dy="16" x="21.5"><tspan id="SvgjsTspan1113" style="text-decoration:;">木</tspan></tspan></text></g></g><g id="SvgjsG1114" transform="translate(205,190)"><path id="SvgjsPath1115" d="M 0 0L 43 0L 43 85L 0 85Z" stroke="rgba(33,41,48,1)" stroke-width="2" fill-opacity="1" fill="#e1bee7"></path><g id="SvgjsG1116"><text id="SvgjsText1117" font-family="微软雅黑" text-anchor="middle" font-size="13px" width="23px" fill="#323232" font-weight="400" align="middle" lineHeight="125%" anchor="middle" family="微软雅黑" size="13px" weight="400" font-style="" opacity="1" y="23.375" transform="rotate(0)"><tspan id="SvgjsTspan1118" dy="16" x="21.5"><tspan id="SvgjsTspan1119" style="text-decoration:;">阳</tspan></tspan><tspan id="SvgjsTspan1120" dy="16" x="21.5"><tspan id="SvgjsTspan1121" style="text-decoration:;">火</tspan></tspan></text></g></g><g id="SvgjsG1122" transform="translate(299,190)"><path id="SvgjsPath1123" d="M 0 0L 43 0L 43 85L 0 85Z" stroke="rgba(33,41,48,1)" stroke-width="2" fill-opacity="1" fill="#9e9e9e"></path><g id="SvgjsG1124"><text id="SvgjsText1125" font-family="微软雅黑" text-anchor="middle" font-size="13px" width="23px" fill="#323232" font-weight="400" align="middle" lineHeight="125%" anchor="middle" family="微软雅黑" size="13px" weight="400" font-style="" opacity="1" y="23.375" transform="rotate(0)"><tspan id="SvgjsTspan1126" dy="16" x="21.5"><tspan id="SvgjsTspan1127" style="text-decoration:;">阴</tspan></tspan><tspan id="SvgjsTspan1128" dy="16" x="21.5"><tspan id="SvgjsTspan1129" style="text-decoration:;">火</tspan></tspan></text></g></g><g id="SvgjsG1130" transform="translate(375,190)"><path id="SvgjsPath1131" d="M 0 0L 43 0L 43 85L 0 85Z" stroke="rgba(33,41,48,1)" stroke-width="2" fill-opacity="1" fill="#e1bee7"></path><g id="SvgjsG1132"><text id="SvgjsText1133" font-family="微软雅黑" text-anchor="middle" font-size="13px" width="23px" fill="#323232" font-weight="400" align="middle" lineHeight="125%" anchor="middle" family="微软雅黑" size="13px" weight="400" font-style="" opacity="1" y="23.375" transform="rotate(0)"><tspan id="SvgjsTspan1134" dy="16" x="21.5"><tspan id="SvgjsTspan1135" style="text-decoration:;">阳</tspan></tspan><tspan id="SvgjsTspan1136" dy="16" x="21.5"><tspan id="SvgjsTspan1137" style="text-decoration:;">土</tspan></tspan></text></g></g><g id="SvgjsG1138" transform="translate(469,190)"><path id="SvgjsPath1139" d="M 0 0L 43 0L 43 85L 0 85Z" stroke="rgba(33,41,48,1)" stroke-width="2" fill-opacity="1" fill="#9e9e9e"></path><g id="SvgjsG1140"><text id="SvgjsText1141" font-family="微软雅黑" text-anchor="middle" font-size="13px" width="23px" fill="#323232" font-weight="400" align="middle" lineHeight="125%" anchor="middle" family="微软雅黑" size="13px" weight="400" font-style="" opacity="1" y="23.375" transform="rotate(0)"><tspan id="SvgjsTspan1142" dy="16" x="21.5"><tspan id="SvgjsTspan1143" style="text-decoration:;">阴</tspan></tspan><tspan id="SvgjsTspan1144" dy="16" x="21.5"><tspan id="SvgjsTspan1145" style="text-decoration:;">土</tspan></tspan></text></g></g><g id="SvgjsG1146" transform="translate(555,190)"><path id="SvgjsPath1147" d="M 0 0L 43 0L 43 85L 0 85Z" stroke="rgba(33,41,48,1)" stroke-width="2" fill-opacity="1" fill="#e1bee7"></path><g id="SvgjsG1148"><text id="SvgjsText1149" font-family="微软雅黑" text-anchor="middle" font-size="13px" width="23px" fill="#323232" font-weight="400" align="middle" lineHeight="125%" anchor="middle" family="微软雅黑" size="13px" weight="400" font-style="" opacity="1" y="23.375" transform="rotate(0)"><tspan id="SvgjsTspan1150" dy="16" x="21.5"><tspan id="SvgjsTspan1151" style="text-decoration:;">阳</tspan></tspan><tspan id="SvgjsTspan1152" dy="16" x="21.5"><tspan id="SvgjsTspan1153" style="text-decoration:;">金</tspan></tspan></text></g></g><g id="SvgjsG1154" transform="translate(649,190)"><path id="SvgjsPath1155" d="M 0 0L 43 0L 43 85L 0 85Z" stroke="rgba(33,41,48,1)" stroke-width="2" fill-opacity="1" fill="#9e9e9e"></path><g id="SvgjsG1156"><text id="SvgjsText1157" font-family="微软雅黑" text-anchor="middle" font-size="13px" width="23px" fill="#323232" font-weight="400" align="middle" lineHeight="125%" anchor="middle" family="微软雅黑" size="13px" weight="400" font-style="" opacity="1" y="23.375" transform="rotate(0)"><tspan id="SvgjsTspan1158" dy="16" x="21.5"><tspan id="SvgjsTspan1159" style="text-decoration:;">阴</tspan></tspan><tspan id="SvgjsTspan1160" dy="16" x="21.5"><tspan id="SvgjsTspan1161" style="text-decoration:;">金</tspan></tspan></text></g></g><g id="SvgjsG1162" transform="translate(725,190)"><path id="SvgjsPath1163" d="M 0 0L 43 0L 43 85L 0 85Z" stroke="rgba(33,41,48,1)" stroke-width="2" fill-opacity="1" fill="#e1bee7"></path><g id="SvgjsG1164"><text id="SvgjsText1165" font-family="微软雅黑" text-anchor="middle" font-size="13px" width="23px" fill="#323232" font-weight="400" align="middle" lineHeight="125%" anchor="middle" family="微软雅黑" size="13px" weight="400" font-style="" opacity="1" y="23.375" transform="rotate(0)"><tspan id="SvgjsTspan1166" dy="16" x="21.5"><tspan id="SvgjsTspan1167" style="text-decoration:;">阳</tspan></tspan><tspan id="SvgjsTspan1168" dy="16" x="21.5"><tspan id="SvgjsTspan1169" style="text-decoration:;">水</tspan></tspan></text></g></g><g id="SvgjsG1170" transform="translate(819,190)"><path id="SvgjsPath1171" d="M 0 0L 43 0L 43 85L 0 85Z" stroke="rgba(33,41,48,1)" stroke-width="2" fill-opacity="1" fill="#9e9e9e"></path><g id="SvgjsG1172"><text id="SvgjsText1173" font-family="微软雅黑" text-anchor="middle" font-size="13px" width="23px" fill="#323232" font-weight="400" align="middle" lineHeight="125%" anchor="middle" family="微软雅黑" size="13px" weight="400" font-style="" opacity="1" y="23.375" transform="rotate(0)"><tspan id="SvgjsTspan1174" dy="16" x="21.5"><tspan id="SvgjsTspan1175" style="text-decoration:;">阴</tspan></tspan><tspan id="SvgjsTspan1176" dy="16" x="21.5"><tspan id="SvgjsTspan1177" style="text-decoration:;">水</tspan></tspan></text></g></g><g id="SvgjsG1178"><path id="SvgjsPath1179" d="M89 80L89 94.5L46.5 94.5L46.5 109" stroke="#323232" stroke-width="2" fill="none"></path></g><g id="SvgjsG1180"><path id="SvgjsPath1181" d="M89 80L89 94.5L140.5 94.5L140.5 109" stroke="#323232" stroke-width="2" fill="none"></path></g><g id="SvgjsG1182"><path id="SvgjsPath1183" d="M46.5 154L46.5 171.5L46.5 171.5L46.5 189" stroke="#323232" stroke-width="2" fill="none"></path></g><g id="SvgjsG1184"><path id="SvgjsPath1185" d="M140.5 154L140.5 171.5L140.5 171.5L140.5 189" stroke="#323232" stroke-width="2" fill="none"></path></g><g id="SvgjsG1186"><path id="SvgjsPath1187" d="M226.5 154L226.5 171.5L226.5 171.5L226.5 189" stroke="#323232" stroke-width="2" fill="none"></path></g><g id="SvgjsG1188"><path id="SvgjsPath1189" d="M320.5 154L320.5 171.5L320.5 171.5L320.5 189" stroke="#323232" stroke-width="2" fill="none"></path></g><g id="SvgjsG1190"><path id="SvgjsPath1191" d="M396.5 154L396.5 171.5L396.5 171.5L396.5 189" stroke="#323232" stroke-width="2" fill="none"></path></g><g id="SvgjsG1192"><path id="SvgjsPath1193" d="M490.5 154L490.5 171.5L490.5 171.5L490.5 189" stroke="#323232" stroke-width="2" fill="none"></path></g><g id="SvgjsG1194"><path id="SvgjsPath1195" d="M576.5 154L576.5 171.5L576.5 171.5L576.5 189" stroke="#323232" stroke-width="2" fill="none"></path></g><g id="SvgjsG1196"><path id="SvgjsPath1197" d="M670.5 154L670.5 171.5L670.5 171.5L670.5 189" stroke="#323232" stroke-width="2" fill="none"></path></g><g id="SvgjsG1198"><path id="SvgjsPath1199" d="M746.5 154L746.5 171.5L746.5 171.5L746.5 189" stroke="#323232" stroke-width="2" fill="none"></path></g><g id="SvgjsG1200"><path id="SvgjsPath1201" d="M840.5 154L840.5 171.5L840.5 171.5L840.5 189" stroke="#323232" stroke-width="2" fill="none"></path></g><g id="SvgjsG1202"><path id="SvgjsPath1203" d="M789 80L789 94.5L745 94.5L745 109" stroke="#323232" stroke-width="2" fill="none"></path></g><g id="SvgjsG1204"><path id="SvgjsPath1205" d="M789 80L789 94.5L840.5 94.5L840.5 109" stroke="#323232" stroke-width="2" fill="none"></path></g><g id="SvgjsG1206"><path id="SvgjsPath1207" d="M622 80L622 94.5L576.5 94.5L576.5 109" stroke="#323232" stroke-width="2" fill="none"></path></g><g id="SvgjsG1208"><path id="SvgjsPath1209" d="M622 80L622 94.5L670.5 94.5L670.5 109" stroke="#323232" stroke-width="2" fill="none"></path></g><g id="SvgjsG1210"><path id="SvgjsPath1211" d="M439 80L439 94.5L396.5 94.5L396.5 109" stroke="#323232" stroke-width="2" fill="none"></path></g><g id="SvgjsG1212"><path id="SvgjsPath1213" d="M439 80L439 94.5L490.5 94.5L490.5 109" stroke="#323232" stroke-width="2" fill="none"></path></g><g id="SvgjsG1214"><path id="SvgjsPath1215" d="M270 80L270 94.5L226.5 94.5L226.5 109" stroke="#323232" stroke-width="2" fill="none"></path></g><g id="SvgjsG1216"><path id="SvgjsPath1217" d="M270 80L270 94.5L319 94.5L319 109" stroke="#323232" stroke-width="2" fill="none"></path></g><g id="SvgjsG1218"><path id="SvgjsPath1219" d="M138 52L179.5 52L179.5 52L218.39999999999998 52" stroke="#323232" stroke-width="2" fill="none" marker-end="url(#SvgjsMarker1220)"></path></g><g id="SvgjsG1222"><path id="SvgjsPath1223" d="M319 52L354.5 52L354.5 52L387.4 52" stroke="#323232" stroke-width="2" fill="none" marker-end="url(#SvgjsMarker1224)"></path></g><g id="SvgjsG1226"><path id="SvgjsPath1227" d="M488 52L530.5 52L530.5 52L570.4 52" stroke="#323232" stroke-width="2" fill="none" marker-end="url(#SvgjsMarker1228)"></path></g><g id="SvgjsG1230"><path id="SvgjsPath1231" d="M671 52L705.5 52L705.5 52L737.4 52" stroke="#323232" stroke-width="2" fill="none" marker-end="url(#SvgjsMarker1232)"></path></g></svg>