<svg id="SvgjsSvg1120" width="918" height="559" xmlns="http://www.w3.org/2000/svg" version="1.1" xmlns:xlink="http://www.w3.org/1999/xlink" xmlns:svgjs="http://svgjs.com/svgjs"><defs id="SvgjsDefs1121"><marker id="SvgjsMarker1132" markerWidth="14" markerHeight="10" refX="10" refY="5" viewBox="0 0 14 10" orient="auto" markerUnits="userSpaceOnUse" stroke-dasharray="0,0"><path id="SvgjsPath1133" d="M0,0 L14,5 L0,10 L0,0" fill="#323232" stroke="#323232" stroke-width="1"></path></marker><marker id="SvgjsMarker1140" markerWidth="14" markerHeight="10" refX="4" refY="5" viewBox="0 0 14 10" orient="auto" markerUnits="userSpaceOnUse" stroke-dasharray="0,0"><path id="SvgjsPath1141" d="M14,0 L0,5 L14,10 L14,0" fill="#323232" stroke="#323232" stroke-width="1"></path></marker><marker id="SvgjsMarker1146" markerWidth="14" markerHeight="10" refX="10" refY="5" viewBox="0 0 14 10" orient="auto" markerUnits="userSpaceOnUse" stroke-dasharray="0,0"><path id="SvgjsPath1147" d="M0,0 L14,5 L0,10 L0,0" fill="#323232" stroke="#323232" stroke-width="1"></path></marker><marker id="SvgjsMarker1180" markerWidth="14" markerHeight="10" refX="10" refY="5" viewBox="0 0 14 10" orient="auto" markerUnits="userSpaceOnUse" stroke-dasharray="0,0"><path id="SvgjsPath1181" d="M0,0 L14,5 L0,10 L0,0" fill="#323232" stroke="#323232" stroke-width="1"></path></marker><marker id="SvgjsMarker1216" markerWidth="18" markerHeight="14" refX="12" refY="7" viewBox="0 0 18 14" orient="auto" markerUnits="userSpaceOnUse" stroke-dasharray="0,0"><path id="SvgjsPath1217" d="M0,0 L18,7 L0,14 L0,0" fill="#9c27b0" stroke="#9c27b0" stroke-width="1"></path></marker><marker id="SvgjsMarker1226" markerWidth="18" markerHeight="14" refX="12" refY="7" viewBox="0 0 18 14" orient="auto" markerUnits="userSpaceOnUse" stroke-dasharray="0,0"><path id="SvgjsPath1227" d="M0,0 L18,7 L0,14 L0,0" fill="#9c27b0" stroke="#9c27b0" stroke-width="1"></path></marker></defs><g id="SvgjsG1122" transform="translate(25,25)"><path id="SvgjsPath1123" d="M 0 0L 845 0L 845 167L 0 167Z" stroke="rgba(50,50,50,1)" stroke-width="2" fill-opacity="1" fill="#c8e6c9"></path><g id="SvgjsG1124"><text id="SvgjsText1125" font-family="微软雅黑" text-anchor="middle" font-size="13px" width="825px" fill="#323232" font-weight="400" align="middle" lineHeight="125%" anchor="middle" family="微软雅黑" size="13px" weight="400" font-style="" opacity="1" y="72.875" transform="rotate(0)"></text></g></g><g id="SvgjsG1126"><path id="SvgjsPath1127" d="M30.478798586572452 108.5L175.47879858657245 108.5L175.47879858657245 109L778 109L778 108.5L808 108.5" stroke="#323232" stroke-width="2" fill="none"></path></g><g id="SvgjsG1128"><path id="SvgjsPath1129" d="M27 64L108.5 64L108.5 64L190 64" stroke="#323232" stroke-width="2" fill="none"></path></g><g id="SvgjsG1130"><path id="SvgjsPath1131" d="M189 63L189 83.5L189 83.5L189 104" stroke="#323232" stroke-width="2" fill="none" marker-end="url(#SvgjsMarker1132)"></path></g><g id="SvgjsG1134"><path id="SvgjsPath1135" d="M566 154.97560975609758L376.5 154.97560975609758L376.5 154.97560975609758L187 154.97560975609758" stroke="#323232" stroke-width="2" fill="none"></path></g><g id="SvgjsG1136"><path id="SvgjsPath1137" d="M189.32515337423314 156L189.32515337423314 135L189.32515337423314 135L189.32515337423314 114" stroke="#323232" stroke-width="2" fill="none"></path></g><g id="SvgjsG1138"><path id="SvgjsPath1139" d="M564.6748466257668 110.99999999999989L564.6748466257668 132L564.6748466257668 132L564.6748466257668 153" stroke="#323232" stroke-width="2" fill="none" marker-start="url(#SvgjsMarker1140)"></path></g><g id="SvgjsG1142"><path id="SvgjsPath1143" d="M567 49.25203252032503L683 49.25203252032503L683 49.25203252032503L799 49.25203252032503" stroke="#323232" stroke-width="2" fill="none"></path></g><g id="SvgjsG1144"><path id="SvgjsPath1145" d="M797.5766871165644 47.999999999999915L797.5766871165644 73.6666666666666L797.5766871165644 73.6666666666666L797.5766871165644 99.33333333333329" stroke="#323232" stroke-width="2" fill="none" marker-end="url(#SvgjsMarker1146)"></path></g><g id="SvgjsG1148"><path id="SvgjsPath1149" d="M567.8111756802693 103.00000000000006L567.8111756802693 77.33333333333334L567.8111756802693 77.33333333333334L567.8111756802693 51.66666666666663" stroke="#323232" stroke-width="2" fill="none"></path></g><g id="SvgjsG1150" transform="translate(33,67)"><path id="SvgjsPath1151" d="M 0 0L 120 0L 120 40L 0 40Z" stroke="none" fill="none"></path><g id="SvgjsG1152"><text id="SvgjsText1153" font-family="微软雅黑" text-anchor="middle" font-size="13px" width="120px" fill="#323232" font-weight="400" align="middle" lineHeight="125%" anchor="middle" family="微软雅黑" size="13px" weight="400" font-style="" opacity="1" y="9.375" transform="rotate(0)"><tspan id="SvgjsTspan1154" dy="16" x="60"><tspan id="SvgjsTspan1155" style="text-decoration:;">用户态 Java</tspan></tspan></text></g></g><g id="SvgjsG1156" transform="translate(305,112)"><path id="SvgjsPath1157" d="M 0 0L 120 0L 120 40L 0 40Z" stroke="none" fill="none"></path><g id="SvgjsG1158"><text id="SvgjsText1159" font-family="微软雅黑" text-anchor="middle" font-size="13px" width="120px" fill="#323232" font-weight="400" align="middle" lineHeight="125%" anchor="middle" family="微软雅黑" size="13px" weight="400" font-style="" opacity="1" y="9.375" transform="rotate(0)"><tspan id="SvgjsTspan1160" dy="16" x="60"><tspan id="SvgjsTspan1161" style="text-decoration:;">内核态 System</tspan></tspan></text></g></g><g id="SvgjsG1162" transform="translate(626,67)"><path id="SvgjsPath1163" d="M 0 0L 120 0L 120 40L 0 40Z" stroke="none" fill="none"></path><g id="SvgjsG1164"><text id="SvgjsText1165" font-family="微软雅黑" text-anchor="middle" font-size="13px" width="120px" fill="#323232" font-weight="400" align="middle" lineHeight="125%" anchor="middle" family="微软雅黑" size="13px" weight="400" font-style="" opacity="1" y="9.375" transform="rotate(0)"><tspan id="SvgjsTspan1166" dy="16" x="60"><tspan id="SvgjsTspan1167" style="text-decoration:;">用户态 Java</tspan></tspan></text></g></g><g id="SvgjsG1168" transform="translate(693,119)"><path id="SvgjsPath1169" d="M 0 0L 120 0L 120 40L 0 40Z" stroke="none" fill="none"></path><g id="SvgjsG1170"><text id="SvgjsText1171" font-family="微软雅黑" text-anchor="middle" font-size="16px" width="120px" fill="#323232" font-weight="700" align="middle" lineHeight="125%" anchor="middle" family="微软雅黑" size="16px" weight="700" font-style="" opacity="1" y="6" transform="rotate(0)"><tspan id="SvgjsTspan1172" dy="20" x="60"><tspan id="SvgjsTspan1173" style="text-decoration:;">CPU</tspan></tspan></text></g></g><g id="SvgjsG1174" transform="translate(25,214)"><path id="SvgjsPath1175" d="M 0 0L 868 0L 868 241L 0 241Z" stroke="rgba(50,50,50,1)" stroke-width="2" fill-opacity="1" fill="#c8e6c9"></path><g id="SvgjsG1176"><text id="SvgjsText1177" font-family="微软雅黑" text-anchor="middle" font-size="13px" width="848px" fill="#323232" font-weight="400" align="middle" lineHeight="125%" anchor="middle" family="微软雅黑" size="13px" weight="400" font-style="" opacity="1" y="109.875" transform="rotate(0)"></text></g></g><g id="SvgjsG1178"><path id="SvgjsPath1179" d="M26 334.5L78 334.5L78 335L819 335L819 334.5L889.4 334.5" stroke="#323232" stroke-width="2" fill="none" marker-end="url(#SvgjsMarker1180)"></path></g><g id="SvgjsG1182" transform="translate(63.53493975903615,223.42622950819674)"><path id="SvgjsPath1183" d="M 0 0L 761.4650602409639 0L 761.4650602409639 49.57377049180328L 0 49.57377049180328Z" stroke="rgba(50,50,50,1)" stroke-width="2" fill-opacity="1" fill="#fff176"></path><g id="SvgjsG1184"><text id="SvgjsText1185" font-family="微软雅黑" text-anchor="middle" font-size="13px" width="742px" fill="#323232" font-weight="400" align="middle" lineHeight="125%" anchor="middle" family="微软雅黑" size="13px" weight="400" font-style="" opacity="1" y="14.16188524590164" transform="rotate(0)"></text></g></g><g id="SvgjsG1186" transform="translate(33,217)"><path id="SvgjsPath1187" d="M 0 0L 229.01204819277106 0L 229.01204819277106 36.721311475409834L 0 36.721311475409834Z" stroke="none" fill="none"></path><g id="SvgjsG1188"><text id="SvgjsText1189" font-family="微软雅黑" text-anchor="middle" font-size="13px" width="230px" fill="#323232" font-weight="400" align="middle" lineHeight="125%" anchor="middle" family="微软雅黑" size="13px" weight="400" font-style="" opacity="1" y="7.735655737704917" transform="rotate(0)"><tspan id="SvgjsTspan1190" dy="16" x="115"><tspan id="SvgjsTspan1191" style="text-decoration:;">Java堆内存</tspan></tspan></text></g></g><g id="SvgjsG1192" transform="translate(277.2795180722892,231.68852459016392)"><path id="SvgjsPath1193" d="M 0 0L 341.6096385542169 0L 341.6096385542169 35.80327868852459L 0 35.80327868852459Z" stroke="rgba(50,50,50,1)" stroke-width="2" fill-opacity="1" fill="#fff9c4"></path><g id="SvgjsG1194"><text id="SvgjsText1195" font-family="微软雅黑" text-anchor="middle" font-size="13px" width="322px" fill="#323232" font-weight="400" align="middle" lineHeight="125%" anchor="middle" family="微软雅黑" size="13px" weight="400" font-style="" opacity="1" y="7.276639344262296" transform="rotate(0)"><tspan id="SvgjsTspan1196" dy="16" x="171"><tspan id="SvgjsTspan1197" style="text-decoration:;">java 缓冲区byte[]</tspan></tspan></text></g></g><g id="SvgjsG1198" transform="translate(63.53493975903615,370.1475409836066)"><path id="SvgjsPath1199" d="M 0 0L 761.4650602409639 0L 761.4650602409639 49.57377049180328L 0 49.57377049180328Z" stroke="rgba(50,50,50,1)" stroke-width="2" fill-opacity="1" fill="#fff176"></path><g id="SvgjsG1200"><text id="SvgjsText1201" font-family="微软雅黑" text-anchor="middle" font-size="13px" width="742px" fill="#323232" font-weight="400" align="middle" lineHeight="125%" anchor="middle" family="微软雅黑" size="13px" weight="400" font-style="" opacity="1" y="14.16188524590164" transform="rotate(0)"></text></g></g><g id="SvgjsG1202" transform="translate(33,363.72131147540983)"><path id="SvgjsPath1203" d="M 0 0L 229.01204819277106 0L 229.01204819277106 36.721311475409834L 0 36.721311475409834Z" stroke="none" fill="none"></path><g id="SvgjsG1204"><text id="SvgjsText1205" font-family="微软雅黑" text-anchor="middle" font-size="13px" width="230px" fill="#323232" font-weight="400" align="middle" lineHeight="125%" anchor="middle" family="微软雅黑" size="13px" weight="400" font-style="" opacity="1" y="7.735655737704917" transform="rotate(0)"><tspan id="SvgjsTspan1206" dy="16" x="115"><tspan id="SvgjsTspan1207" style="text-decoration:;">系统内存</tspan></tspan></text></g></g><g id="SvgjsG1208" transform="translate(277.2795180722892,378.40983606557376)"><path id="SvgjsPath1209" d="M 0 0L 341.6096385542169 0L 341.6096385542169 35.80327868852459L 0 35.80327868852459Z" stroke="rgba(50,50,50,1)" stroke-width="2" fill-opacity="1" fill="#fff9c4"></path><g id="SvgjsG1210"><text id="SvgjsText1211" font-family="微软雅黑" text-anchor="middle" font-size="13px" width="322px" fill="#323232" font-weight="400" align="middle" lineHeight="125%" anchor="middle" family="微软雅黑" size="13px" weight="400" font-style="" opacity="1" y="7.276639344262296" transform="rotate(0)"><tspan id="SvgjsTspan1212" dy="16" x="171"><tspan id="SvgjsTspan1213" style="text-decoration:;">系统缓冲区</tspan></tspan></text></g></g><g id="SvgjsG1214"><path id="SvgjsPath1215" d="M444.2674698795181 369.1475409836066L444.2674698795181 321.5737704918033L444.2674698795181 321.5737704918033L444.2674698795181 279.2" stroke="#9c27b0" stroke-width="4" fill="none" marker-end="url(#SvgjsMarker1216)"></path></g><g id="SvgjsG1218" transform="translate(25,481)"><path id="SvgjsPath1219" d="M 0 0L 177 0L 177 53L 0 53Z" stroke="rgba(50,50,50,1)" stroke-width="2" fill-opacity="1" fill="#e1bee7"></path><g id="SvgjsG1220"><text id="SvgjsText1221" font-family="微软雅黑" text-anchor="middle" font-size="13px" width="157px" fill="#323232" font-weight="400" align="middle" lineHeight="125%" anchor="middle" family="微软雅黑" size="13px" weight="400" font-style="" opacity="1" y="15.875" transform="rotate(0)"><tspan id="SvgjsTspan1222" dy="16" x="88.5"><tspan id="SvgjsTspan1223" style="text-decoration:;">磁盘文件</tspan></tspan></text></g></g><g id="SvgjsG1224"><path id="SvgjsPath1225" d="M203 507.5L448.08433734939763 507.5L448.08433734939763 420.41311475409833" stroke="#9c27b0" stroke-width="4" fill="none" marker-end="url(#SvgjsMarker1226)"></path></g><g id="SvgjsG1228" transform="translate(705,287)"><path id="SvgjsPath1229" d="M 0 0L 120 0L 120 40L 0 40Z" stroke="none" fill="none"></path><g id="SvgjsG1230"><text id="SvgjsText1231" font-family="微软雅黑" text-anchor="middle" font-size="16px" width="120px" fill="#323232" font-weight="700" align="middle" lineHeight="125%" anchor="middle" family="微软雅黑" size="16px" weight="700" font-style="" opacity="1" y="6" transform="rotate(0)"><tspan id="SvgjsTspan1232" dy="20" x="60"><tspan id="SvgjsTspan1233" style="text-decoration:;">内存</tspan></tspan></text></g></g></svg>