<svg id="SvgjsSvg1234" width="918" height="559" xmlns="http://www.w3.org/2000/svg" version="1.1" xmlns:xlink="http://www.w3.org/1999/xlink" xmlns:svgjs="http://svgjs.com/svgjs"><defs id="SvgjsDefs1235"><marker id="SvgjsMarker1246" markerWidth="14" markerHeight="10" refX="10" refY="5" viewBox="0 0 14 10" orient="auto" markerUnits="userSpaceOnUse" stroke-dasharray="0,0"><path id="SvgjsPath1247" d="M0,0 L14,5 L0,10 L0,0" fill="#323232" stroke="#323232" stroke-width="1"></path></marker><marker id="SvgjsMarker1254" markerWidth="14" markerHeight="10" refX="4" refY="5" viewBox="0 0 14 10" orient="auto" markerUnits="userSpaceOnUse" stroke-dasharray="0,0"><path id="SvgjsPath1255" d="M14,0 L0,5 L14,10 L14,0" fill="#323232" stroke="#323232" stroke-width="1"></path></marker><marker id="SvgjsMarker1260" markerWidth="14" markerHeight="10" refX="10" refY="5" viewBox="0 0 14 10" orient="auto" markerUnits="userSpaceOnUse" stroke-dasharray="0,0"><path id="SvgjsPath1261" d="M0,0 L14,5 L0,10 L0,0" fill="#323232" stroke="#323232" stroke-width="1"></path></marker><marker id="SvgjsMarker1294" markerWidth="14" markerHeight="10" refX="10" refY="5" viewBox="0 0 14 10" orient="auto" markerUnits="userSpaceOnUse" stroke-dasharray="0,0"><path id="SvgjsPath1295" d="M0,0 L14,5 L0,10 L0,0" fill="#323232" stroke="#323232" stroke-width="1"></path></marker><marker id="SvgjsMarker1324" markerWidth="18" markerHeight="14" refX="12" refY="7" viewBox="0 0 18 14" orient="auto" markerUnits="userSpaceOnUse" stroke-dasharray="0,0"><path id="SvgjsPath1325" d="M0,0 L18,7 L0,14 L0,0" fill="#9c27b0" stroke="#9c27b0" stroke-width="1"></path></marker></defs><g id="SvgjsG1236" transform="translate(25,25)"><path id="SvgjsPath1237" d="M 0 0L 845 0L 845 167L 0 167Z" stroke="rgba(50,50,50,1)" stroke-width="2" fill-opacity="1" fill="#c8e6c9"></path><g id="SvgjsG1238"><text id="SvgjsText1239" font-family="微软雅黑" text-anchor="middle" font-size="13px" width="825px" fill="#323232" font-weight="400" align="middle" lineHeight="125%" anchor="middle" family="微软雅黑" size="13px" weight="400" font-style="" opacity="1" y="72.875" transform="rotate(0)"></text></g></g><g id="SvgjsG1240"><path id="SvgjsPath1241" d="M30.478798586572452 108.5L175.47879858657245 108.5L175.47879858657245 109L778 109L778 108.5L808 108.5" stroke="#323232" stroke-width="2" fill="none"></path></g><g id="SvgjsG1242"><path id="SvgjsPath1243" d="M27 64L108.5 64L108.5 64L190 64" stroke="#323232" stroke-width="2" fill="none"></path></g><g id="SvgjsG1244"><path id="SvgjsPath1245" d="M189 63L189 83.5L189 83.5L189 104" stroke="#323232" stroke-width="2" fill="none" marker-end="url(#SvgjsMarker1246)"></path></g><g id="SvgjsG1248"><path id="SvgjsPath1249" d="M566 154.97560975609758L376.5 154.97560975609758L376.5 154.97560975609758L187 154.97560975609758" stroke="#323232" stroke-width="2" fill="none"></path></g><g id="SvgjsG1250"><path id="SvgjsPath1251" d="M189.32515337423314 156L189.32515337423314 135L189.32515337423314 135L189.32515337423314 114" stroke="#323232" stroke-width="2" fill="none"></path></g><g id="SvgjsG1252"><path id="SvgjsPath1253" d="M564.6748466257668 110.99999999999989L564.6748466257668 132L564.6748466257668 132L564.6748466257668 153" stroke="#323232" stroke-width="2" fill="none" marker-start="url(#SvgjsMarker1254)"></path></g><g id="SvgjsG1256"><path id="SvgjsPath1257" d="M567 49.25203252032503L683 49.25203252032503L683 49.25203252032503L799 49.25203252032503" stroke="#323232" stroke-width="2" fill="none"></path></g><g id="SvgjsG1258"><path id="SvgjsPath1259" d="M797.5766871165644 47.999999999999915L797.5766871165644 73.6666666666666L797.5766871165644 73.6666666666666L797.5766871165644 99.33333333333329" stroke="#323232" stroke-width="2" fill="none" marker-end="url(#SvgjsMarker1260)"></path></g><g id="SvgjsG1262"><path id="SvgjsPath1263" d="M567.8111756802693 103.00000000000006L567.8111756802693 77.33333333333334L567.8111756802693 77.33333333333334L567.8111756802693 51.66666666666663" stroke="#323232" stroke-width="2" fill="none"></path></g><g id="SvgjsG1264" transform="translate(33,67)"><path id="SvgjsPath1265" d="M 0 0L 120 0L 120 40L 0 40Z" stroke="none" fill="none"></path><g id="SvgjsG1266"><text id="SvgjsText1267" font-family="微软雅黑" text-anchor="middle" font-size="13px" width="120px" fill="#323232" font-weight="400" align="middle" lineHeight="125%" anchor="middle" family="微软雅黑" size="13px" weight="400" font-style="" opacity="1" y="9.375" transform="rotate(0)"><tspan id="SvgjsTspan1268" dy="16" x="60"><tspan id="SvgjsTspan1269" style="text-decoration:;">用户态 Java</tspan></tspan></text></g></g><g id="SvgjsG1270" transform="translate(305,112)"><path id="SvgjsPath1271" d="M 0 0L 120 0L 120 40L 0 40Z" stroke="none" fill="none"></path><g id="SvgjsG1272"><text id="SvgjsText1273" font-family="微软雅黑" text-anchor="middle" font-size="13px" width="120px" fill="#323232" font-weight="400" align="middle" lineHeight="125%" anchor="middle" family="微软雅黑" size="13px" weight="400" font-style="" opacity="1" y="9.375" transform="rotate(0)"><tspan id="SvgjsTspan1274" dy="16" x="60"><tspan id="SvgjsTspan1275" style="text-decoration:;">内核态 System</tspan></tspan></text></g></g><g id="SvgjsG1276" transform="translate(626,67)"><path id="SvgjsPath1277" d="M 0 0L 120 0L 120 40L 0 40Z" stroke="none" fill="none"></path><g id="SvgjsG1278"><text id="SvgjsText1279" font-family="微软雅黑" text-anchor="middle" font-size="13px" width="120px" fill="#323232" font-weight="400" align="middle" lineHeight="125%" anchor="middle" family="微软雅黑" size="13px" weight="400" font-style="" opacity="1" y="9.375" transform="rotate(0)"><tspan id="SvgjsTspan1280" dy="16" x="60"><tspan id="SvgjsTspan1281" style="text-decoration:;">用户态 Java</tspan></tspan></text></g></g><g id="SvgjsG1282" transform="translate(693,119)"><path id="SvgjsPath1283" d="M 0 0L 120 0L 120 40L 0 40Z" stroke="none" fill="none"></path><g id="SvgjsG1284"><text id="SvgjsText1285" font-family="微软雅黑" text-anchor="middle" font-size="16px" width="120px" fill="#323232" font-weight="700" align="middle" lineHeight="125%" anchor="middle" family="微软雅黑" size="16px" weight="700" font-style="" opacity="1" y="6" transform="rotate(0)"><tspan id="SvgjsTspan1286" dy="20" x="60"><tspan id="SvgjsTspan1287" style="text-decoration:;">CPU</tspan></tspan></text></g></g><g id="SvgjsG1288" transform="translate(25,214)"><path id="SvgjsPath1289" d="M 0 0L 868 0L 868 241L 0 241Z" stroke="rgba(50,50,50,1)" stroke-width="2" fill-opacity="1" fill="#c8e6c9"></path><g id="SvgjsG1290"><text id="SvgjsText1291" font-family="微软雅黑" text-anchor="middle" font-size="13px" width="848px" fill="#323232" font-weight="400" align="middle" lineHeight="125%" anchor="middle" family="微软雅黑" size="13px" weight="400" font-style="" opacity="1" y="109.875" transform="rotate(0)"></text></g></g><g id="SvgjsG1292"><path id="SvgjsPath1293" d="M26 334.5L78 334.5L78 335L819 335L819 334.5L889.4 334.5" stroke="#323232" stroke-width="2" fill="none" marker-end="url(#SvgjsMarker1294)"></path></g><g id="SvgjsG1296" transform="translate(63.53493975903615,223.42622950819674)"><path id="SvgjsPath1297" d="M 0 0L 761.4650602409639 0L 761.4650602409639 49.57377049180328L 0 49.57377049180328Z" stroke="rgba(50,50,50,1)" stroke-width="2" fill-opacity="1" fill="#fff176"></path><g id="SvgjsG1298"><text id="SvgjsText1299" font-family="微软雅黑" text-anchor="middle" font-size="13px" width="742px" fill="#323232" font-weight="400" align="middle" lineHeight="125%" anchor="middle" family="微软雅黑" size="13px" weight="400" font-style="" opacity="1" y="14.16188524590164" transform="rotate(0)"></text></g></g><g id="SvgjsG1300" transform="translate(33,217)"><path id="SvgjsPath1301" d="M 0 0L 229.01204819277106 0L 229.01204819277106 36.721311475409834L 0 36.721311475409834Z" stroke="none" fill="none"></path><g id="SvgjsG1302"><text id="SvgjsText1303" font-family="微软雅黑" text-anchor="middle" font-size="13px" width="230px" fill="#323232" font-weight="400" align="middle" lineHeight="125%" anchor="middle" family="微软雅黑" size="13px" weight="400" font-style="" opacity="1" y="7.735655737704917" transform="rotate(0)"><tspan id="SvgjsTspan1304" dy="16" x="115"><tspan id="SvgjsTspan1305" style="text-decoration:;">Java堆内存</tspan></tspan></text></g></g><g id="SvgjsG1306" transform="translate(63.53493975903615,370.1475409836066)"><path id="SvgjsPath1307" d="M 0 0L 761.4650602409639 0L 761.4650602409639 49.57377049180328L 0 49.57377049180328Z" stroke="rgba(50,50,50,1)" stroke-width="2" fill-opacity="1" fill="#fff176"></path><g id="SvgjsG1308"><text id="SvgjsText1309" font-family="微软雅黑" text-anchor="middle" font-size="13px" width="742px" fill="#323232" font-weight="400" align="middle" lineHeight="125%" anchor="middle" family="微软雅黑" size="13px" weight="400" font-style="" opacity="1" y="14.16188524590164" transform="rotate(0)"></text></g></g><g id="SvgjsG1310" transform="translate(33,363.72131147540983)"><path id="SvgjsPath1311" d="M 0 0L 229.01204819277106 0L 229.01204819277106 36.721311475409834L 0 36.721311475409834Z" stroke="none" fill="none"></path><g id="SvgjsG1312"><text id="SvgjsText1313" font-family="微软雅黑" text-anchor="middle" font-size="13px" width="230px" fill="#323232" font-weight="400" align="middle" lineHeight="125%" anchor="middle" family="微软雅黑" size="13px" weight="400" font-style="" opacity="1" y="7.735655737704917" transform="rotate(0)"><tspan id="SvgjsTspan1314" dy="16" x="115"><tspan id="SvgjsTspan1315" style="text-decoration:;">系统内存</tspan></tspan></text></g></g><g id="SvgjsG1316" transform="translate(25,481)"><path id="SvgjsPath1317" d="M 0 0L 177 0L 177 53L 0 53Z" stroke="rgba(50,50,50,1)" stroke-width="2" fill-opacity="1" fill="#e1bee7"></path><g id="SvgjsG1318"><text id="SvgjsText1319" font-family="微软雅黑" text-anchor="middle" font-size="13px" width="157px" fill="#323232" font-weight="400" align="middle" lineHeight="125%" anchor="middle" family="微软雅黑" size="13px" weight="400" font-style="" opacity="1" y="15.875" transform="rotate(0)"><tspan id="SvgjsTspan1320" dy="16" x="88.5"><tspan id="SvgjsTspan1321" style="text-decoration:;">磁盘文件</tspan></tspan></text></g></g><g id="SvgjsG1322"><path id="SvgjsPath1323" d="M203 507.5L444.2674698795181 507.5L444.2674698795181 414.21311475409834" stroke="#9c27b0" stroke-width="4" fill="none" marker-end="url(#SvgjsMarker1324)"></path></g><g id="SvgjsG1326" transform="translate(705,287)"><path id="SvgjsPath1327" d="M 0 0L 120 0L 120 40L 0 40Z" stroke="none" fill="none"></path><g id="SvgjsG1328"><text id="SvgjsText1329" font-family="微软雅黑" text-anchor="middle" font-size="16px" width="120px" fill="#323232" font-weight="700" align="middle" lineHeight="125%" anchor="middle" family="微软雅黑" size="16px" weight="700" font-style="" opacity="1" y="6" transform="rotate(0)"><tspan id="SvgjsTspan1330" dy="20" x="60"><tspan id="SvgjsTspan1331" style="text-decoration:;">内存</tspan></tspan></text></g></g><g id="SvgjsG1332" transform="translate(275.69518072289156,238.68852459016392)"><path id="SvgjsPath1333" d="M 0 0L 335.1445783132531 0L 335.1445783132531 168.75409836065575L 0 168.75409836065575Z" stroke="rgba(50,50,50,1)" stroke-width="2" fill-opacity="1" fill="#b2ebf2"></path><g id="SvgjsG1334"><text id="SvgjsText1335" font-family="微软雅黑" text-anchor="middle" font-size="13px" width="316px" fill="#323232" font-weight="400" align="middle" lineHeight="125%" anchor="middle" family="微软雅黑" size="13px" weight="400" font-style="" opacity="1" y="73.75204918032787" transform="rotate(0)"><tspan id="SvgjsTspan1336" dy="16" x="168"><tspan id="SvgjsTspan1337" style="text-decoration:;">Direct Memory</tspan></tspan></text></g></g></svg>