<svg id="SvgjsSvg1074" width="616" height="442" xmlns="http://www.w3.org/2000/svg" version="1.1" xmlns:xlink="http://www.w3.org/1999/xlink" xmlns:svgjs="http://svgjs.com/svgjs"><defs id="SvgjsDefs1075"><marker id="SvgjsMarker1114" markerWidth="14" markerHeight="10" refX="10" refY="5" viewBox="0 0 14 10" orient="auto" markerUnits="userSpaceOnUse" stroke-dasharray="0,0"><path id="SvgjsPath1115" d="M0,0 L14,5 L0,10 L0,0" fill="#323232" stroke="#323232" stroke-width="1"></path></marker><marker id="SvgjsMarker1118" markerWidth="14" markerHeight="10" refX="10" refY="5" viewBox="0 0 14 10" orient="auto" markerUnits="userSpaceOnUse" stroke-dasharray="0,0"><path id="SvgjsPath1119" d="M0,0 L14,5 L0,10 L0,0" fill="#323232" stroke="#323232" stroke-width="1"></path></marker><marker id="SvgjsMarker1122" markerWidth="14" markerHeight="10" refX="10" refY="5" viewBox="0 0 14 10" orient="auto" markerUnits="userSpaceOnUse" stroke-dasharray="0,0"><path id="SvgjsPath1123" d="M0,0 L14,5 L0,10 L0,0" fill="#323232" stroke="#323232" stroke-width="1"></path></marker><marker id="SvgjsMarker1126" markerWidth="14" markerHeight="10" refX="10" refY="5" viewBox="0 0 14 10" orient="auto" markerUnits="userSpaceOnUse" stroke-dasharray="0,0"><path id="SvgjsPath1127" d="M0,0 L14,5 L0,10 L0,0" fill="#323232" stroke="#323232" stroke-width="1"></path></marker><marker id="SvgjsMarker1134" markerWidth="14" markerHeight="10" refX="10" refY="5" viewBox="0 0 14 10" orient="auto" markerUnits="userSpaceOnUse" stroke-dasharray="0,0"><path id="SvgjsPath1135" d="M0,0 L14,5 L0,10 L0,0" fill="#323232" stroke="#323232" stroke-width="1"></path></marker><marker id="SvgjsMarker1142" markerWidth="14" markerHeight="10" refX="10" refY="5" viewBox="0 0 14 10" orient="auto" markerUnits="userSpaceOnUse" stroke-dasharray="0,0"><path id="SvgjsPath1143" d="M0,0 L14,5 L0,10 L0,0" fill="#323232" stroke="#323232" stroke-width="1"></path></marker><marker id="SvgjsMarker1150" markerWidth="14" markerHeight="10" refX="10" refY="5" viewBox="0 0 14 10" orient="auto" markerUnits="userSpaceOnUse" stroke-dasharray="0,0"><path id="SvgjsPath1151" d="M0,0 L14,5 L0,10 L0,0" fill="#323232" stroke="#323232" stroke-width="1"></path></marker><marker id="SvgjsMarker1158" markerWidth="14" markerHeight="10" refX="4" refY="5" viewBox="0 0 14 10" orient="auto" markerUnits="userSpaceOnUse" stroke-dasharray="0,0"><path id="SvgjsPath1159" d="M14,0 L0,5 L14,10 L14,0" fill="#323232" stroke="#323232" stroke-width="1"></path></marker></defs><g id="SvgjsG1076" transform="translate(25,30)"><path id="SvgjsPath1077" d="M 0 0L 140 0L 140 41L 0 41Z" stroke="rgba(33,41,48,1)" stroke-width="2" fill-opacity="1" fill="#b2ebf2"></path><g id="SvgjsG1078"><text id="SvgjsText1079" font-family="微软雅黑" text-anchor="middle" font-size="13px" width="120px" fill="#323232" font-weight="400" align="middle" lineHeight="125%" anchor="middle" family="微软雅黑" size="13px" weight="400" font-style="" opacity="1" y="9.875" transform="rotate(0)"><tspan id="SvgjsTspan1080" dy="16" x="70"><tspan id="SvgjsTspan1081" style="text-decoration:;">线程1</tspan></tspan></text></g></g><g id="SvgjsG1082" transform="translate(242,30)"><path id="SvgjsPath1083" d="M 0 0L 140 0L 140 41L 0 41Z" stroke="rgba(33,41,48,1)" stroke-width="2" fill-opacity="1" fill="#b2ebf2"></path><g id="SvgjsG1084"><text id="SvgjsText1085" font-family="微软雅黑" text-anchor="middle" font-size="13px" width="120px" fill="#323232" font-weight="400" align="middle" lineHeight="125%" anchor="middle" family="微软雅黑" size="13px" weight="400" font-style="" opacity="1" y="9.875" transform="rotate(0)"><tspan id="SvgjsTspan1086" dy="16" x="70"><tspan id="SvgjsTspan1087" style="text-decoration:;">Account对象</tspan></tspan></text></g></g><g id="SvgjsG1088" transform="translate(451,25)"><path id="SvgjsPath1089" d="M 0 0L 140 0L 140 41L 0 41Z" stroke="rgba(33,41,48,1)" stroke-width="2" fill-opacity="1" fill="#b2ebf2"></path><g id="SvgjsG1090"><text id="SvgjsText1091" font-family="微软雅黑" text-anchor="middle" font-size="13px" width="120px" fill="#323232" font-weight="400" align="middle" lineHeight="125%" anchor="middle" family="微软雅黑" size="13px" weight="400" font-style="" opacity="1" y="9.875" transform="rotate(0)"><tspan id="SvgjsTspan1092" dy="16" x="70"><tspan id="SvgjsTspan1093" style="text-decoration:;">线程2</tspan></tspan></text></g></g><g id="SvgjsG1094" transform="translate(25,376)"><path id="SvgjsPath1095" d="M 0 0L 140 0L 140 41L 0 41Z" stroke="rgba(33,41,48,1)" stroke-width="2" fill-opacity="1" fill="#b2ebf2"></path><g id="SvgjsG1096"><text id="SvgjsText1097" font-family="微软雅黑" text-anchor="middle" font-size="13px" width="120px" fill="#323232" font-weight="400" align="middle" lineHeight="125%" anchor="middle" family="微软雅黑" size="13px" weight="400" font-style="" opacity="1" y="9.875" transform="rotate(0)"><tspan id="SvgjsTspan1098" dy="16" x="70"><tspan id="SvgjsTspan1099" style="text-decoration:;">线程1</tspan></tspan></text></g></g><g id="SvgjsG1100" transform="translate(242,376)"><path id="SvgjsPath1101" d="M 0 0L 140 0L 140 41L 0 41Z" stroke="rgba(33,41,48,1)" stroke-width="2" fill-opacity="1" fill="#b2ebf2"></path><g id="SvgjsG1102"><text id="SvgjsText1103" font-family="微软雅黑" text-anchor="middle" font-size="13px" width="120px" fill="#323232" font-weight="400" align="middle" lineHeight="125%" anchor="middle" family="微软雅黑" size="13px" weight="400" font-style="" opacity="1" y="9.875" transform="rotate(0)"><tspan id="SvgjsTspan1104" dy="16" x="70"><tspan id="SvgjsTspan1105" style="text-decoration:;">Account对象</tspan></tspan></text></g></g><g id="SvgjsG1106" transform="translate(451,376)"><path id="SvgjsPath1107" d="M 0 0L 140 0L 140 41L 0 41Z" stroke="rgba(33,41,48,1)" stroke-width="2" fill-opacity="1" fill="#b2ebf2"></path><g id="SvgjsG1108"><text id="SvgjsText1109" font-family="微软雅黑" text-anchor="middle" font-size="13px" width="120px" fill="#323232" font-weight="400" align="middle" lineHeight="125%" anchor="middle" family="微软雅黑" size="13px" weight="400" font-style="" opacity="1" y="9.875" transform="rotate(0)"><tspan id="SvgjsTspan1110" dy="16" x="70"><tspan id="SvgjsTspan1111" style="text-decoration:;">线程2</tspan></tspan></text></g></g><g id="SvgjsG1112"><path id="SvgjsPath1113" d="M95 72L95 223.5L95 223.5L95 372.4" stroke="#323232" stroke-width="2" fill="none" marker-end="url(#SvgjsMarker1114)"></path></g><g id="SvgjsG1116"><path id="SvgjsPath1117" d="M521 67L521 221L521 221L521 372.4" stroke="#323232" stroke-width="2" fill="none" marker-end="url(#SvgjsMarker1118)"></path></g><g id="SvgjsG1120"><path id="SvgjsPath1121" d="M312 72L312 223.5L312 223.5L312 372.4" stroke="#323232" stroke-width="2" fill="none" marker-end="url(#SvgjsMarker1122)"></path></g><g id="SvgjsG1124"><path id="SvgjsPath1125" d="M97 108L200.5 108L200.5 108L304 108" stroke="#323232" stroke-width="2" fill="none" marker-end="url(#SvgjsMarker1126)"></path><rect id="SvgjsRect1128" width="77" height="16" x="162" y="100" fill="#ffffff"></rect><text id="SvgjsText1129" font-family="微软雅黑" text-anchor="middle" font-size="13px" width="77px" fill="#323232" font-weight="400" align="top" lineHeight="16px" anchor="middle" family="微软雅黑" size="13px" weight="400" font-style="" opacity="1" y="97.375" transform="rotate(0)"><tspan id="SvgjsTspan1130" dy="16" x="200.5"><tspan id="SvgjsTspan1131" style="text-decoration:;">获取余额 100</tspan></tspan></text></g><g id="SvgjsG1132"><path id="SvgjsPath1133" d="M98 126C 170 126 167 145 98 146" stroke="#323232" stroke-width="2" fill="none" marker-end="url(#SvgjsMarker1134)"></path><rect id="SvgjsRect1136" width="54" height="16" x="123.875" y="127.625" fill="#ffffff"></rect><text id="SvgjsText1137" font-family="微软雅黑" text-anchor="middle" font-size="13px" width="54px" fill="#323232" font-weight="400" align="top" lineHeight="16px" anchor="middle" family="微软雅黑" size="13px" weight="400" font-style="" opacity="1" y="125" transform="rotate(0)"><tspan id="SvgjsTspan1138" dy="16" x="150.875"><tspan id="SvgjsTspan1139" style="text-decoration:;">减 10=90</tspan></tspan></text></g><g id="SvgjsG1140"><path id="SvgjsPath1141" d="M97 166L200.5 166L200.5 166L304 166" stroke="#323232" stroke-width="2" fill="none" marker-end="url(#SvgjsMarker1142)"></path><rect id="SvgjsRect1144" width="69" height="16" x="166" y="158" fill="#ffffff"></rect><text id="SvgjsText1145" font-family="微软雅黑" text-anchor="middle" font-size="13px" width="69px" fill="#323232" font-weight="400" align="top" lineHeight="16px" anchor="middle" family="微软雅黑" size="13px" weight="400" font-style="" opacity="1" y="155.375" transform="rotate(0)"><tspan id="SvgjsTspan1146" dy="16" x="200.5"><tspan id="SvgjsTspan1147" style="text-decoration:;">cas(100,90)</tspan></tspan></text></g><g id="SvgjsG1148"><path id="SvgjsPath1149" d="M97 196L200.5 196L200.5 196L304 196" stroke="#323232" stroke-width="2" fill="none" marker-end="url(#SvgjsMarker1150)"></path><rect id="SvgjsRect1152" width="68" height="16" x="166.5" y="188" fill="#ffffff"></rect><text id="SvgjsText1153" font-family="微软雅黑" text-anchor="middle" font-size="13px" width="68px" fill="#323232" font-weight="400" align="top" lineHeight="16px" anchor="middle" family="微软雅黑" size="13px" weight="400" font-style="" opacity="1" y="185.375" transform="rotate(0)"><tspan id="SvgjsTspan1154" dy="16" x="200.5"><tspan id="SvgjsTspan1155" style="text-decoration:;">获取余额90</tspan></tspan></text></g><g id="SvgjsG1156"><path id="SvgjsPath1157" d="M327 147L420.5 147L420.5 147L514 147" stroke="#323232" stroke-width="2" fill="none" marker-start="url(#SvgjsMarker1158)"></path><rect id="SvgjsRect1160" width="89" height="16" x="376" y="139" fill="#ffffff"></rect><text id="SvgjsText1161" font-family="微软雅黑" text-anchor="middle" font-size="13px" width="89px" fill="#323232" font-weight="400" align="top" lineHeight="16px" anchor="middle" family="微软雅黑" size="13px" weight="400" font-style="" opacity="1" y="136.375" transform="rotate(0)"><tspan id="SvgjsTspan1162" dy="16" x="420.5"><tspan id="SvgjsTspan1163" style="text-decoration:;">已经改为 90 了</tspan></tspan></text></g></svg>