<svg id="SvgjsSvg1086" width="630" height="280" xmlns="http://www.w3.org/2000/svg" version="1.1" xmlns:xlink="http://www.w3.org/1999/xlink" xmlns:svgjs="http://svgjs.com/svgjs"><defs id="SvgjsDefs1087"><marker id="SvgjsMarker1164" markerWidth="14" markerHeight="10" refX="10" refY="5" viewBox="0 0 14 10" orient="auto" markerUnits="userSpaceOnUse" stroke-dasharray="0,0"><path id="SvgjsPath1165" d="M0,0 L14,5 L0,10 L0,0" fill="#323232" stroke="#323232" stroke-width="1"></path></marker><marker id="SvgjsMarker1168" markerWidth="14" markerHeight="10" refX="10" refY="5" viewBox="0 0 14 10" orient="auto" markerUnits="userSpaceOnUse" stroke-dasharray="0,0"><path id="SvgjsPath1169" d="M0,0 L14,5 L0,10 L0,0" fill="#323232" stroke="#323232" stroke-width="1"></path></marker><marker id="SvgjsMarker1172" markerWidth="14" markerHeight="10" refX="10" refY="5" viewBox="0 0 14 10" orient="auto" markerUnits="userSpaceOnUse" stroke-dasharray="0,0"><path id="SvgjsPath1173" d="M0,0 L14,5 L0,10 L0,0" fill="#323232" stroke="#323232" stroke-width="1"></path></marker></defs><g id="SvgjsG1088" transform="translate(25,153)"><path id="SvgjsPath1089" d="M 0 0L 34 0L 34 102L 0 102Z" stroke="rgba(33,41,48,1)" stroke-width="2" fill-opacity="1" fill="#c8e6c9"></path><g id="SvgjsG1090"><text id="SvgjsText1091" font-family="微软雅黑" text-anchor="middle" font-size="13px" width="14px" fill="#323232" font-weight="400" align="middle" lineHeight="125%" anchor="middle" family="微软雅黑" size="13px" weight="400" font-style="" opacity="1" y="40.375" transform="rotate(0)"><tspan id="SvgjsTspan1092" dy="16" x="17"><tspan id="SvgjsTspan1093" style="text-decoration:;">a</tspan></tspan></text></g></g><g id="SvgjsG1094" transform="translate(57,153)"><path id="SvgjsPath1095" d="M 0 0L 34 0L 34 102L 0 102Z" stroke="rgba(33,41,48,1)" stroke-width="2" fill-opacity="1" fill="#c8e6c9"></path><g id="SvgjsG1096"><text id="SvgjsText1097" font-family="微软雅黑" text-anchor="middle" font-size="13px" width="14px" fill="#323232" font-weight="400" align="middle" lineHeight="125%" anchor="middle" family="微软雅黑" size="13px" weight="400" font-style="" opacity="1" y="40.375" transform="rotate(0)"><tspan id="SvgjsTspan1098" dy="16" x="17"><tspan id="SvgjsTspan1099" style="text-decoration:;">b</tspan></tspan></text></g></g><g id="SvgjsG1100" transform="translate(90,153)"><path id="SvgjsPath1101" d="M 0 0L 34 0L 34 102L 0 102Z" stroke="rgba(33,41,48,1)" stroke-width="2" fill-opacity="1" fill="#c8e6c9"></path><g id="SvgjsG1102"><text id="SvgjsText1103" font-family="微软雅黑" text-anchor="middle" font-size="13px" width="14px" fill="#323232" font-weight="400" align="middle" lineHeight="125%" anchor="middle" family="微软雅黑" size="13px" weight="400" font-style="" opacity="1" y="40.375" transform="rotate(0)"><tspan id="SvgjsTspan1104" dy="16" x="17"><tspan id="SvgjsTspan1105" style="text-decoration:;">c</tspan></tspan></text></g></g><g id="SvgjsG1106" transform="translate(122,153)"><path id="SvgjsPath1107" d="M 0 0L 34 0L 34 102L 0 102Z" stroke="rgba(33,41,48,1)" stroke-width="2" fill-opacity="1" fill="#c8e6c9"></path><g id="SvgjsG1108"><text id="SvgjsText1109" font-family="微软雅黑" text-anchor="middle" font-size="13px" width="14px" fill="#323232" font-weight="400" align="middle" lineHeight="125%" anchor="middle" family="微软雅黑" size="13px" weight="400" font-style="" opacity="1" y="40.375" transform="rotate(0)"><tspan id="SvgjsTspan1110" dy="16" x="17"><tspan id="SvgjsTspan1111" style="text-decoration:;">d</tspan></tspan></text></g></g><g id="SvgjsG1112" transform="translate(155,153)"><path id="SvgjsPath1113" d="M 0 0L 34 0L 34 102L 0 102Z" stroke="rgba(33,41,48,1)" stroke-width="2" fill-opacity="1" fill="#ffffff"></path><g id="SvgjsG1114"><text id="SvgjsText1115" font-family="微软雅黑" text-anchor="middle" font-size="13px" width="14px" fill="#323232" font-weight="400" align="middle" lineHeight="125%" anchor="middle" family="微软雅黑" size="13px" weight="400" font-style="" opacity="1" y="40.375" transform="rotate(0)"></text></g></g><g id="SvgjsG1116" transform="translate(187,153)"><path id="SvgjsPath1117" d="M 0 0L 34 0L 34 102L 0 102Z" stroke="rgba(33,41,48,1)" stroke-width="2" fill-opacity="1" fill="#ffffff"></path><g id="SvgjsG1118"><text id="SvgjsText1119" font-family="微软雅黑" text-anchor="middle" font-size="13px" width="14px" fill="#323232" font-weight="400" align="middle" lineHeight="125%" anchor="middle" family="微软雅黑" size="13px" weight="400" font-style="" opacity="1" y="40.375" transform="rotate(0)"></text></g></g><g id="SvgjsG1120" transform="translate(220,153)"><path id="SvgjsPath1121" d="M 0 0L 34 0L 34 102L 0 102Z" stroke="rgba(33,41,48,1)" stroke-width="2" fill-opacity="1" fill="#ffffff"></path><g id="SvgjsG1122"><text id="SvgjsText1123" font-family="微软雅黑" text-anchor="middle" font-size="13px" width="14px" fill="#323232" font-weight="400" align="middle" lineHeight="125%" anchor="middle" family="微软雅黑" size="13px" weight="400" font-style="" opacity="1" y="40.375" transform="rotate(0)"></text></g></g><g id="SvgjsG1124" transform="translate(252,153)"><path id="SvgjsPath1125" d="M 0 0L 34 0L 34 102L 0 102Z" stroke="rgba(33,41,48,1)" stroke-width="2" fill-opacity="1" fill="#ffffff"></path><g id="SvgjsG1126"><text id="SvgjsText1127" font-family="微软雅黑" text-anchor="middle" font-size="13px" width="14px" fill="#323232" font-weight="400" align="middle" lineHeight="125%" anchor="middle" family="微软雅黑" size="13px" weight="400" font-style="" opacity="1" y="40.375" transform="rotate(0)"></text></g></g><g id="SvgjsG1128" transform="translate(285,153)"><path id="SvgjsPath1129" d="M 0 0L 34 0L 34 102L 0 102Z" stroke="rgba(33,41,48,1)" stroke-width="2" fill-opacity="1" fill="#ffffff"></path><g id="SvgjsG1130"><text id="SvgjsText1131" font-family="微软雅黑" text-anchor="middle" font-size="13px" width="14px" fill="#323232" font-weight="400" align="middle" lineHeight="125%" anchor="middle" family="微软雅黑" size="13px" weight="400" font-style="" opacity="1" y="40.375" transform="rotate(0)"></text></g></g><g id="SvgjsG1132" transform="translate(317,153)"><path id="SvgjsPath1133" d="M 0 0L 34 0L 34 102L 0 102Z" stroke="rgba(33,41,48,1)" stroke-width="2" fill-opacity="1" fill="#ffffff"></path><g id="SvgjsG1134"><text id="SvgjsText1135" font-family="微软雅黑" text-anchor="middle" font-size="13px" width="14px" fill="#323232" font-weight="400" align="middle" lineHeight="125%" anchor="middle" family="微软雅黑" size="13px" weight="400" font-style="" opacity="1" y="40.375" transform="rotate(0)"></text></g></g><g id="SvgjsG1136" transform="translate(350,153)"><path id="SvgjsPath1137" d="M 0 0L 34 0L 34 102L 0 102Z" stroke="rgba(33,41,48,1)" stroke-width="2" fill-opacity="1" fill="#ffffff"></path><g id="SvgjsG1138"><text id="SvgjsText1139" font-family="微软雅黑" text-anchor="middle" font-size="13px" width="14px" fill="#323232" font-weight="400" align="middle" lineHeight="125%" anchor="middle" family="微软雅黑" size="13px" weight="400" font-style="" opacity="1" y="40.375" transform="rotate(0)"></text></g></g><g id="SvgjsG1140" transform="translate(382,153)"><path id="SvgjsPath1141" d="M 0 0L 34 0L 34 102L 0 102Z" stroke="rgba(33,41,48,1)" stroke-width="2" fill-opacity="1" fill="#ffffff"></path><g id="SvgjsG1142"><text id="SvgjsText1143" font-family="微软雅黑" text-anchor="middle" font-size="13px" width="14px" fill="#323232" font-weight="400" align="middle" lineHeight="125%" anchor="middle" family="微软雅黑" size="13px" weight="400" font-style="" opacity="1" y="40.375" transform="rotate(0)"></text></g></g><g id="SvgjsG1144" transform="translate(106,30)"><path id="SvgjsPath1145" d="M 0 0L 100 0L 100 40L 0 40Z" stroke="none" fill="none"></path><g id="SvgjsG1146"><text id="SvgjsText1147" font-family="微软雅黑" text-anchor="middle" font-size="13px" width="100px" fill="#323232" font-weight="700" align="middle" lineHeight="125%" anchor="middle" family="微软雅黑" size="13px" weight="700" font-style="" opacity="1" y="9.375" transform="rotate(0)"><tspan id="SvgjsTspan1148" dy="16" x="50"><tspan id="SvgjsTspan1149" style="text-decoration:;">Position</tspan></tspan></text></g></g><g id="SvgjsG1150" transform="translate(360,25)"><path id="SvgjsPath1151" d="M 0 0L 100 0L 100 40L 0 40Z" stroke="none" fill="none"></path><g id="SvgjsG1152"><text id="SvgjsText1153" font-family="微软雅黑" text-anchor="middle" font-size="13px" width="100px" fill="#323232" font-weight="700" align="middle" lineHeight="125%" anchor="middle" family="微软雅黑" size="13px" weight="700" font-style="" opacity="1" y="9.375" transform="rotate(0)"><tspan id="SvgjsTspan1154" dy="16" x="50"><tspan id="SvgjsTspan1155" style="text-decoration:;">Limit写入限制</tspan></tspan></text></g></g><g id="SvgjsG1156" transform="translate(505,25)"><path id="SvgjsPath1157" d="M 0 0L 100 0L 100 40L 0 40Z" stroke="none" fill="none"></path><g id="SvgjsG1158"><text id="SvgjsText1159" font-family="微软雅黑" text-anchor="middle" font-size="13px" width="100px" fill="#323232" font-weight="700" align="middle" lineHeight="125%" anchor="middle" family="微软雅黑" size="13px" weight="700" font-style="" opacity="1" y="9.375" transform="rotate(0)"><tspan id="SvgjsTspan1160" dy="16" x="50"><tspan id="SvgjsTspan1161" style="text-decoration:;">Capacity容量</tspan></tspan></text></g></g><g id="SvgjsG1162"><path id="SvgjsPath1163" d="M156 71L156 111.62132034355965L156 111.62132034355965L156 149.6426406871193" stroke="#323232" stroke-width="2" fill="none" marker-end="url(#SvgjsMarker1164)"></path></g><g id="SvgjsG1166"><path id="SvgjsPath1167" d="M410 66L410 109.03108891324554L410 109.03108891324554L410 149.4621778264911" stroke="#323232" stroke-width="2" fill="none" marker-end="url(#SvgjsMarker1168)"></path></g><g id="SvgjsG1170"><path id="SvgjsPath1171" d="M554.1542850547872 65.53363492337336L418.5804721876283 151.07891427585594" stroke="#323232" stroke-width="2" fill="none" marker-end="url(#SvgjsMarker1172)"></path></g></svg>