<svg id="SvgjsSvg1001" width="597" height="292" xmlns="http://www.w3.org/2000/svg" version="1.1" xmlns:xlink="http://www.w3.org/1999/xlink" xmlns:svgjs="http://svgjs.com/svgjs"><defs id="SvgjsDefs1002"><marker id="SvgjsMarker1046" markerWidth="14" markerHeight="10" refX="10" refY="5" viewBox="0 0 14 10" orient="auto" markerUnits="userSpaceOnUse" stroke-dasharray="0,0"><path id="SvgjsPath1047" d="M0,0 L14,5 L0,10 L0,0" fill="#323232" stroke="#323232" stroke-width="1"></path></marker><marker id="SvgjsMarker1050" markerWidth="14" markerHeight="10" refX="10" refY="5" viewBox="0 0 14 10" orient="auto" markerUnits="userSpaceOnUse" stroke-dasharray="0,0"><path id="SvgjsPath1051" d="M0,0 L14,5 L0,10 L0,0" fill="#323232" stroke="#323232" stroke-width="1"></path></marker><marker id="SvgjsMarker1054" markerWidth="14" markerHeight="10" refX="10" refY="5" viewBox="0 0 14 10" orient="auto" markerUnits="userSpaceOnUse" stroke-dasharray="0,0"><path id="SvgjsPath1055" d="M0,0 L14,5 L0,10 L0,0" fill="#323232" stroke="#323232" stroke-width="1"></path></marker><marker id="SvgjsMarker1058" markerWidth="14" markerHeight="10" refX="10" refY="5" viewBox="0 0 14 10" orient="auto" markerUnits="userSpaceOnUse" stroke-dasharray="0,0"><path id="SvgjsPath1059" d="M0,0 L14,5 L0,10 L0,0" fill="#323232" stroke="#323232" stroke-width="1"></path></marker><marker id="SvgjsMarker1062" markerWidth="14" markerHeight="10" refX="10" refY="5" viewBox="0 0 14 10" orient="auto" markerUnits="userSpaceOnUse" stroke-dasharray="0,0"><path id="SvgjsPath1063" d="M0,0 L14,5 L0,10 L0,0" fill="#323232" stroke="#323232" stroke-width="1"></path></marker></defs><g id="SvgjsG1008" transform="translate(116,25)"><path id="SvgjsPath1009" d="M 0 0L 162 0L 162 34L 0 34Z" stroke="rgba(33,41,48,1)" stroke-width="2" fill-opacity="1" fill="#ffe0b2"></path><g id="SvgjsG1010"><text id="SvgjsText1011" font-family="微软雅黑" text-anchor="middle" font-size="13px" width="142px" fill="#323232" font-weight="400" align="middle" lineHeight="125%" anchor="middle" family="微软雅黑" size="13px" weight="400" font-style="" opacity="1" y="6.375" transform="rotate(0)"><tspan id="SvgjsTspan1012" dy="16" x="81"><tspan id="SvgjsTspan1013" style="text-decoration:;fill: rgb(68, 68, 68);">CharSequence</tspan></tspan></text></g></g><g id="SvgjsG1014" transform="translate(344,25)"><path id="SvgjsPath1015" d="M 0 0L 162 0L 162 34L 0 34Z" stroke="rgba(33,41,48,1)" stroke-width="2" fill-opacity="1" fill="#ffe0b2"></path><g id="SvgjsG1016"><text id="SvgjsText1017" font-family="微软雅黑" text-anchor="middle" font-size="13px" width="142px" fill="#323232" font-weight="400" align="middle" lineHeight="125%" anchor="middle" family="微软雅黑" size="13px" weight="400" font-style="" opacity="1" y="6.375" transform="rotate(0)"><tspan id="SvgjsTspan1018" dy="16" x="81"><tspan id="SvgjsTspan1019" style="text-decoration:;fill: rgb(68, 68, 68);">Appendable</tspan></tspan></text></g></g><g id="SvgjsG1020" transform="translate(265,103)"><path id="SvgjsPath1021" d="M 0 0L 162 0L 162 34L 0 34Z" stroke="rgba(33,41,48,1)" stroke-width="2" fill-opacity="1" fill="#bbdefb"></path><g id="SvgjsG1022"><text id="SvgjsText1023" font-family="微软雅黑" text-anchor="middle" font-size="13px" width="142px" fill="#323232" font-weight="400" align="middle" lineHeight="125%" anchor="middle" family="微软雅黑" size="13px" weight="400" font-style="" opacity="1" y="6.375" transform="rotate(0)"><tspan id="SvgjsTspan1024" dy="16" x="81"><tspan id="SvgjsTspan1025" style="text-decoration:;fill: rgb(68, 68, 68);">AbstractStringBuilder</tspan></tspan></text></g></g><g id="SvgjsG1026" transform="translate(25,103)"><path id="SvgjsPath1027" d="M 0 0L 162 0L 162 34L 0 34Z" stroke="rgba(33,41,48,1)" stroke-width="2" fill-opacity="1" fill="#c8e6c9"></path><g id="SvgjsG1028"><text id="SvgjsText1029" font-family="微软雅黑" text-anchor="middle" font-size="13px" width="142px" fill="#323232" font-weight="400" align="middle" lineHeight="125%" anchor="middle" family="微软雅黑" size="13px" weight="400" font-style="" opacity="1" y="6.375" transform="rotate(0)"><tspan id="SvgjsTspan1030" dy="16" x="81"><tspan id="SvgjsTspan1031" style="text-decoration:;fill: rgb(68, 68, 68);">String</tspan></tspan></text></g></g><g id="SvgjsG1032" transform="translate(109,193)"><path id="SvgjsPath1033" d="M 0 0L 162 0L 162 34L 0 34Z" stroke="rgba(33,41,48,1)" stroke-width="2" fill-opacity="1" fill="#c8e6c9"></path><g id="SvgjsG1034"><text id="SvgjsText1035" font-family="微软雅黑" text-anchor="middle" font-size="13px" width="142px" fill="#323232" font-weight="400" align="middle" lineHeight="125%" anchor="middle" family="微软雅黑" size="13px" weight="400" font-style="" opacity="1" y="6.375" transform="rotate(0)"><tspan id="SvgjsTspan1036" dy="16" x="81"><tspan id="SvgjsTspan1037" style="text-decoration:;fill: rgb(68, 68, 68);">StringBuilder</tspan></tspan></text></g></g><g id="SvgjsG1038" transform="translate(410,193)"><path id="SvgjsPath1039" d="M 0 0L 162 0L 162 34L 0 34Z" stroke="rgba(33,41,48,1)" stroke-width="2" fill-opacity="1" fill="#c8e6c9"></path><g id="SvgjsG1040"><text id="SvgjsText1041" font-family="微软雅黑" text-anchor="middle" font-size="13px" width="142px" fill="#323232" font-weight="400" align="middle" lineHeight="125%" anchor="middle" family="微软雅黑" size="13px" weight="400" font-style="" opacity="1" y="6.375" transform="rotate(0)"><tspan id="SvgjsTspan1042" dy="16" x="81"><tspan id="SvgjsTspan1043" style="text-decoration:;fill: rgb(68, 68, 68);">StringBuffer</tspan></tspan></text></g></g><g id="SvgjsG1044"><path id="SvgjsPath1045" d="M106 102L106 81L166 81L166 62.599999999999994" stroke="#323232" stroke-width="2" fill="none" marker-end="url(#SvgjsMarker1046)"></path></g><g id="SvgjsG1048"><path id="SvgjsPath1049" d="M318 102L318 81L220 81L220 62.599999999999994" stroke="#323232" stroke-width="2" fill="none" marker-end="url(#SvgjsMarker1050)"></path></g><g id="SvgjsG1052"><path id="SvgjsPath1053" d="M374 102L374 81L425 81L425 62.599999999999994" stroke="#323232" stroke-width="2" fill="none" marker-end="url(#SvgjsMarker1054)"></path></g><g id="SvgjsG1056"><path id="SvgjsPath1057" d="M190 192L190 165L346 165L346 140.6" stroke="#323232" stroke-width="2" fill="none" marker-end="url(#SvgjsMarker1058)"></path></g><g id="SvgjsG1060"><path id="SvgjsPath1061" d="M491 192L491 165L346 165L346 140.6" stroke="#323232" stroke-width="2" fill="none" marker-end="url(#SvgjsMarker1062)"></path></g><g id="SvgjsG1064" transform="translate(135,227)"><path id="SvgjsPath1065" d="M 0 0L 100 0L 100 40L 0 40Z" stroke="none" fill="none"></path><g id="SvgjsG1066"><text id="SvgjsText1067" font-family="微软雅黑" text-anchor="middle" font-size="13px" width="100px" fill="#323232" font-weight="400" align="middle" lineHeight="125%" anchor="middle" family="微软雅黑" size="13px" weight="400" font-style="" opacity="1" y="9.375" transform="rotate(0)"><tspan id="SvgjsTspan1068" dy="16" x="50"><tspan id="SvgjsTspan1069" style="text-decoration:;">线程不安全</tspan></tspan></text></g></g><g id="SvgjsG1070" transform="translate(440,227)"><path id="SvgjsPath1071" d="M 0 0L 100 0L 100 40L 0 40Z" stroke="none" fill="none"></path><g id="SvgjsG1072"><text id="SvgjsText1073" font-family="微软雅黑" text-anchor="middle" font-size="13px" width="100px" fill="#323232" font-weight="400" align="middle" lineHeight="125%" anchor="middle" family="微软雅黑" size="13px" weight="400" font-style="" opacity="1" y="9.375" transform="rotate(0)"><tspan id="SvgjsTspan1074" dy="16" x="50"><tspan id="SvgjsTspan1075" style="text-decoration:;">线程安全</tspan></tspan></text></g></g></svg>