<svg id="SvgjsSvg1001" width="738" height="392" xmlns="http://www.w3.org/2000/svg" version="1.1" xmlns:xlink="http://www.w3.org/1999/xlink" xmlns:svgjs="http://svgjs.com/svgjs"><defs id="SvgjsDefs1002"><marker id="SvgjsMarker1030" markerWidth="14" markerHeight="10" refX="10" refY="5" viewBox="0 0 14 10" orient="auto" markerUnits="userSpaceOnUse" stroke-dasharray="0,0"><path id="SvgjsPath1031" d="M0,0 L14,5 L0,10 L0,0" fill="#323232" stroke="#323232" stroke-width="1"></path></marker><marker id="SvgjsMarker1038" markerWidth="14" markerHeight="10" refX="10" refY="5" viewBox="0 0 14 10" orient="auto" markerUnits="userSpaceOnUse" stroke-dasharray="0,0"><path id="SvgjsPath1039" d="M0,0 L14,5 L0,10 L0,0" fill="#323232" stroke="#323232" stroke-width="1"></path></marker></defs><g id="SvgjsG1008" transform="translate(25,124)"><path id="SvgjsPath1009" d="M 0 0L 686 0L 686 56L 0 56Z" stroke="rgba(33,41,48,1)" stroke-width="2" fill-opacity="1" fill="#ffffff"></path><g id="SvgjsG1010"><text id="SvgjsText1011" font-family="微软雅黑" text-anchor="middle" font-size="13px" width="666px" fill="#323232" font-weight="400" align="middle" lineHeight="125%" anchor="middle" family="微软雅黑" size="13px" weight="400" font-style="" opacity="1" y="17.375" transform="rotate(0)"></text></g></g><g id="SvgjsG1012" transform="translate(28,134)"><path id="SvgjsPath1013" d="M 0 0L 90 0L 90 38L 0 38Z" stroke="rgba(33,41,48,1)" stroke-width="2" fill-opacity="1" fill="#9e9e9e"></path><g id="SvgjsG1014"><text id="SvgjsText1015" font-family="微软雅黑" text-anchor="middle" font-size="13px" width="70px" fill="#323232" font-weight="400" align="middle" lineHeight="125%" anchor="middle" family="微软雅黑" size="13px" weight="400" font-style="" opacity="1" y="8.375" transform="rotate(0)"></text></g></g><g id="SvgjsG1016" transform="translate(121,134)"><path id="SvgjsPath1017" d="M 0 0L 151 0L 151 38L 0 38Z" stroke="rgba(33,41,48,1)" stroke-width="2" fill-opacity="1" fill="#81c784"></path><g id="SvgjsG1018"><text id="SvgjsText1019" font-family="微软雅黑" text-anchor="middle" font-size="13px" width="131px" fill="#323232" font-weight="400" align="middle" lineHeight="125%" anchor="middle" family="微软雅黑" size="13px" weight="400" font-style="" opacity="1" y="8.375" transform="rotate(0)"></text></g></g><g id="SvgjsG1020" transform="translate(275,134)"><path id="SvgjsPath1021" d="M 0 0L 272 0L 272 38L 0 38Z" stroke="rgba(33,41,48,1)" stroke-width="2" fill-opacity="1" fill="#4dd0e1"></path><g id="SvgjsG1022"><text id="SvgjsText1023" font-family="微软雅黑" text-anchor="middle" font-size="13px" width="252px" fill="#323232" font-weight="400" align="middle" lineHeight="125%" anchor="middle" family="微软雅黑" size="13px" weight="400" font-style="" opacity="1" y="8.375" transform="rotate(0)"></text></g></g><g id="SvgjsG1024" transform="translate(550,134)"><path id="SvgjsPath1025" d="M 0 0L 153 0L 153 38L 0 38Z" stroke="rgba(33,41,48,1)" stroke-width="2" fill-opacity="1" fill="#ffb74d"></path><g id="SvgjsG1026"><text id="SvgjsText1027" font-family="微软雅黑" text-anchor="middle" font-size="13px" width="133px" fill="#323232" font-weight="400" align="middle" lineHeight="125%" anchor="middle" family="微软雅黑" size="13px" weight="400" font-style="" opacity="1" y="8.375" transform="rotate(0)"></text></g></g><g id="SvgjsG1028"><path id="SvgjsPath1029" d="M119 26L119 69.5L119 69.5L119 113" stroke="#323232" stroke-width="2" fill="none" marker-end="url(#SvgjsMarker1030)"></path><rect id="SvgjsRect1032" width="39" height="16" x="99.5" y="61.5" fill="#ffffff"></rect><text id="SvgjsText1033" font-family="微软雅黑" text-anchor="middle" font-size="13px" width="39px" fill="#323232" font-weight="400" align="top" lineHeight="16px" anchor="middle" family="微软雅黑" size="13px" weight="400" font-style="" opacity="1" y="58.875" transform="rotate(0)"><tspan id="SvgjsTspan1034" dy="16" x="119"><tspan id="SvgjsTspan1035" style="text-decoration:;">读指针</tspan></tspan></text></g><g id="SvgjsG1036"><path id="SvgjsPath1037" d="M273 25L273 68.5L273 68.5L273 112" stroke="#323232" stroke-width="2" fill="none" marker-end="url(#SvgjsMarker1038)"></path><rect id="SvgjsRect1040" width="39" height="16" x="253.5" y="60.5" fill="#ffffff"></rect><text id="SvgjsText1041" font-family="微软雅黑" text-anchor="middle" font-size="13px" width="39px" fill="#323232" font-weight="400" align="top" lineHeight="16px" anchor="middle" family="微软雅黑" size="13px" weight="400" font-style="" opacity="1" y="57.875" transform="rotate(0)"><tspan id="SvgjsTspan1042" dy="16" x="273"><tspan id="SvgjsTspan1043" style="text-decoration:;">写指针</tspan></tspan></text></g><g id="SvgjsG1044" transform="matrix(6.123233995736766e-17,1,-1,6.123233995736766e-17,544,192)"><path id="SvgjsPath1045" d="M 0 519Q 9 519 9 510L 9 268.5Q 9 259.5 22 259.5Q 9 259.5 9 250.5L 9 9Q 9 0 0 0" stroke="rgba(33,41,48,1)" stroke-width="2" fill="none"></path><path id="SvgjsPath1046" d="M 0 0L 120 0L 120 519L 0 519Z" stroke="none" fill="none"></path><g id="SvgjsG1047"><text id="SvgjsText1048" font-family="微软雅黑" text-anchor="start" font-size="13px" width="93px" fill="#323232" font-weight="400" align="middle" lineHeight="125%" anchor="start" family="微软雅黑" size="13px" weight="400" font-style="" opacity="1" y="248.875" transform="rotate(0)"></text></g></g><g id="SvgjsG1049" transform="matrix(6.123233995736766e-17,1,-1,6.123233995736766e-17,713,246.99999999999997)"><path id="SvgjsPath1050" d="M 0 686Q 9 686 9 677L 9 352Q 9 343 22 343Q 9 343 9 334L 9 9Q 9 0 0 0" stroke="rgba(33,41,48,1)" stroke-width="2" fill="none"></path><path id="SvgjsPath1051" d="M 0 0L 120 0L 120 686L 0 686Z" stroke="none" fill="none"></path><g id="SvgjsG1052"><text id="SvgjsText1053" font-family="微软雅黑" text-anchor="start" font-size="13px" width="93px" fill="#323232" font-weight="400" align="middle" lineHeight="125%" anchor="start" family="微软雅黑" size="13px" weight="400" font-style="" opacity="1" y="332.375" transform="rotate(0)"></text></g></g><g id="SvgjsG1054" transform="translate(234,207)"><path id="SvgjsPath1055" d="M 0 0L 100 0L 100 40L 0 40Z" stroke="none" fill="none"></path><g id="SvgjsG1056"><text id="SvgjsText1057" font-family="微软雅黑" text-anchor="middle" font-size="13px" width="100px" fill="#323232" font-weight="400" align="middle" lineHeight="125%" anchor="middle" family="微软雅黑" size="13px" weight="400" font-style="" opacity="1" y="9.375" transform="rotate(0)"><tspan id="SvgjsTspan1058" dy="16" x="50"><tspan id="SvgjsTspan1059" style="text-decoration:;">capacity</tspan></tspan></text></g></g><g id="SvgjsG1060" transform="translate(326,274)"><path id="SvgjsPath1061" d="M 0 0L 100 0L 100 40L 0 40Z" stroke="none" fill="none"></path><g id="SvgjsG1062"><text id="SvgjsText1063" font-family="微软雅黑" text-anchor="middle" font-size="13px" width="100px" fill="#323232" font-weight="400" align="middle" lineHeight="125%" anchor="middle" family="微软雅黑" size="13px" weight="400" font-style="" opacity="1" y="9.375" transform="rotate(0)"><tspan id="SvgjsTspan1064" dy="16" x="50"><tspan id="SvgjsTspan1065" style="text-decoration:;">max capacity</tspan></tspan></text></g></g></svg>