<svg id="SvgjsSvg1006" width="1659" height="697.5" xmlns="http://www.w3.org/2000/svg" version="1.1" xmlns:xlink="http://www.w3.org/1999/xlink" xmlns:svgjs="http://svgjs.com/svgjs"><defs id="SvgjsDefs1007"><marker id="SvgjsMarker1175" markerWidth="14" markerHeight="10" refX="10" refY="5" viewBox="0 0 14 10" orient="auto" markerUnits="userSpaceOnUse" stroke-dasharray="0,0"><path id="SvgjsPath1176" d="M0,0 L14,5 L0,10 L0,0" fill="#323232" stroke="#323232" stroke-width="1"></path></marker><marker id="SvgjsMarker1179" markerWidth="14" markerHeight="10" refX="10" refY="5" viewBox="0 0 14 10" orient="auto" markerUnits="userSpaceOnUse" stroke-dasharray="0,0"><path id="SvgjsPath1180" d="M0,0 L14,5 L0,10 L0,0" fill="#323232" stroke="#323232" stroke-width="1"></path></marker><marker id="SvgjsMarker1231" markerWidth="14" markerHeight="10" refX="10" refY="5" viewBox="0 0 14 10" orient="auto" markerUnits="userSpaceOnUse" stroke-dasharray="0,0"><path id="SvgjsPath1232" d="M0,0 L14,5 L0,10 L0,0" fill="#323232" stroke="#323232" stroke-width="1"></path></marker><marker id="SvgjsMarker1241" markerWidth="14" markerHeight="10" refX="10" refY="5" viewBox="0 0 14 10" orient="auto" markerUnits="userSpaceOnUse" stroke-dasharray="0,0"><path id="SvgjsPath1242" d="M0,0 L14,5 L0,10 L0,0" fill="#323232" stroke="#323232" stroke-width="1"></path></marker><marker id="SvgjsMarker1303" markerWidth="14" markerHeight="10" refX="10" refY="5" viewBox="0 0 14 10" orient="auto" markerUnits="userSpaceOnUse" stroke-dasharray="0,0"><path id="SvgjsPath1304" d="M0,0 L14,5 L0,10 L0,0" fill="#323232" stroke="#323232" stroke-width="1"></path></marker></defs><g id="SvgjsG1008" transform="translate(788,345.5)"><path id="SvgjsPath1009" d="M 0 4Q 0 0 4 0L 70 0Q 74 0 74 4L 74 29.5Q 74 33.5 70 33.5L 4 33.5Q 0 33.5 0 29.5Z" stroke="none" fill-opacity="1" fill="#4caf50"></path><g id="SvgjsG1010"><text id="SvgjsText1011" font-family="微软雅黑" text-anchor="middle" font-size="14px" width="54px" fill="#ffffff" font-weight="400" align="middle" lineHeight="125%" anchor="middle" family="微软雅黑" size="14px" weight="400" font-style="" opacity="1" y="6.5" transform="rotate(0)"><tspan id="SvgjsTspan1012" dy="17" x="37"><tspan id="SvgjsTspan1013" style="text-decoration:;">IO流</tspan></tspan></text></g></g><g id="SvgjsG1014" transform="translate(913,345.5)"><path id="SvgjsPath1015" d="M 0 4Q 0 0 4 0L 81 0Q 85 0 85 4L 85 29.5Q 85 33.5 81 33.5L 4 33.5Q 0 33.5 0 29.5Z" stroke="none" fill-opacity="1" fill="#9e9e9e"></path><g id="SvgjsG1016"><text id="SvgjsText1017" font-family="微软雅黑" text-anchor="middle" font-size="14px" width="65px" fill="#ffffff" font-weight="400" align="middle" lineHeight="125%" anchor="middle" family="微软雅黑" size="14px" weight="400" font-style="" opacity="1" y="6.5" transform="rotate(0)"><tspan id="SvgjsTspan1018" dy="17" x="42.5"><tspan id="SvgjsTspan1019" style="text-decoration:;">字节流</tspan></tspan></text></g></g><g id="SvgjsG1020" transform="translate(656,342.5)"><path id="SvgjsPath1021" d="M 0 4Q 0 0 4 0L 73 0Q 77 0 77 4L 77 35.5Q 77 39.5 73 39.5L 4 39.5Q 0 39.5 0 35.5Z" stroke="none" fill-opacity="1" fill="#9e9e9e"></path><g id="SvgjsG1022"><text id="SvgjsText1023" font-family="微软雅黑" text-anchor="middle" font-size="14px" width="57px" fill="#ffffff" font-weight="400" align="middle" lineHeight="125%" anchor="middle" family="微软雅黑" size="14px" weight="400" font-style="" opacity="1" y="9.5" transform="rotate(0)"><tspan id="SvgjsTspan1024" dy="17" x="38.5"><tspan id="SvgjsTspan1025" style="text-decoration:;">字符流</tspan></tspan></text></g></g><g id="SvgjsG1026" transform="translate(917,183.5)"><path id="SvgjsPath1027" d="M 109 0Q 100 0 100 9L 100 166.75Q 100 175.75 87 175.75Q 100 175.75 100 184.75L 100 342.5Q 100 351.5 109 351.5" stroke="rgba(50,50,50,1)" stroke-width="2" fill="none"></path><path id="SvgjsPath1028" d="M 0 0L 109 0L 109 351.5L 0 351.5Z" stroke="none" fill="none"></path><g id="SvgjsG1029"><text id="SvgjsText1030" font-family="微软雅黑" text-anchor="end" font-size="13px" width="82px" fill="#323232" font-weight="400" align="middle" lineHeight="125%" anchor="end" family="微软雅黑" size="13px" weight="400" font-style="" opacity="1" y="166.125" transform="rotate(0)"></text></g></g><g id="SvgjsG1031" transform="translate(1037,163)"><path id="SvgjsPath1032" d="M 0 0L 187 0L 187 40L 0 40Z" stroke="none" fill-opacity="1" fill="#ffeb3b"></path><g id="SvgjsG1033"><text id="SvgjsText1034" font-family="微软雅黑" text-anchor="middle" font-size="13px" width="167px" fill="#000000" font-weight="400" align="middle" lineHeight="125%" anchor="middle" family="微软雅黑" size="13px" weight="400" font-style="" opacity="1" y="10.375" transform="rotate(0)"><tspan id="SvgjsTspan1035" dy="16" x="93.5"><tspan id="SvgjsTspan1036" style="text-decoration:;">InputStream</tspan></tspan></text></g></g><g id="SvgjsG1037" transform="translate(1145,39)"><path id="SvgjsPath1038" d="M 110 0Q 101 0 101 9L 101 138Q 101 147 88 147Q 101 147 101 156L 101 285Q 101 294 110 294" stroke="rgba(50,50,50,1)" stroke-width="2" fill="none"></path><path id="SvgjsPath1039" d="M 0 0L 110 0L 110 294L 0 294Z" stroke="none" fill="none"></path><g id="SvgjsG1040"><text id="SvgjsText1041" font-family="微软雅黑" text-anchor="end" font-size="13px" width="83px" fill="#323232" font-weight="400" align="middle" lineHeight="125%" anchor="end" family="微软雅黑" size="13px" weight="400" font-style="" opacity="1" y="137.375" transform="rotate(0)"></text></g></g><g id="SvgjsG1042" transform="translate(1262,26)"><path id="SvgjsPath1043" d="M 0 4Q 0 0 4 0L 169 0Q 173 0 173 4L 173 30Q 173 34 169 34L 4 34Q 0 34 0 30Z" stroke="rgba(50,50,50,1)" stroke-width="2" fill-opacity="1" fill="#ffb74d"></path><g id="SvgjsG1044"><text id="SvgjsText1045" font-family="微软雅黑" text-anchor="middle" font-size="13px" width="153px" fill="#323232" font-weight="400" align="middle" lineHeight="125%" anchor="middle" family="微软雅黑" size="13px" weight="400" font-style="" opacity="1" y="7.375" transform="rotate(0)"><tspan id="SvgjsTspan1046" dy="16" x="86.5"><tspan id="SvgjsTspan1047" style="text-decoration:;fill: rgb(255, 255, 255);">FileInputStream</tspan></tspan></text></g></g><g id="SvgjsG1048" transform="translate(1262,74.5)"><path id="SvgjsPath1049" d="M 0 4Q 0 0 4 0L 169 0Q 173 0 173 4L 173 29.5Q 173 33.5 169 33.5L 4 33.5Q 0 33.5 0 29.5Z" stroke="rgba(50,50,50,1)" stroke-width="2" fill-opacity="1" fill="#ffb74d"></path><g id="SvgjsG1050"><text id="SvgjsText1051" font-family="微软雅黑" text-anchor="middle" font-size="13px" width="153px" fill="#323232" font-weight="400" align="middle" lineHeight="125%" anchor="middle" family="微软雅黑" size="13px" weight="400" font-style="" opacity="1" y="7.125" transform="rotate(0)"><tspan id="SvgjsTspan1052" dy="16" x="86.5"><tspan id="SvgjsTspan1053" style="text-decoration:;">FilterInputStream</tspan></tspan></text></g></g><g id="SvgjsG1054" transform="translate(1262,120.5)"><path id="SvgjsPath1055" d="M 0 4Q 0 0 4 0L 169 0Q 173 0 173 4L 173 28.5Q 173 32.5 169 32.5L 4 32.5Q 0 32.5 0 28.5Z" stroke="rgba(50,50,50,1)" stroke-width="2" fill-opacity="1" fill="#ffb74d"></path><g id="SvgjsG1056"><text id="SvgjsText1057" font-family="微软雅黑" text-anchor="middle" font-size="13px" width="153px" fill="#323232" font-weight="400" align="middle" lineHeight="125%" anchor="middle" family="微软雅黑" size="13px" weight="400" font-style="" opacity="1" y="6.625" transform="rotate(0)"><tspan id="SvgjsTspan1058" dy="16" x="86.5"><tspan id="SvgjsTspan1059" style="text-decoration:;">ObjectInputStream</tspan></tspan></text></g></g><g id="SvgjsG1060" transform="translate(1262,170)"><path id="SvgjsPath1061" d="M 0 4Q 0 0 4 0L 169 0Q 173 0 173 4L 173 28Q 173 32 169 32L 4 32Q 0 32 0 28Z" stroke="rgba(50,50,50,1)" stroke-width="2" fill-opacity="1" fill="#ffb74d"></path><g id="SvgjsG1062"><text id="SvgjsText1063" font-family="微软雅黑" text-anchor="middle" font-size="13px" width="153px" fill="#323232" font-weight="400" align="middle" lineHeight="125%" anchor="middle" family="微软雅黑" size="13px" weight="400" font-style="" opacity="1" y="6.375" transform="rotate(0)"><tspan id="SvgjsTspan1064" dy="16" x="86.5"><tspan id="SvgjsTspan1065" style="text-decoration:;">PipedInputStream</tspan></tspan></text></g></g><g id="SvgjsG1066" transform="translate(1262,215)"><path id="SvgjsPath1067" d="M 0 4Q 0 0 4 0L 169 0Q 173 0 173 4L 173 30Q 173 34 169 34L 4 34Q 0 34 0 30Z" stroke="rgba(50,50,50,1)" stroke-width="2" fill-opacity="1" fill="#ffb74d"></path><g id="SvgjsG1068"><text id="SvgjsText1069" font-family="微软雅黑" text-anchor="middle" font-size="13px" width="153px" fill="#323232" font-weight="400" align="middle" lineHeight="125%" anchor="middle" family="微软雅黑" size="13px" weight="400" font-style="" opacity="1" y="7.375" transform="rotate(0)"><tspan id="SvgjsTspan1070" dy="16" x="86.5"><tspan id="SvgjsTspan1071" style="text-decoration:;">SequenceInputStream</tspan></tspan></text></g></g><g id="SvgjsG1072" transform="translate(1471,25)"><path id="SvgjsPath1073" d="M 0 4Q 0 0 4 0L 159 0Q 163 0 163 4L 163 32Q 163 36 159 36L 4 36Q 0 36 0 32Z" stroke="rgba(50,50,50,1)" stroke-width="2" fill-opacity="1" fill="#ffb74d"></path><g id="SvgjsG1074"><text id="SvgjsText1075" font-family="微软雅黑" text-anchor="middle" font-size="13px" width="143px" fill="#323232" font-weight="400" align="middle" lineHeight="125%" anchor="middle" family="微软雅黑" size="13px" weight="400" font-style="" opacity="1" y="8.375" transform="rotate(0)"><tspan id="SvgjsTspan1076" dy="16" x="81.5"><tspan id="SvgjsTspan1077" style="text-decoration:;fill: rgb(255, 255, 255);">BufferedInputStream</tspan></tspan></text></g></g><g id="SvgjsG1078" transform="translate(1471,73.25)"><path id="SvgjsPath1079" d="M 0 4Q 0 0 4 0L 159 0Q 163 0 163 4L 163 32Q 163 36 159 36L 4 36Q 0 36 0 32Z" stroke="rgba(50,50,50,1)" stroke-width="2" fill-opacity="1" fill="#ffb74d"></path><g id="SvgjsG1080"><text id="SvgjsText1081" font-family="微软雅黑" text-anchor="middle" font-size="13px" width="143px" fill="#323232" font-weight="400" align="middle" lineHeight="125%" anchor="middle" family="微软雅黑" size="13px" weight="400" font-style="" opacity="1" y="8.375" transform="rotate(0)"><tspan id="SvgjsTspan1082" dy="16" x="81.5"><tspan id="SvgjsTspan1083" style="text-decoration:;">DataInputStream</tspan></tspan></text></g></g><g id="SvgjsG1084" transform="translate(1471,121.5)"><path id="SvgjsPath1085" d="M 0 4Q 0 0 4 0L 159 0Q 163 0 163 4L 163 32Q 163 36 159 36L 4 36Q 0 36 0 32Z" stroke="rgba(50,50,50,1)" stroke-width="2" fill-opacity="1" fill="#ffb74d"></path><g id="SvgjsG1086"><text id="SvgjsText1087" font-family="微软雅黑" text-anchor="middle" font-size="13px" width="143px" fill="#323232" font-weight="400" align="middle" lineHeight="125%" anchor="middle" family="微软雅黑" size="13px" weight="400" font-style="" opacity="1" y="8.375" transform="rotate(0)"><tspan id="SvgjsTspan1088" dy="16" x="81.5"><tspan id="SvgjsTspan1089" style="text-decoration:;">PushbakInputStream</tspan></tspan></text></g></g><g id="SvgjsG1090" transform="translate(1361,33.375)"><path id="SvgjsPath1091" d="M 102 0Q 93 0 93 9L 93 48.875Q 93 57.875 80 57.875Q 93 57.875 93 66.875L 93 106.75Q 93 115.75 102 115.75" stroke="rgba(50,50,50,1)" stroke-width="2" fill="none"></path><path id="SvgjsPath1092" d="M 0 0L 102 0L 102 115.75L 0 115.75Z" stroke="none" fill="none"></path><g id="SvgjsG1093"><text id="SvgjsText1094" font-family="微软雅黑" text-anchor="end" font-size="13px" width="75px" fill="#323232" font-weight="400" align="middle" lineHeight="125%" anchor="end" family="微软雅黑" size="13px" weight="400" font-style="" opacity="1" y="48.25" transform="rotate(0)"></text></g></g><g id="SvgjsG1095" transform="translate(1262,262.5)"><path id="SvgjsPath1096" d="M 0 4Q 0 0 4 0L 169 0Q 173 0 173 4L 173 31.5Q 173 35.5 169 35.5L 4 35.5Q 0 35.5 0 31.5Z" stroke="rgba(50,50,50,1)" stroke-width="2" fill-opacity="1" fill="#ffb74d"></path><g id="SvgjsG1097"><text id="SvgjsText1098" font-family="微软雅黑" text-anchor="middle" font-size="13px" width="153px" fill="#323232" font-weight="400" align="middle" lineHeight="125%" anchor="middle" family="微软雅黑" size="13px" weight="400" font-style="" opacity="1" y="8.125" transform="rotate(0)"><tspan id="SvgjsTspan1099" dy="16" x="86.5"><tspan id="SvgjsTspan1100" style="text-decoration:;">StringBufferInputStream</tspan></tspan></text></g></g><g id="SvgjsG1101" transform="translate(1262,310)"><path id="SvgjsPath1102" d="M 0 4Q 0 0 4 0L 169 0Q 173 0 173 4L 173 31.5Q 173 35.5 169 35.5L 4 35.5Q 0 35.5 0 31.5Z" stroke="rgba(50,50,50,1)" stroke-width="2" fill-opacity="1" fill="#ffb74d"></path><g id="SvgjsG1103"><text id="SvgjsText1104" font-family="微软雅黑" text-anchor="middle" font-size="13px" width="153px" fill="#323232" font-weight="400" align="middle" lineHeight="125%" anchor="middle" family="微软雅黑" size="13px" weight="400" font-style="" opacity="1" y="8.125" transform="rotate(0)"><tspan id="SvgjsTspan1105" dy="16" x="86.5"><tspan id="SvgjsTspan1106" style="text-decoration:;">ByteArrayInputStream</tspan></tspan></text></g></g><g id="SvgjsG1107" transform="translate(1037,514)"><path id="SvgjsPath1108" d="M 0 0L 187 0L 187 40L 0 40Z" stroke="none" fill-opacity="1" fill="#ffeb3b"></path><g id="SvgjsG1109"><text id="SvgjsText1110" font-family="微软雅黑" text-anchor="middle" font-size="13px" width="167px" fill="#000000" font-weight="400" align="middle" lineHeight="125%" anchor="middle" family="微软雅黑" size="13px" weight="400" font-style="" opacity="1" y="10.375" transform="rotate(0)"><tspan id="SvgjsTspan1111" dy="16" x="93.5"><tspan id="SvgjsTspan1112" style="text-decoration:;">OutputStream</tspan></tspan></text></g></g><g id="SvgjsG1113" transform="translate(1145,390)"><path id="SvgjsPath1114" d="M 110 0Q 101 0 101 9L 101 94Q 101 103 88 103Q 101 103 101 112L 101 197Q 101 206 110 206" stroke="rgba(50,50,50,1)" stroke-width="2" fill="none"></path><path id="SvgjsPath1115" d="M 0 0L 110 0L 110 206L 0 206Z" stroke="none" fill="none"></path><g id="SvgjsG1116"><text id="SvgjsText1117" font-family="微软雅黑" text-anchor="end" font-size="13px" width="83px" fill="#323232" font-weight="400" align="middle" lineHeight="125%" anchor="end" family="微软雅黑" size="13px" weight="400" font-style="" opacity="1" y="93.375" transform="rotate(0)"></text></g></g><g id="SvgjsG1118" transform="translate(1262,377)"><path id="SvgjsPath1119" d="M 0 4Q 0 0 4 0L 169 0Q 173 0 173 4L 173 30Q 173 34 169 34L 4 34Q 0 34 0 30Z" stroke="rgba(50,50,50,1)" stroke-width="2" fill-opacity="1" fill="#ffb74d"></path><g id="SvgjsG1120"><text id="SvgjsText1121" font-family="微软雅黑" text-anchor="middle" font-size="13px" width="153px" fill="#323232" font-weight="400" align="middle" lineHeight="125%" anchor="middle" family="微软雅黑" size="13px" weight="400" font-style="" opacity="1" y="7.375" transform="rotate(0)"><tspan id="SvgjsTspan1122" dy="16" x="86.5"><tspan id="SvgjsTspan1123" style="text-decoration:;fill: rgb(255, 255, 255);">FileOutputStream</tspan></tspan></text></g></g><g id="SvgjsG1124" transform="translate(1262,425.5)"><path id="SvgjsPath1125" d="M 0 4Q 0 0 4 0L 169 0Q 173 0 173 4L 173 29.5Q 173 33.5 169 33.5L 4 33.5Q 0 33.5 0 29.5Z" stroke="rgba(50,50,50,1)" stroke-width="2" fill-opacity="1" fill="#ffb74d"></path><g id="SvgjsG1126"><text id="SvgjsText1127" font-family="微软雅黑" text-anchor="middle" font-size="13px" width="153px" fill="#323232" font-weight="400" align="middle" lineHeight="125%" anchor="middle" family="微软雅黑" size="13px" weight="400" font-style="" opacity="1" y="7.125" transform="rotate(0)"><tspan id="SvgjsTspan1128" dy="16" x="86.5"><tspan id="SvgjsTspan1129" style="text-decoration:;">FilterOutputStream</tspan></tspan></text></g></g><g id="SvgjsG1130" transform="translate(1262,471.5)"><path id="SvgjsPath1131" d="M 0 4Q 0 0 4 0L 169 0Q 173 0 173 4L 173 28.5Q 173 32.5 169 32.5L 4 32.5Q 0 32.5 0 28.5Z" stroke="rgba(50,50,50,1)" stroke-width="2" fill-opacity="1" fill="#ffb74d"></path><g id="SvgjsG1132"><text id="SvgjsText1133" font-family="微软雅黑" text-anchor="middle" font-size="13px" width="153px" fill="#323232" font-weight="400" align="middle" lineHeight="125%" anchor="middle" family="微软雅黑" size="13px" weight="400" font-style="" opacity="1" y="6.625" transform="rotate(0)"><tspan id="SvgjsTspan1134" dy="16" x="86.5"><tspan id="SvgjsTspan1135" style="text-decoration:;">ObjectOutputStream</tspan></tspan></text></g></g><g id="SvgjsG1136" transform="translate(1262,521)"><path id="SvgjsPath1137" d="M 0 4Q 0 0 4 0L 169 0Q 173 0 173 4L 173 28Q 173 32 169 32L 4 32Q 0 32 0 28Z" stroke="rgba(50,50,50,1)" stroke-width="2" fill-opacity="1" fill="#ffb74d"></path><g id="SvgjsG1138"><text id="SvgjsText1139" font-family="微软雅黑" text-anchor="middle" font-size="13px" width="153px" fill="#323232" font-weight="400" align="middle" lineHeight="125%" anchor="middle" family="微软雅黑" size="13px" weight="400" font-style="" opacity="1" y="6.375" transform="rotate(0)"><tspan id="SvgjsTspan1140" dy="16" x="86.5"><tspan id="SvgjsTspan1141" style="text-decoration:;">PipedOutputStream</tspan></tspan></text></g></g><g id="SvgjsG1142" transform="translate(1471,376)"><path id="SvgjsPath1143" d="M 0 4Q 0 0 4 0L 159 0Q 163 0 163 4L 163 32Q 163 36 159 36L 4 36Q 0 36 0 32Z" stroke="rgba(50,50,50,1)" stroke-width="2" fill-opacity="1" fill="#ffb74d"></path><g id="SvgjsG1144"><text id="SvgjsText1145" font-family="微软雅黑" text-anchor="middle" font-size="13px" width="143px" fill="#ffffff" font-weight="400" align="middle" lineHeight="125%" anchor="middle" family="微软雅黑" size="13px" weight="400" font-style="" opacity="1" y="8.375" transform="rotate(0)"><tspan id="SvgjsTspan1146" dy="16" x="81.5"><tspan id="SvgjsTspan1147" style="text-decoration:;fill: rgb(255, 255, 255);">Buffered</tspan><tspan id="SvgjsTspan1148" style="text-decoration:;">Out</tspan><tspan id="SvgjsTspan1149" style="text-decoration:;fill: rgb(255, 255, 255);">putStream</tspan></tspan></text></g></g><g id="SvgjsG1150" transform="translate(1471,424.25)"><path id="SvgjsPath1151" d="M 0 4Q 0 0 4 0L 159 0Q 163 0 163 4L 163 32Q 163 36 159 36L 4 36Q 0 36 0 32Z" stroke="rgba(50,50,50,1)" stroke-width="2" fill-opacity="1" fill="#ffb74d"></path><g id="SvgjsG1152"><text id="SvgjsText1153" font-family="微软雅黑" text-anchor="middle" font-size="13px" width="143px" fill="#323232" font-weight="400" align="middle" lineHeight="125%" anchor="middle" family="微软雅黑" size="13px" weight="400" font-style="" opacity="1" y="8.375" transform="rotate(0)"><tspan id="SvgjsTspan1154" dy="16" x="81.5"><tspan id="SvgjsTspan1155" style="text-decoration:;">DataOutputStream</tspan></tspan></text></g></g><g id="SvgjsG1156" transform="translate(1471,472.5)"><path id="SvgjsPath1157" d="M 0 4Q 0 0 4 0L 159 0Q 163 0 163 4L 163 32Q 163 36 159 36L 4 36Q 0 36 0 32Z" stroke="rgba(50,50,50,1)" stroke-width="2" fill-opacity="1" fill="#ffb74d"></path><g id="SvgjsG1158"><text id="SvgjsText1159" font-family="微软雅黑" text-anchor="middle" font-size="13px" width="143px" fill="#323232" font-weight="400" align="middle" lineHeight="125%" anchor="middle" family="微软雅黑" size="13px" weight="400" font-style="" opacity="1" y="8.375" transform="rotate(0)"><tspan id="SvgjsTspan1160" dy="16" x="81.5"><tspan id="SvgjsTspan1161" style="text-decoration:;">PrintStream</tspan></tspan></text></g></g><g id="SvgjsG1162" transform="translate(1361,384.375)"><path id="SvgjsPath1163" d="M 102 0Q 93 0 93 9L 93 48.875Q 93 57.875 80 57.875Q 93 57.875 93 66.875L 93 106.75Q 93 115.75 102 115.75" stroke="rgba(50,50,50,1)" stroke-width="2" fill="none"></path><path id="SvgjsPath1164" d="M 0 0L 102 0L 102 115.75L 0 115.75Z" stroke="none" fill="none"></path><g id="SvgjsG1165"><text id="SvgjsText1166" font-family="微软雅黑" text-anchor="end" font-size="13px" width="75px" fill="#323232" font-weight="400" align="middle" lineHeight="125%" anchor="end" family="微软雅黑" size="13px" weight="400" font-style="" opacity="1" y="48.25" transform="rotate(0)"></text></g></g><g id="SvgjsG1167" transform="translate(1262,570)"><path id="SvgjsPath1168" d="M 0 4Q 0 0 4 0L 169 0Q 173 0 173 4L 173 31.5Q 173 35.5 169 35.5L 4 35.5Q 0 35.5 0 31.5Z" stroke="rgba(50,50,50,1)" stroke-width="2" fill-opacity="1" fill="#ffb74d"></path><g id="SvgjsG1169"><text id="SvgjsText1170" font-family="微软雅黑" text-anchor="middle" font-size="13px" width="153px" fill="#323232" font-weight="400" align="middle" lineHeight="125%" anchor="middle" family="微软雅黑" size="13px" weight="400" font-style="" opacity="1" y="8.125" transform="rotate(0)"><tspan id="SvgjsTspan1171" dy="16" x="86.5"><tspan id="SvgjsTspan1172" style="text-decoration:;">ByteArrayOutputStream</tspan></tspan></text></g></g><g id="SvgjsG1173"><path id="SvgjsPath1174" d="M862 362.25L887.5 362.25L887.5 362.25L910.4 362.25" stroke="#323232" stroke-width="2" fill="none" marker-end="url(#SvgjsMarker1175)"></path></g><g id="SvgjsG1177"><path id="SvgjsPath1178" d="M788 362.25L760.5 362.25L760.5 362.25L735.6 362.25" stroke="#323232" stroke-width="2" fill="none" marker-end="url(#SvgjsMarker1179)"></path></g><g id="SvgjsG1181" transform="translate(437,188)"><path id="SvgjsPath1182" d="M 0 0L 187 0L 187 40L 0 40Z" stroke="none" fill-opacity="1" fill="#ffeb3b"></path><g id="SvgjsG1183"><text id="SvgjsText1184" font-family="微软雅黑" text-anchor="middle" font-size="13px" width="167px" fill="#000000" font-weight="400" align="middle" lineHeight="125%" anchor="middle" family="微软雅黑" size="13px" weight="400" font-style="" opacity="1" y="10.375" transform="rotate(0)"><tspan id="SvgjsTspan1185" dy="16" x="93.5"><tspan id="SvgjsTspan1186" style="text-decoration:;">Reader</tspan></tspan></text></g></g><g id="SvgjsG1187" transform="translate(220,84)"><path id="SvgjsPath1188" d="M 0 4Q 0 0 4 0L 159 0Q 163 0 163 4L 163 32Q 163 36 159 36L 4 36Q 0 36 0 32Z" stroke="rgba(50,50,50,1)" stroke-width="2" fill-opacity="1" fill="#ffb74d"></path><g id="SvgjsG1189"><text id="SvgjsText1190" font-family="微软雅黑" text-anchor="middle" font-size="13px" width="143px" fill="#ffffff" font-weight="400" align="middle" lineHeight="125%" anchor="middle" family="微软雅黑" size="13px" weight="400" font-style="" opacity="1" y="8.375" transform="rotate(0)"><tspan id="SvgjsTspan1191" dy="16" x="81.5"><tspan id="SvgjsTspan1192" style="text-decoration:;">BufferReader</tspan></tspan></text></g></g><g id="SvgjsG1193" transform="translate(220,129)"><path id="SvgjsPath1194" d="M 0 4Q 0 0 4 0L 159 0Q 163 0 163 4L 163 32Q 163 36 159 36L 4 36Q 0 36 0 32Z" stroke="rgba(50,50,50,1)" stroke-width="2" fill-opacity="1" fill="#ffb74d"></path><g id="SvgjsG1195"><text id="SvgjsText1196" font-family="微软雅黑" text-anchor="middle" font-size="13px" width="143px" fill="#ffffff" font-weight="400" align="middle" lineHeight="125%" anchor="middle" family="微软雅黑" size="13px" weight="400" font-style="" opacity="1" y="8.375" transform="rotate(0)"><tspan id="SvgjsTspan1197" dy="16" x="81.5"><tspan id="SvgjsTspan1198" style="text-decoration:;">InputStreamReader</tspan></tspan></text></g></g><g id="SvgjsG1199" transform="translate(220,174)"><path id="SvgjsPath1200" d="M 0 4Q 0 0 4 0L 159 0Q 163 0 163 4L 163 32Q 163 36 159 36L 4 36Q 0 36 0 32Z" stroke="rgba(50,50,50,1)" stroke-width="2" fill-opacity="1" fill="#ffb74d"></path><g id="SvgjsG1201"><text id="SvgjsText1202" font-family="微软雅黑" text-anchor="middle" font-size="13px" width="143px" fill="#ffffff" font-weight="400" align="middle" lineHeight="125%" anchor="middle" family="微软雅黑" size="13px" weight="400" font-style="" opacity="1" y="8.375" transform="rotate(0)"><tspan id="SvgjsTspan1203" dy="16" x="81.5"><tspan id="SvgjsTspan1204" style="text-decoration:;fill: rgb(0, 0, 0);">StringReader</tspan></tspan></text></g></g><g id="SvgjsG1205" transform="translate(220,219)"><path id="SvgjsPath1206" d="M 0 4Q 0 0 4 0L 159 0Q 163 0 163 4L 163 32Q 163 36 159 36L 4 36Q 0 36 0 32Z" stroke="rgba(50,50,50,1)" stroke-width="2" fill-opacity="1" fill="#ffb74d"></path><g id="SvgjsG1207"><text id="SvgjsText1208" font-family="微软雅黑" text-anchor="middle" font-size="13px" width="143px" fill="#ffffff" font-weight="400" align="middle" lineHeight="125%" anchor="middle" family="微软雅黑" size="13px" weight="400" font-style="" opacity="1" y="8.375" transform="rotate(0)"><tspan id="SvgjsTspan1209" dy="16" x="81.5"><tspan id="SvgjsTspan1210" style="text-decoration:;fill: rgb(0, 0, 0);">PipedReader</tspan></tspan></text></g></g><g id="SvgjsG1211" transform="translate(220,264)"><path id="SvgjsPath1212" d="M 0 4Q 0 0 4 0L 159 0Q 163 0 163 4L 163 32Q 163 36 159 36L 4 36Q 0 36 0 32Z" stroke="rgba(50,50,50,1)" stroke-width="2" fill-opacity="1" fill="#ffb74d"></path><g id="SvgjsG1213"><text id="SvgjsText1214" font-family="微软雅黑" text-anchor="middle" font-size="13px" width="143px" fill="#ffffff" font-weight="400" align="middle" lineHeight="125%" anchor="middle" family="微软雅黑" size="13px" weight="400" font-style="" opacity="1" y="8.375" transform="rotate(0)"><tspan id="SvgjsTspan1215" dy="16" x="81.5"><tspan id="SvgjsTspan1216" style="text-decoration:;fill: rgb(0, 0, 0);">ByteArrayReader</tspan></tspan></text></g></g><g id="SvgjsG1217" transform="translate(220,309)"><path id="SvgjsPath1218" d="M 0 4Q 0 0 4 0L 159 0Q 163 0 163 4L 163 32Q 163 36 159 36L 4 36Q 0 36 0 32Z" stroke="rgba(50,50,50,1)" stroke-width="2" fill-opacity="1" fill="#ffb74d"></path><g id="SvgjsG1219"><text id="SvgjsText1220" font-family="微软雅黑" text-anchor="middle" font-size="13px" width="143px" fill="#ffffff" font-weight="400" align="middle" lineHeight="125%" anchor="middle" family="微软雅黑" size="13px" weight="400" font-style="" opacity="1" y="8.375" transform="rotate(0)"><tspan id="SvgjsTspan1221" dy="16" x="81.5"><tspan id="SvgjsTspan1222" style="text-decoration:;fill: rgb(0, 0, 0);">FilterReader</tspan></tspan></text></g></g><g id="SvgjsG1223" transform="translate(25,129)"><path id="SvgjsPath1224" d="M 0 4Q 0 0 4 0L 159 0Q 163 0 163 4L 163 32Q 163 36 159 36L 4 36Q 0 36 0 32Z" stroke="rgba(50,50,50,1)" stroke-width="2" fill-opacity="1" fill="#ffb74d"></path><g id="SvgjsG1225"><text id="SvgjsText1226" font-family="微软雅黑" text-anchor="middle" font-size="13px" width="143px" fill="#ffffff" font-weight="400" align="middle" lineHeight="125%" anchor="middle" family="微软雅黑" size="13px" weight="400" font-style="" opacity="1" y="8.375" transform="rotate(0)"><tspan id="SvgjsTspan1227" dy="16" x="81.5"><tspan id="SvgjsTspan1228" style="text-decoration:;">FileReader</tspan></tspan></text></g></g><g id="SvgjsG1229"><path id="SvgjsPath1230" d="M219 147L204 147L204 147L191.6 147" stroke="#323232" stroke-width="2" fill="none" marker-end="url(#SvgjsMarker1231)"></path></g><g id="SvgjsG1233" transform="translate(25,309)"><path id="SvgjsPath1234" d="M 0 4Q 0 0 4 0L 159 0Q 163 0 163 4L 163 32Q 163 36 159 36L 4 36Q 0 36 0 32Z" stroke="rgba(50,50,50,1)" stroke-width="2" fill-opacity="1" fill="#ffb74d"></path><g id="SvgjsG1235"><text id="SvgjsText1236" font-family="微软雅黑" text-anchor="middle" font-size="13px" width="143px" fill="#ffffff" font-weight="400" align="middle" lineHeight="125%" anchor="middle" family="微软雅黑" size="13px" weight="400" font-style="" opacity="1" y="8.375" transform="rotate(0)"><tspan id="SvgjsTspan1237" dy="16" x="81.5"><tspan id="SvgjsTspan1238" style="text-decoration:;fill: rgb(0, 0, 0);">PushbackReader</tspan></tspan></text></g></g><g id="SvgjsG1239"><path id="SvgjsPath1240" d="M219 327L204 327L204 327L191.6 327" stroke="#323232" stroke-width="2" fill="none" marker-end="url(#SvgjsMarker1241)"></path></g><g id="SvgjsG1243" transform="translate(391,92)"><path id="SvgjsPath1244" d="M 0 240Q 9 240 9 231L 9 129Q 9 120 22 120Q 9 120 9 111L 9 9Q 9 0 0 0" stroke="rgba(50,50,50,1)" stroke-width="2" fill="none"></path><path id="SvgjsPath1245" d="M 0 0L 101 0L 101 240L 0 240Z" stroke="none" fill="none"></path><g id="SvgjsG1246"><text id="SvgjsText1247" font-family="微软雅黑" text-anchor="start" font-size="13px" width="74px" fill="#323232" font-weight="400" align="middle" lineHeight="125%" anchor="start" family="微软雅黑" size="13px" weight="400" font-style="" opacity="1" y="110.375" transform="rotate(0)"></text></g></g><g id="SvgjsG1248" transform="translate(628,205.5)"><path id="SvgjsPath1249" d="M 0 310.5Q 9 310.5 9 301.5L 9 164.25Q 9 155.25 22 155.25Q 9 155.25 9 146.25L 9 9Q 9 0 0 0" stroke="rgba(50,50,50,1)" stroke-width="2" fill="none"></path><path id="SvgjsPath1250" d="M 0 0L 91 0L 91 310.5L 0 310.5Z" stroke="none" fill="none"></path><g id="SvgjsG1251"><text id="SvgjsText1252" font-family="微软雅黑" text-anchor="start" font-size="13px" width="64px" fill="#323232" font-weight="400" align="middle" lineHeight="125%" anchor="start" family="微软雅黑" size="13px" weight="400" font-style="" opacity="1" y="145.625" transform="rotate(0)"></text></g></g><g id="SvgjsG1253" transform="translate(437,492.5)"><path id="SvgjsPath1254" d="M 0 0L 187 0L 187 40L 0 40Z" stroke="none" fill-opacity="1" fill="#ffeb3b"></path><g id="SvgjsG1255"><text id="SvgjsText1256" font-family="微软雅黑" text-anchor="middle" font-size="13px" width="167px" fill="#000000" font-weight="400" align="middle" lineHeight="125%" anchor="middle" family="微软雅黑" size="13px" weight="400" font-style="" opacity="1" y="10.375" transform="rotate(0)"><tspan id="SvgjsTspan1257" dy="16" x="93.5"><tspan id="SvgjsTspan1258" style="text-decoration:;">Writer</tspan></tspan></text></g></g><g id="SvgjsG1259" transform="translate(220,366.5)"><path id="SvgjsPath1260" d="M 0 4Q 0 0 4 0L 159 0Q 163 0 163 4L 163 32Q 163 36 159 36L 4 36Q 0 36 0 32Z" stroke="rgba(50,50,50,1)" stroke-width="2" fill-opacity="1" fill="#ffb74d"></path><g id="SvgjsG1261"><text id="SvgjsText1262" font-family="微软雅黑" text-anchor="middle" font-size="13px" width="143px" fill="#ffffff" font-weight="400" align="middle" lineHeight="125%" anchor="middle" family="微软雅黑" size="13px" weight="400" font-style="" opacity="1" y="8.375" transform="rotate(0)"><tspan id="SvgjsTspan1263" dy="16" x="81.5"><tspan id="SvgjsTspan1264" style="text-decoration:;">BufferWriter</tspan></tspan></text></g></g><g id="SvgjsG1265" transform="translate(220,411.5)"><path id="SvgjsPath1266" d="M 0 4Q 0 0 4 0L 159 0Q 163 0 163 4L 163 32Q 163 36 159 36L 4 36Q 0 36 0 32Z" stroke="rgba(50,50,50,1)" stroke-width="2" fill-opacity="1" fill="#ffb74d"></path><g id="SvgjsG1267"><text id="SvgjsText1268" font-family="微软雅黑" text-anchor="middle" font-size="13px" width="143px" fill="#ffffff" font-weight="400" align="middle" lineHeight="125%" anchor="middle" family="微软雅黑" size="13px" weight="400" font-style="" opacity="1" y="8.375" transform="rotate(0)"><tspan id="SvgjsTspan1269" dy="16" x="81.5"><tspan id="SvgjsTspan1270" style="text-decoration:;">OutputStreamWriter</tspan></tspan></text></g></g><g id="SvgjsG1271" transform="translate(220,456.5)"><path id="SvgjsPath1272" d="M 0 4Q 0 0 4 0L 159 0Q 163 0 163 4L 163 32Q 163 36 159 36L 4 36Q 0 36 0 32Z" stroke="rgba(50,50,50,1)" stroke-width="2" fill-opacity="1" fill="#ffb74d"></path><g id="SvgjsG1273"><text id="SvgjsText1274" font-family="微软雅黑" text-anchor="middle" font-size="13px" width="143px" fill="#ffffff" font-weight="400" align="middle" lineHeight="125%" anchor="middle" family="微软雅黑" size="13px" weight="400" font-style="" opacity="1" y="8.375" transform="rotate(0)"><tspan id="SvgjsTspan1275" dy="16" x="81.5"><tspan id="SvgjsTspan1276" style="text-decoration:;fill: rgb(0, 0, 0);">StringWriter</tspan></tspan></text></g></g><g id="SvgjsG1277" transform="translate(220,501.5)"><path id="SvgjsPath1278" d="M 0 4Q 0 0 4 0L 159 0Q 163 0 163 4L 163 32Q 163 36 159 36L 4 36Q 0 36 0 32Z" stroke="rgba(50,50,50,1)" stroke-width="2" fill-opacity="1" fill="#ffb74d"></path><g id="SvgjsG1279"><text id="SvgjsText1280" font-family="微软雅黑" text-anchor="middle" font-size="13px" width="143px" fill="#ffffff" font-weight="400" align="middle" lineHeight="125%" anchor="middle" family="微软雅黑" size="13px" weight="400" font-style="" opacity="1" y="8.375" transform="rotate(0)"><tspan id="SvgjsTspan1281" dy="16" x="81.5"><tspan id="SvgjsTspan1282" style="text-decoration:;fill: rgb(0, 0, 0);">PipedWriter</tspan></tspan></text></g></g><g id="SvgjsG1283" transform="translate(220,546.5)"><path id="SvgjsPath1284" d="M 0 4Q 0 0 4 0L 159 0Q 163 0 163 4L 163 32Q 163 36 159 36L 4 36Q 0 36 0 32Z" stroke="rgba(50,50,50,1)" stroke-width="2" fill-opacity="1" fill="#ffb74d"></path><g id="SvgjsG1285"><text id="SvgjsText1286" font-family="微软雅黑" text-anchor="middle" font-size="13px" width="143px" fill="#ffffff" font-weight="400" align="middle" lineHeight="125%" anchor="middle" family="微软雅黑" size="13px" weight="400" font-style="" opacity="1" y="8.375" transform="rotate(0)"><tspan id="SvgjsTspan1287" dy="16" x="81.5"><tspan id="SvgjsTspan1288" style="text-decoration:;fill: rgb(0, 0, 0);">CharArrayWriter</tspan></tspan></text></g></g><g id="SvgjsG1289" transform="translate(220,591.5)"><path id="SvgjsPath1290" d="M 0 4Q 0 0 4 0L 159 0Q 163 0 163 4L 163 32Q 163 36 159 36L 4 36Q 0 36 0 32Z" stroke="rgba(50,50,50,1)" stroke-width="2" fill-opacity="1" fill="#ffb74d"></path><g id="SvgjsG1291"><text id="SvgjsText1292" font-family="微软雅黑" text-anchor="middle" font-size="13px" width="143px" fill="#ffffff" font-weight="400" align="middle" lineHeight="125%" anchor="middle" family="微软雅黑" size="13px" weight="400" font-style="" opacity="1" y="8.375" transform="rotate(0)"><tspan id="SvgjsTspan1293" dy="16" x="81.5"><tspan id="SvgjsTspan1294" style="text-decoration:;fill: rgb(0, 0, 0);">FilterWriter</tspan></tspan></text></g></g><g id="SvgjsG1295" transform="translate(25,411.5)"><path id="SvgjsPath1296" d="M 0 4Q 0 0 4 0L 159 0Q 163 0 163 4L 163 32Q 163 36 159 36L 4 36Q 0 36 0 32Z" stroke="rgba(50,50,50,1)" stroke-width="2" fill-opacity="1" fill="#ffb74d"></path><g id="SvgjsG1297"><text id="SvgjsText1298" font-family="微软雅黑" text-anchor="middle" font-size="13px" width="143px" fill="#ffffff" font-weight="400" align="middle" lineHeight="125%" anchor="middle" family="微软雅黑" size="13px" weight="400" font-style="" opacity="1" y="8.375" transform="rotate(0)"><tspan id="SvgjsTspan1299" dy="16" x="81.5"><tspan id="SvgjsTspan1300" style="text-decoration:;">FileWriter</tspan></tspan></text></g></g><g id="SvgjsG1301"><path id="SvgjsPath1302" d="M219 429.5L204 429.5L204 429.5L191.6 429.5" stroke="#323232" stroke-width="2" fill="none" marker-end="url(#SvgjsMarker1303)"></path></g><g id="SvgjsG1305" transform="translate(220,636.5)"><path id="SvgjsPath1306" d="M 0 4Q 0 0 4 0L 159 0Q 163 0 163 4L 163 32Q 163 36 159 36L 4 36Q 0 36 0 32Z" stroke="rgba(50,50,50,1)" stroke-width="2" fill-opacity="1" fill="#ffb74d"></path><g id="SvgjsG1307"><text id="SvgjsText1308" font-family="微软雅黑" text-anchor="middle" font-size="13px" width="143px" fill="#ffffff" font-weight="400" align="middle" lineHeight="125%" anchor="middle" family="微软雅黑" size="13px" weight="400" font-style="" opacity="1" y="8.375" transform="rotate(0)"><tspan id="SvgjsTspan1309" dy="16" x="81.5"><tspan id="SvgjsTspan1310" style="text-decoration:;fill: rgb(0, 0, 0);">PriterWriter</tspan></tspan></text></g></g><g id="SvgjsG1311" transform="translate(391,374.5)"><path id="SvgjsPath1312" d="M 0 280.5Q 9 280.5 9 271.5L 9 149.25Q 9 140.25 22 140.25Q 9 140.25 9 131.25L 9 9Q 9 0 0 0" stroke="rgba(50,50,50,1)" stroke-width="2" fill="none"></path><path id="SvgjsPath1313" d="M 0 0L 101 0L 101 280.5L 0 280.5Z" stroke="none" fill="none"></path><g id="SvgjsG1314"><text id="SvgjsText1315" font-family="微软雅黑" text-anchor="start" font-size="13px" width="74px" fill="#323232" font-weight="400" align="middle" lineHeight="125%" anchor="start" family="微软雅黑" size="13px" weight="400" font-style="" opacity="1" y="130.625" transform="rotate(0)"></text></g></g></svg>