<svg id="SvgjsSvg1246" width="1075" height="442" xmlns="http://www.w3.org/2000/svg" version="1.1" xmlns:xlink="http://www.w3.org/1999/xlink" xmlns:svgjs="http://svgjs.com/svgjs"><defs id="SvgjsDefs1247"><marker id="SvgjsMarker1320" markerWidth="14" markerHeight="10" refX="10" refY="5" viewBox="0 0 14 10" orient="auto" markerUnits="userSpaceOnUse" stroke-dasharray="0,0"><path id="SvgjsPath1321" d="M0,0 L14,5 L0,10 L0,0" fill="#323232" stroke="#323232" stroke-width="1"></path></marker><marker id="SvgjsMarker1324" markerWidth="14" markerHeight="10" refX="10" refY="5" viewBox="0 0 14 10" orient="auto" markerUnits="userSpaceOnUse" stroke-dasharray="0,0"><path id="SvgjsPath1325" d="M0,0 L14,5 L0,10 L0,0" fill="#323232" stroke="#323232" stroke-width="1"></path></marker><marker id="SvgjsMarker1334" markerWidth="14" markerHeight="10" refX="10" refY="5" viewBox="0 0 14 10" orient="auto" markerUnits="userSpaceOnUse" stroke-dasharray="0,0"><path id="SvgjsPath1335" d="M0,0 L14,5 L0,10 L0,0" fill="#323232" stroke="#323232" stroke-width="1"></path></marker><marker id="SvgjsMarker1366" markerWidth="14" markerHeight="10" refX="10" refY="5" viewBox="0 0 14 10" orient="auto" markerUnits="userSpaceOnUse" stroke-dasharray="0,0"><path id="SvgjsPath1367" d="M0,0 L14,5 L0,10 L0,0" fill="#323232" stroke="#323232" stroke-width="1"></path></marker><marker id="SvgjsMarker1370" markerWidth="14" markerHeight="10" refX="10" refY="5" viewBox="0 0 14 10" orient="auto" markerUnits="userSpaceOnUse" stroke-dasharray="0,0"><path id="SvgjsPath1371" d="M0,0 L14,5 L0,10 L0,0" fill="#323232" stroke="#323232" stroke-width="1"></path></marker></defs><g id="SvgjsG1248" transform="translate(302,39)"><path id="SvgjsPath1249" d="M 0 0L 196 0L 196 348L 0 348Z" stroke="rgba(50,50,50,1)" stroke-width="2" fill-opacity="1" fill="#c8e6c9"></path><g id="SvgjsG1250"><text id="SvgjsText1251" font-family="微软雅黑" text-anchor="middle" font-size="13px" width="176px" fill="#323232" font-weight="400" align="middle" lineHeight="125%" anchor="middle" family="微软雅黑" size="13px" weight="400" font-style="" opacity="1" y="163.375" transform="rotate(0)"></text></g></g><g id="SvgjsG1252" transform="translate(350,131)"><path id="SvgjsPath1253" d="M 0 4Q 0 0 4 0L 108 0Q 112 0 112 4L 112 42Q 112 46 108 46L 4 46Q 0 46 0 42Z" stroke="rgba(50,50,50,1)" stroke-width="2" fill-opacity="1" fill="#b2ebf2"></path><g id="SvgjsG1254"><text id="SvgjsText1255" font-family="微软雅黑" text-anchor="middle" font-size="13px" width="92px" fill="#323232" font-weight="400" align="middle" lineHeight="125%" anchor="middle" family="微软雅黑" size="13px" weight="400" font-style="" opacity="1" y="12.375" transform="rotate(0)"><tspan id="SvgjsTspan1256" dy="16" x="56"><tspan id="SvgjsTspan1257" style="text-decoration:;">WaitSet</tspan></tspan></text></g></g><g id="SvgjsG1258" transform="translate(350,203)"><path id="SvgjsPath1259" d="M 0 4Q 0 0 4 0L 108 0Q 112 0 112 4L 112 42Q 112 46 108 46L 4 46Q 0 46 0 42Z" stroke="rgba(50,50,50,1)" stroke-width="2" fill-opacity="1" fill="#b2ebf2"></path><g id="SvgjsG1260"><text id="SvgjsText1261" font-family="微软雅黑" text-anchor="middle" font-size="13px" width="92px" fill="#323232" font-weight="400" align="middle" lineHeight="125%" anchor="middle" family="微软雅黑" size="13px" weight="400" font-style="" opacity="1" y="12.375" transform="rotate(0)"><tspan id="SvgjsTspan1262" dy="16" x="56"><tspan id="SvgjsTspan1263" style="text-decoration:;">EntrySet</tspan></tspan></text></g></g><g id="SvgjsG1264" transform="translate(350,275)"><path id="SvgjsPath1265" d="M 0 4Q 0 0 4 0L 108 0Q 112 0 112 4L 112 42Q 112 46 108 46L 4 46Q 0 46 0 42Z" stroke="rgba(50,50,50,1)" stroke-width="2" fill-opacity="1" fill="#b2ebf2"></path><g id="SvgjsG1266"><text id="SvgjsText1267" font-family="微软雅黑" text-anchor="middle" font-size="13px" width="92px" fill="#323232" font-weight="400" align="middle" lineHeight="125%" anchor="middle" family="微软雅黑" size="13px" weight="400" font-style="" opacity="1" y="12.375" transform="rotate(0)"><tspan id="SvgjsTspan1268" dy="16" x="56"><tspan id="SvgjsTspan1269" style="text-decoration:;">Owner</tspan></tspan></text></g></g><g id="SvgjsG1270" transform="translate(342,59)"><path id="SvgjsPath1271" d="M 0 0L 120 0L 120 40L 0 40Z" stroke="none" fill="none"></path><g id="SvgjsG1272"><text id="SvgjsText1273" font-family="微软雅黑" text-anchor="middle" font-size="13px" width="120px" fill="#323232" font-weight="700" align="middle" lineHeight="125%" anchor="middle" family="微软雅黑" size="13px" weight="700" font-style="" opacity="1" y="9.375" transform="rotate(0)"><tspan id="SvgjsTspan1274" dy="16" x="60"><tspan id="SvgjsTspan1275" style="text-decoration:;">Monitor 操作系统</tspan></tspan></text></g></g><g id="SvgjsG1276" transform="translate(705,303)"><path id="SvgjsPath1277" d="M 0 0L 152 0L 152 84L 0 84Z" stroke="rgba(50,50,50,1)" stroke-width="2" fill-opacity="1" fill="#c8e6c9"></path><g id="SvgjsG1278"><text id="SvgjsText1279" font-family="微软雅黑" text-anchor="middle" font-size="13px" width="132px" fill="#323232" font-weight="400" align="middle" lineHeight="125%" anchor="middle" family="微软雅黑" size="13px" weight="400" font-style="" opacity="1" y="31.375" transform="rotate(0)"></text></g></g><g id="SvgjsG1280" transform="translate(720,303)"><path id="SvgjsPath1281" d="M 0 0L 120 0L 120 40L 0 40Z" stroke="none" fill="none"></path><g id="SvgjsG1282"><text id="SvgjsText1283" font-family="微软雅黑" text-anchor="middle" font-size="13px" width="120px" fill="#323232" font-weight="700" align="middle" lineHeight="125%" anchor="middle" family="微软雅黑" size="13px" weight="700" font-style="" opacity="1" y="9.375" transform="rotate(0)"><tspan id="SvgjsTspan1284" dy="16" x="60"><tspan id="SvgjsTspan1285" style="text-decoration:;">obj （java 对象)</tspan></tspan></text></g></g><g id="SvgjsG1286" transform="translate(736,341)"><path id="SvgjsPath1287" d="M 0 0L 99 0L 99 34L 0 34Z" stroke="rgba(50,50,50,1)" stroke-width="2" fill-opacity="1" fill="#fff9c4"></path><g id="SvgjsG1288"><text id="SvgjsText1289" font-family="微软雅黑" text-anchor="middle" font-size="13px" width="79px" fill="#323232" font-weight="400" align="middle" lineHeight="125%" anchor="middle" family="微软雅黑" size="13px" weight="400" font-style="" opacity="1" y="6.375" transform="rotate(0)"><tspan id="SvgjsTspan1290" dy="16" x="49.5"><tspan id="SvgjsTspan1291" style="text-decoration:;">MarkWord</tspan></tspan></text></g></g><g id="SvgjsG1292" transform="translate(705,90)"><path id="SvgjsPath1293" d="M 0 0L 315 0L 315 108L 0 108Z" stroke="none" fill="none"></path><g id="SvgjsG1294"><text id="SvgjsText1295" font-family="微软雅黑" text-anchor="start" font-size="15px" width="315px" fill="#323232" font-weight="700" align="middle" lineHeight="125%" anchor="start" family="微软雅黑" size="15px" weight="700" font-style="" opacity="1" y="4.125" transform="rotate(0)"><tspan id="SvgjsTspan1296" dy="18" x="0"><tspan id="SvgjsTspan1297" style="text-decoration:;">synchronized(obj){</tspan></tspan><tspan id="SvgjsTspan1298" dy="18" x="0"><tspan id="SvgjsTspan1299" style="text-decoration:;"> </tspan></tspan><tspan id="SvgjsTspan1300" dy="18" x="0"><tspan id="SvgjsTspan1301" style="text-decoration:;font-size: inherit;">// 临界区代码</tspan></tspan><tspan id="SvgjsTspan1302" dy="18" x="0"><tspan id="SvgjsTspan1303" style="text-decoration:;"> </tspan></tspan><tspan id="SvgjsTspan1304" dy="18" x="0"><tspan id="SvgjsTspan1305" style="text-decoration:;font-size: inherit;">}</tspan></tspan></text></g></g><g id="SvgjsG1306" transform="translate(529,203)"><path id="SvgjsPath1307" d="M 0 0L 103 0L 103 46L 0 46Z" stroke="rgba(50,50,50,1)" stroke-width="2" fill-opacity="1" fill="#e0e0e0"></path><g id="SvgjsG1308"><text id="SvgjsText1309" font-family="微软雅黑" text-anchor="middle" font-size="13px" width="83px" fill="#323232" font-weight="400" align="middle" lineHeight="125%" anchor="middle" family="微软雅黑" size="13px" weight="400" font-style="" opacity="1" y="12.375" transform="rotate(0)"><tspan id="SvgjsTspan1310" dy="16" x="51.5"><tspan id="SvgjsTspan1311" style="text-decoration:;">Thread-3</tspan></tspan></text></g></g><g id="SvgjsG1312" transform="translate(529,249)"><path id="SvgjsPath1313" d="M 0 0L 103 0L 103 46L 0 46Z" stroke="rgba(50,50,50,1)" stroke-width="2" fill-opacity="1" fill="#e0e0e0"></path><g id="SvgjsG1314"><text id="SvgjsText1315" font-family="微软雅黑" text-anchor="middle" font-size="13px" width="83px" fill="#323232" font-weight="400" align="middle" lineHeight="125%" anchor="middle" family="微软雅黑" size="13px" weight="400" font-style="" opacity="1" y="12.375" transform="rotate(0)"><tspan id="SvgjsTspan1316" dy="16" x="51.5"><tspan id="SvgjsTspan1317" style="text-decoration:;">Thread-4</tspan></tspan></text></g></g><g id="SvgjsG1318"><path id="SvgjsPath1319" d="M463 226L495.5 226L495.5 226L525.4 226" stroke="#323232" stroke-width="2" fill="none" marker-end="url(#SvgjsMarker1320)"></path></g><g id="SvgjsG1322"><path id="SvgjsPath1323" d="M735 358L613 358L613 417L400 417L400 390.6" stroke="#323232" stroke-width="2" fill="none" marker-end="url(#SvgjsMarker1324)"></path></g><g id="SvgjsG1326" transform="translate(138,275)"><path id="SvgjsPath1327" d="M 0 0L 103 0L 103 46L 0 46Z" stroke="rgba(50,50,50,1)" stroke-width="2" fill-opacity="1" fill="#bbdefb"></path><g id="SvgjsG1328"><text id="SvgjsText1329" font-family="微软雅黑" text-anchor="middle" font-size="13px" width="83px" fill="#323232" font-weight="400" align="middle" lineHeight="125%" anchor="middle" family="微软雅黑" size="13px" weight="400" font-style="" opacity="1" y="12.375" transform="rotate(0)"><tspan id="SvgjsTspan1330" dy="16" x="51.5"><tspan id="SvgjsTspan1331" style="text-decoration:;">Thread-1</tspan></tspan></text></g></g><g id="SvgjsG1332"><path id="SvgjsPath1333" d="M858 345L1050 345L1050 60L810 60L810 86.4" stroke="#323232" stroke-width="2" fill="none" marker-end="url(#SvgjsMarker1334)"></path></g><g id="SvgjsG1336" transform="translate(25,71)"><path id="SvgjsPath1337" d="M 0 50C 0 -16.666666666666668 260 -16.666666666666668 260 50C 260 116.66666666666667 0 116.66666666666667 0 50Z" stroke="rgba(50,50,50,1)" stroke-width="2" fill-opacity="1" fill="#ffe0b2"></path><g id="SvgjsG1338"><text id="SvgjsText1339" font-family="微软雅黑" text-anchor="middle" font-size="13px" width="240px" fill="#323232" font-weight="400" align="middle" lineHeight="125%" anchor="middle" family="微软雅黑" size="13px" weight="400" font-style="" opacity="1" y="39.375" transform="rotate(0)"></text></g></g><g id="SvgjsG1340" transform="translate(165,99)"><path id="SvgjsPath1341" d="M 0 0L 103 0L 103 46L 0 46Z" stroke="rgba(50,50,50,1)" stroke-width="2" fill-opacity="1" fill="#ffcdd2"></path><g id="SvgjsG1342"><text id="SvgjsText1343" font-family="微软雅黑" text-anchor="middle" font-size="13px" width="83px" fill="#323232" font-weight="400" align="middle" lineHeight="125%" anchor="middle" family="微软雅黑" size="13px" weight="400" font-style="" opacity="1" y="12.375" transform="rotate(0)"><tspan id="SvgjsTspan1344" dy="16" x="51.5"><tspan id="SvgjsTspan1345" style="text-decoration:;">Thread-6</tspan></tspan></text></g></g><g id="SvgjsG1346" transform="translate(50,99)"><path id="SvgjsPath1347" d="M 0 0L 103 0L 103 46L 0 46Z" stroke="rgba(50,50,50,1)" stroke-width="2" fill-opacity="1" fill="#ffcdd2"></path><g id="SvgjsG1348"><text id="SvgjsText1349" font-family="微软雅黑" text-anchor="middle" font-size="13px" width="83px" fill="#323232" font-weight="400" align="middle" lineHeight="125%" anchor="middle" family="微软雅黑" size="13px" weight="400" font-style="" opacity="1" y="12.375" transform="rotate(0)"><tspan id="SvgjsTspan1350" dy="16" x="51.5"><tspan id="SvgjsTspan1351" style="text-decoration:;">Thread-5</tspan></tspan></text></g></g><g id="SvgjsG1352" transform="translate(95,25)"><path id="SvgjsPath1353" d="M 0 0L 120 0L 120 40L 0 40Z" stroke="none" fill="none"></path><g id="SvgjsG1354"><text id="SvgjsText1355" font-family="微软雅黑" text-anchor="middle" font-size="15px" width="120px" fill="#323232" font-weight="700" align="middle" lineHeight="125%" anchor="middle" family="微软雅黑" size="15px" weight="700" font-style="" opacity="1" y="7.625" transform="rotate(0)"><tspan id="SvgjsTspan1356" dy="18" x="60"><tspan id="SvgjsTspan1357" style="text-decoration:;">waiting</tspan></tspan></text></g></g><g id="SvgjsG1358" transform="translate(520.5,151)"><path id="SvgjsPath1359" d="M 0 0L 120 0L 120 40L 0 40Z" stroke="none" fill="none"></path><g id="SvgjsG1360"><text id="SvgjsText1361" font-family="微软雅黑" text-anchor="middle" font-size="15px" width="120px" fill="#323232" font-weight="700" align="middle" lineHeight="125%" anchor="middle" family="微软雅黑" size="15px" weight="700" font-style="" opacity="1" y="7.625" transform="rotate(0)"><tspan id="SvgjsTspan1362" dy="18" x="60"><tspan id="SvgjsTspan1363" style="text-decoration:;">blocked</tspan></tspan></text></g></g><g id="SvgjsG1364"><path id="SvgjsPath1365" d="M349 154L320 154L320 201L155 201L155 174.6" stroke="#323232" stroke-width="2" fill="none" marker-end="url(#SvgjsMarker1366)"></path></g><g id="SvgjsG1368"><path id="SvgjsPath1369" d="M349 298L295.5 298L295.5 298L244.60000000000002 298" stroke="#323232" stroke-width="2" fill="none" marker-end="url(#SvgjsMarker1370)"></path></g></svg>