<svg id="SvgjsSvg1372" width="1646.5" height="863" xmlns="http://www.w3.org/2000/svg" version="1.1" xmlns:xlink="http://www.w3.org/1999/xlink" xmlns:svgjs="http://svgjs.com/svgjs"><defs id="SvgjsDefs1373"><marker id="SvgjsMarker1508" markerWidth="14" markerHeight="10" refX="4" refY="5" viewBox="0 0 14 10" orient="auto" markerUnits="userSpaceOnUse" stroke-dasharray="0,0"><path id="SvgjsPath1509" d="M14,0 L0,5 L14,10 L14,0" fill="#f44336" stroke="#f44336" stroke-width="1"></path></marker><marker id="SvgjsMarker1510" markerWidth="14" markerHeight="10" refX="10" refY="5" viewBox="0 0 14 10" orient="auto" markerUnits="userSpaceOnUse" stroke-dasharray="0,0"><path id="SvgjsPath1511" d="M0,0 L14,5 L0,10 L0,0" fill="#f44336" stroke="#f44336" stroke-width="1"></path></marker><marker id="SvgjsMarker1514" markerWidth="14" markerHeight="10" refX="10" refY="5" viewBox="0 0 14 10" orient="auto" markerUnits="userSpaceOnUse" stroke-dasharray="0,0"><path id="SvgjsPath1515" d="M0,0 L14,5 L0,10 L0,0" fill="#323232" stroke="#323232" stroke-width="1"></path></marker><marker id="SvgjsMarker1584" markerWidth="14" markerHeight="10" refX="4" refY="5" viewBox="0 0 14 10" orient="auto" markerUnits="userSpaceOnUse" stroke-dasharray="0,0"><path id="SvgjsPath1585" d="M14,0 L0,5 L14,10 L14,0" fill="#000000" stroke="#000000" stroke-width="1"></path></marker><marker id="SvgjsMarker1588" markerWidth="14" markerHeight="10" refX="10" refY="5" viewBox="0 0 14 10" orient="auto" markerUnits="userSpaceOnUse" stroke-dasharray="0,0"><path id="SvgjsPath1589" d="M0,0 L14,5 L0,10 L0,0" fill="#323232" stroke="#323232" stroke-width="1"></path></marker><marker id="SvgjsMarker1658" markerWidth="14" markerHeight="10" refX="4" refY="5" viewBox="0 0 14 10" orient="auto" markerUnits="userSpaceOnUse" stroke-dasharray="0,0"><path id="SvgjsPath1659" d="M14,0 L0,5 L14,10 L14,0" fill="#000000" stroke="#000000" stroke-width="1"></path></marker><marker id="SvgjsMarker1662" markerWidth="14" markerHeight="10" refX="10" refY="5" viewBox="0 0 14 10" orient="auto" markerUnits="userSpaceOnUse" stroke-dasharray="0,0"><path id="SvgjsPath1663" d="M0,0 L14,5 L0,10 L0,0" fill="#323232" stroke="#323232" stroke-width="1"></path></marker></defs><g id="SvgjsG1374" transform="translate(55.5,59)"><path id="SvgjsPath1375" d="M 0 0L 211 0L 211 293L 0 293Z" stroke="rgba(50,50,50,1)" stroke-width="2" fill-opacity="1" fill="#b2ebf2"></path><g id="SvgjsG1376"><text id="SvgjsText1377" font-family="微软雅黑" text-anchor="middle" font-size="13px" width="191px" fill="#323232" font-weight="400" align="middle" lineHeight="125%" anchor="middle" family="微软雅黑" size="13px" weight="400" font-style="" opacity="1" y="135.875" transform="rotate(0)"></text></g></g><g id="SvgjsG1378" transform="translate(294.5,59)"><path id="SvgjsPath1379" d="M 0 0L 239 0L 239 293L 0 293Z" stroke="rgba(50,50,50,1)" stroke-width="2" fill-opacity="1" fill="#c8e6c9"></path><g id="SvgjsG1380"><text id="SvgjsText1381" font-family="微软雅黑" text-anchor="middle" font-size="13px" width="219px" fill="#323232" font-weight="400" align="middle" lineHeight="125%" anchor="middle" family="微软雅黑" size="13px" weight="400" font-style="" opacity="1" y="135.875" transform="rotate(0)"></text></g></g><g id="SvgjsG1382" transform="translate(75.5,237)"><path id="SvgjsPath1383" d="M 0 0L 171 0L 171 98L 0 98Z" stroke="rgba(50,50,50,1)" stroke-width="2" fill-opacity="1" fill="#64b5f6"></path><g id="SvgjsG1384"><text id="SvgjsText1385" font-family="微软雅黑" text-anchor="middle" font-size="13px" width="151px" fill="#323232" font-weight="400" align="middle" lineHeight="125%" anchor="middle" family="微软雅黑" size="13px" weight="400" font-style="" opacity="1" y="38.375" transform="rotate(0)"></text></g></g><g id="SvgjsG1386" transform="translate(100.5,232)"><path id="SvgjsPath1387" d="M 0 0L 120 0L 120 40L 0 40Z" stroke="none" fill="none"></path><g id="SvgjsG1388"><text id="SvgjsText1389" font-family="微软雅黑" text-anchor="middle" font-size="13px" width="120px" fill="#323232" font-weight="400" align="middle" lineHeight="125%" anchor="middle" family="微软雅黑" size="13px" weight="400" font-style="" opacity="1" y="9.375" transform="rotate(0)"><tspan id="SvgjsTspan1390" dy="16" x="60"><tspan id="SvgjsTspan1391" style="text-decoration:;">Lock Record</tspan></tspan></text></g></g><g id="SvgjsG1392" transform="translate(93.5,267)"><path id="SvgjsPath1393" d="M 0 0L 135 0L 135 28L 0 28Z" stroke="rgba(50,50,50,1)" stroke-width="2" fill-opacity="1" fill="#fff9c4"></path><g id="SvgjsG1394"><text id="SvgjsText1395" font-family="微软雅黑" text-anchor="middle" font-size="12px" width="115px" fill="#323232" font-weight="400" align="middle" lineHeight="125%" anchor="middle" family="微软雅黑" size="12px" weight="400" font-style="" opacity="1" y="4" transform="rotate(0)"><tspan id="SvgjsTspan1396" dy="15" x="67.5"><tspan id="SvgjsTspan1397" style="text-decoration:;">lock record 地址 00</tspan></tspan></text></g></g><g id="SvgjsG1398" transform="translate(93,301)"><path id="SvgjsPath1399" d="M 0 0L 135 0L 135 28L 0 28Z" stroke="rgba(50,50,50,1)" stroke-width="2" fill-opacity="1" fill="#fff9c4"></path><g id="SvgjsG1400"><text id="SvgjsText1401" font-family="微软雅黑" text-anchor="middle" font-size="12px" width="115px" fill="#323232" font-weight="400" align="middle" lineHeight="125%" anchor="middle" family="微软雅黑" size="12px" weight="400" font-style="" opacity="1" y="4" transform="rotate(0)"><tspan id="SvgjsTspan1402" dy="15" x="67.5"><tspan id="SvgjsTspan1403" style="text-decoration:;">Object reference</tspan></tspan></text></g></g><g id="SvgjsG1404" transform="translate(100.5,59)"><path id="SvgjsPath1405" d="M 0 0L 120 0L 120 40L 0 40Z" stroke="none" fill="none"></path><g id="SvgjsG1406"><text id="SvgjsText1407" font-family="微软雅黑" text-anchor="middle" font-size="14px" width="120px" fill="#323232" font-weight="700" align="middle" lineHeight="125%" anchor="middle" family="微软雅黑" size="14px" weight="700" font-style="" opacity="1" y="8.25" transform="rotate(0)"><tspan id="SvgjsTspan1408" dy="17" x="60"><tspan id="SvgjsTspan1409" style="text-decoration:;">Thread - 0</tspan></tspan></text></g></g><g id="SvgjsG1410" transform="translate(348.5,55)"><path id="SvgjsPath1411" d="M 0 0L 120 0L 120 40L 0 40Z" stroke="none" fill="none"></path><g id="SvgjsG1412"><text id="SvgjsText1413" font-family="微软雅黑" text-anchor="middle" font-size="14px" width="120px" fill="#323232" font-weight="700" align="middle" lineHeight="125%" anchor="middle" family="微软雅黑" size="14px" weight="700" font-style="" opacity="1" y="8.25" transform="rotate(0)"><tspan id="SvgjsTspan1414" dy="17" x="60"><tspan id="SvgjsTspan1415" style="text-decoration:;">Object</tspan></tspan></text></g></g><g id="SvgjsG1416" transform="translate(321.5,121)"><path id="SvgjsPath1417" d="M 0 0L 174 0L 174 49L 0 49Z" stroke="rgba(50,50,50,1)" stroke-width="2" fill-opacity="1" fill="#fff9c4"></path><g id="SvgjsG1418"><text id="SvgjsText1419" font-family="微软雅黑" text-anchor="middle" font-size="12px" width="154px" fill="#323232" font-weight="400" align="middle" lineHeight="125%" anchor="middle" family="微软雅黑" size="12px" weight="400" font-style="" opacity="1" y="14.5" transform="rotate(0)"><tspan id="SvgjsTspan1420" dy="15" x="87"><tspan id="SvgjsTspan1421" style="text-decoration:;">Hashcode Age Bias 01</tspan></tspan></text></g></g><g id="SvgjsG1422" transform="translate(321.5,188)"><path id="SvgjsPath1423" d="M 0 0L 174 0L 174 49L 0 49Z" stroke="rgba(50,50,50,1)" stroke-width="2" fill-opacity="1" fill="#fff9c4"></path><g id="SvgjsG1424"><text id="SvgjsText1425" font-family="微软雅黑" text-anchor="middle" font-size="12px" width="154px" fill="#323232" font-weight="400" align="middle" lineHeight="125%" anchor="middle" family="微软雅黑" size="12px" weight="400" font-style="" opacity="1" y="14.5" transform="rotate(0)"><tspan id="SvgjsTspan1426" dy="15" x="87"><tspan id="SvgjsTspan1427" style="text-decoration:;">Klass Word</tspan></tspan></text></g></g><g id="SvgjsG1428" transform="translate(321.5,256.5)"><path id="SvgjsPath1429" d="M 0 0L 174 0L 174 78.5L 0 78.5Z" stroke="rgba(50,50,50,1)" stroke-width="2" fill-opacity="1" fill="#fff9c4"></path><g id="SvgjsG1430"><text id="SvgjsText1431" font-family="微软雅黑" text-anchor="middle" font-size="12px" width="154px" fill="#323232" font-weight="400" align="middle" lineHeight="125%" anchor="middle" family="微软雅黑" size="12px" weight="400" font-style="" opacity="1" y="29.25" transform="rotate(0)"><tspan id="SvgjsTspan1432" dy="15" x="87"><tspan id="SvgjsTspan1433" style="text-decoration:;">Object body</tspan></tspan></text></g></g><g id="SvgjsG1434" transform="translate(228,373)"><path id="SvgjsPath1435" d="M 0 0L 120 0L 120 40L 0 40Z" stroke="none" fill="none"></path><g id="SvgjsG1436"><text id="SvgjsText1437" font-family="微软雅黑" text-anchor="middle" font-size="21px" width="120px" fill="#323232" font-weight="700" align="middle" lineHeight="125%" anchor="middle" family="微软雅黑" size="21px" weight="700" font-style="" opacity="1" y="1.375" transform="rotate(0)"><tspan id="SvgjsTspan1438" dy="26" x="60"><tspan id="SvgjsTspan1439" style="text-decoration:;">A</tspan></tspan></text></g></g><g id="SvgjsG1440" transform="translate(599.5,59)"><path id="SvgjsPath1441" d="M 0 0L 211 0L 211 293L 0 293Z" stroke="rgba(50,50,50,1)" stroke-width="2" fill-opacity="1" fill="#b2ebf2"></path><g id="SvgjsG1442"><text id="SvgjsText1443" font-family="微软雅黑" text-anchor="middle" font-size="13px" width="191px" fill="#323232" font-weight="400" align="middle" lineHeight="125%" anchor="middle" family="微软雅黑" size="13px" weight="400" font-style="" opacity="1" y="135.875" transform="rotate(0)"></text></g></g><g id="SvgjsG1444" transform="translate(838.5,59)"><path id="SvgjsPath1445" d="M 0 0L 239 0L 239 293L 0 293Z" stroke="rgba(50,50,50,1)" stroke-width="2" fill-opacity="1" fill="#c8e6c9"></path><g id="SvgjsG1446"><text id="SvgjsText1447" font-family="微软雅黑" text-anchor="middle" font-size="13px" width="219px" fill="#323232" font-weight="400" align="middle" lineHeight="125%" anchor="middle" family="微软雅黑" size="13px" weight="400" font-style="" opacity="1" y="135.875" transform="rotate(0)"></text></g></g><g id="SvgjsG1448" transform="translate(619.5,237)"><path id="SvgjsPath1449" d="M 0 0L 171 0L 171 98L 0 98Z" stroke="rgba(50,50,50,1)" stroke-width="2" fill-opacity="1" fill="#64b5f6"></path><g id="SvgjsG1450"><text id="SvgjsText1451" font-family="微软雅黑" text-anchor="middle" font-size="13px" width="151px" fill="#323232" font-weight="400" align="middle" lineHeight="125%" anchor="middle" family="微软雅黑" size="13px" weight="400" font-style="" opacity="1" y="38.375" transform="rotate(0)"></text></g></g><g id="SvgjsG1452" transform="translate(644.5,232)"><path id="SvgjsPath1453" d="M 0 0L 120 0L 120 40L 0 40Z" stroke="none" fill="none"></path><g id="SvgjsG1454"><text id="SvgjsText1455" font-family="微软雅黑" text-anchor="middle" font-size="13px" width="120px" fill="#323232" font-weight="400" align="middle" lineHeight="125%" anchor="middle" family="微软雅黑" size="13px" weight="400" font-style="" opacity="1" y="9.375" transform="rotate(0)"><tspan id="SvgjsTspan1456" dy="16" x="60"><tspan id="SvgjsTspan1457" style="text-decoration:;">Lock Record</tspan></tspan></text></g></g><g id="SvgjsG1458" transform="translate(637.5,267)"><path id="SvgjsPath1459" d="M 0 0L 135 0L 135 28L 0 28Z" stroke="rgba(50,50,50,1)" stroke-width="2" fill-opacity="1" fill="#fff9c4"></path><g id="SvgjsG1460"><text id="SvgjsText1461" font-family="微软雅黑" text-anchor="middle" font-size="12px" width="115px" fill="#323232" font-weight="400" align="middle" lineHeight="125%" anchor="middle" family="微软雅黑" size="12px" weight="400" font-style="" opacity="1" y="4" transform="rotate(0)"><tspan id="SvgjsTspan1462" dy="15" x="67.5"><tspan id="SvgjsTspan1463" style="text-decoration:;">lock record 地址 00</tspan></tspan></text></g></g><g id="SvgjsG1464" transform="translate(637,301)"><path id="SvgjsPath1465" d="M 0 0L 135 0L 135 28L 0 28Z" stroke="rgba(50,50,50,1)" stroke-width="2" fill-opacity="1" fill="#fff9c4"></path><g id="SvgjsG1466"><text id="SvgjsText1467" font-family="微软雅黑" text-anchor="middle" font-size="12px" width="115px" fill="#323232" font-weight="400" align="middle" lineHeight="125%" anchor="middle" family="微软雅黑" size="12px" weight="400" font-style="" opacity="1" y="4" transform="rotate(0)"><tspan id="SvgjsTspan1468" dy="15" x="67.5"><tspan id="SvgjsTspan1469" style="text-decoration:;">Object reference</tspan></tspan></text></g></g><g id="SvgjsG1470" transform="translate(644.5,59)"><path id="SvgjsPath1471" d="M 0 0L 120 0L 120 40L 0 40Z" stroke="none" fill="none"></path><g id="SvgjsG1472"><text id="SvgjsText1473" font-family="微软雅黑" text-anchor="middle" font-size="14px" width="120px" fill="#323232" font-weight="700" align="middle" lineHeight="125%" anchor="middle" family="微软雅黑" size="14px" weight="700" font-style="" opacity="1" y="8.25" transform="rotate(0)"><tspan id="SvgjsTspan1474" dy="17" x="60"><tspan id="SvgjsTspan1475" style="text-decoration:;">Thread - 0</tspan></tspan></text></g></g><g id="SvgjsG1476" transform="translate(892.5,55)"><path id="SvgjsPath1477" d="M 0 0L 120 0L 120 40L 0 40Z" stroke="none" fill="none"></path><g id="SvgjsG1478"><text id="SvgjsText1479" font-family="微软雅黑" text-anchor="middle" font-size="14px" width="120px" fill="#323232" font-weight="700" align="middle" lineHeight="125%" anchor="middle" family="微软雅黑" size="14px" weight="700" font-style="" opacity="1" y="8.25" transform="rotate(0)"><tspan id="SvgjsTspan1480" dy="17" x="60"><tspan id="SvgjsTspan1481" style="text-decoration:;">Object</tspan></tspan></text></g></g><g id="SvgjsG1482" transform="translate(865.5,121)"><path id="SvgjsPath1483" d="M 0 0L 174 0L 174 49L 0 49Z" stroke="rgba(50,50,50,1)" stroke-width="2" fill-opacity="1" fill="#fff9c4"></path><g id="SvgjsG1484"><text id="SvgjsText1485" font-family="微软雅黑" text-anchor="middle" font-size="12px" width="154px" fill="#323232" font-weight="400" align="middle" lineHeight="125%" anchor="middle" family="微软雅黑" size="12px" weight="400" font-style="" opacity="1" y="14.5" transform="rotate(0)"><tspan id="SvgjsTspan1486" dy="15" x="87"><tspan id="SvgjsTspan1487" style="text-decoration:;">Hashcode Age Bias 01</tspan></tspan></text></g></g><g id="SvgjsG1488" transform="translate(865.5,188)"><path id="SvgjsPath1489" d="M 0 0L 174 0L 174 49L 0 49Z" stroke="rgba(50,50,50,1)" stroke-width="2" fill-opacity="1" fill="#fff9c4"></path><g id="SvgjsG1490"><text id="SvgjsText1491" font-family="微软雅黑" text-anchor="middle" font-size="12px" width="154px" fill="#323232" font-weight="400" align="middle" lineHeight="125%" anchor="middle" family="微软雅黑" size="12px" weight="400" font-style="" opacity="1" y="14.5" transform="rotate(0)"><tspan id="SvgjsTspan1492" dy="15" x="87"><tspan id="SvgjsTspan1493" style="text-decoration:;">Klass Word</tspan></tspan></text></g></g><g id="SvgjsG1494" transform="translate(865.5,256.5)"><path id="SvgjsPath1495" d="M 0 0L 174 0L 174 78.5L 0 78.5Z" stroke="rgba(50,50,50,1)" stroke-width="2" fill-opacity="1" fill="#fff9c4"></path><g id="SvgjsG1496"><text id="SvgjsText1497" font-family="微软雅黑" text-anchor="middle" font-size="12px" width="154px" fill="#323232" font-weight="400" align="middle" lineHeight="125%" anchor="middle" family="微软雅黑" size="12px" weight="400" font-style="" opacity="1" y="29.25" transform="rotate(0)"><tspan id="SvgjsTspan1498" dy="15" x="87"><tspan id="SvgjsTspan1499" style="text-decoration:;">Object body</tspan></tspan></text></g></g><g id="SvgjsG1500" transform="translate(772,373)"><path id="SvgjsPath1501" d="M 0 0L 120 0L 120 40L 0 40Z" stroke="none" fill="none"></path><g id="SvgjsG1502"><text id="SvgjsText1503" font-family="微软雅黑" text-anchor="middle" font-size="21px" width="120px" fill="#323232" font-weight="700" align="middle" lineHeight="125%" anchor="middle" family="微软雅黑" size="21px" weight="700" font-style="" opacity="1" y="1.375" transform="rotate(0)"><tspan id="SvgjsTspan1504" dy="26" x="60"><tspan id="SvgjsTspan1505" style="text-decoration:;">B</tspan></tspan></text></g></g><g id="SvgjsG1506"><path id="SvgjsPath1507" d="M776.0542884495878 280.42813146866916C 838.2379646779546 281 799.7620353220454 145.5 861.9457115504122 146.07186853133084" stroke="#f44336" stroke-width="2" fill="none" marker-start="url(#SvgjsMarker1508)" marker-end="url(#SvgjsMarker1510)"></path></g><g id="SvgjsG1512"><path id="SvgjsPath1513" d="M636 315L584 315L584 25L952.5 25L952.5 51.400000000000006" stroke="#323232" stroke-width="2" fill="none" marker-end="url(#SvgjsMarker1514)"></path></g><g id="SvgjsG1516" transform="translate(1143.5,59)"><path id="SvgjsPath1517" d="M 0 0L 211 0L 211 293L 0 293Z" stroke="rgba(50,50,50,1)" stroke-width="2" fill-opacity="1" fill="#b2ebf2"></path><g id="SvgjsG1518"><text id="SvgjsText1519" font-family="微软雅黑" text-anchor="middle" font-size="13px" width="191px" fill="#323232" font-weight="400" align="middle" lineHeight="125%" anchor="middle" family="微软雅黑" size="13px" weight="400" font-style="" opacity="1" y="135.875" transform="rotate(0)"></text></g></g><g id="SvgjsG1520" transform="translate(1382.5,59)"><path id="SvgjsPath1521" d="M 0 0L 239 0L 239 293L 0 293Z" stroke="rgba(50,50,50,1)" stroke-width="2" fill-opacity="1" fill="#c8e6c9"></path><g id="SvgjsG1522"><text id="SvgjsText1523" font-family="微软雅黑" text-anchor="middle" font-size="13px" width="219px" fill="#323232" font-weight="400" align="middle" lineHeight="125%" anchor="middle" family="微软雅黑" size="13px" weight="400" font-style="" opacity="1" y="135.875" transform="rotate(0)"></text></g></g><g id="SvgjsG1524" transform="translate(1163.5,237)"><path id="SvgjsPath1525" d="M 0 0L 171 0L 171 98L 0 98Z" stroke="rgba(50,50,50,1)" stroke-width="2" fill-opacity="1" fill="#64b5f6"></path><g id="SvgjsG1526"><text id="SvgjsText1527" font-family="微软雅黑" text-anchor="middle" font-size="13px" width="151px" fill="#323232" font-weight="400" align="middle" lineHeight="125%" anchor="middle" family="微软雅黑" size="13px" weight="400" font-style="" opacity="1" y="38.375" transform="rotate(0)"></text></g></g><g id="SvgjsG1528" transform="translate(1188.5,232)"><path id="SvgjsPath1529" d="M 0 0L 120 0L 120 40L 0 40Z" stroke="none" fill="none"></path><g id="SvgjsG1530"><text id="SvgjsText1531" font-family="微软雅黑" text-anchor="middle" font-size="13px" width="120px" fill="#323232" font-weight="400" align="middle" lineHeight="125%" anchor="middle" family="微软雅黑" size="13px" weight="400" font-style="" opacity="1" y="9.375" transform="rotate(0)"><tspan id="SvgjsTspan1532" dy="16" x="60"><tspan id="SvgjsTspan1533" style="text-decoration:;">Lock Record</tspan></tspan></text></g></g><g id="SvgjsG1534" transform="translate(1181.5,267)"><path id="SvgjsPath1535" d="M 0 0L 135 0L 135 28L 0 28Z" stroke="rgba(50,50,50,1)" stroke-width="2" fill-opacity="1" fill="#fff9c4"></path><g id="SvgjsG1536"><text id="SvgjsText1537" font-family="微软雅黑" text-anchor="middle" font-size="12px" width="115px" fill="#323232" font-weight="400" align="middle" lineHeight="125%" anchor="middle" family="微软雅黑" size="12px" weight="400" font-style="" opacity="1" y="4" transform="rotate(0)"><tspan id="SvgjsTspan1538" dy="15" x="67.5"><tspan id="SvgjsTspan1539" style="text-decoration:;">lock record 地址 01</tspan></tspan></text></g></g><g id="SvgjsG1540" transform="translate(1181,301)"><path id="SvgjsPath1541" d="M 0 0L 135 0L 135 28L 0 28Z" stroke="rgba(50,50,50,1)" stroke-width="2" fill-opacity="1" fill="#fff9c4"></path><g id="SvgjsG1542"><text id="SvgjsText1543" font-family="微软雅黑" text-anchor="middle" font-size="12px" width="115px" fill="#323232" font-weight="400" align="middle" lineHeight="125%" anchor="middle" family="微软雅黑" size="12px" weight="400" font-style="" opacity="1" y="4" transform="rotate(0)"><tspan id="SvgjsTspan1544" dy="15" x="67.5"><tspan id="SvgjsTspan1545" style="text-decoration:;">Object reference</tspan></tspan></text></g></g><g id="SvgjsG1546" transform="translate(1188.5,59)"><path id="SvgjsPath1547" d="M 0 0L 120 0L 120 40L 0 40Z" stroke="none" fill="none"></path><g id="SvgjsG1548"><text id="SvgjsText1549" font-family="微软雅黑" text-anchor="middle" font-size="14px" width="120px" fill="#323232" font-weight="700" align="middle" lineHeight="125%" anchor="middle" family="微软雅黑" size="14px" weight="700" font-style="" opacity="1" y="8.25" transform="rotate(0)"><tspan id="SvgjsTspan1550" dy="17" x="60"><tspan id="SvgjsTspan1551" style="text-decoration:;">Thread - 0</tspan></tspan></text></g></g><g id="SvgjsG1552" transform="translate(1436.5,55)"><path id="SvgjsPath1553" d="M 0 0L 120 0L 120 40L 0 40Z" stroke="none" fill="none"></path><g id="SvgjsG1554"><text id="SvgjsText1555" font-family="微软雅黑" text-anchor="middle" font-size="14px" width="120px" fill="#323232" font-weight="700" align="middle" lineHeight="125%" anchor="middle" family="微软雅黑" size="14px" weight="700" font-style="" opacity="1" y="8.25" transform="rotate(0)"><tspan id="SvgjsTspan1556" dy="17" x="60"><tspan id="SvgjsTspan1557" style="text-decoration:;">Object</tspan></tspan></text></g></g><g id="SvgjsG1558" transform="translate(1409.5,121)"><path id="SvgjsPath1559" d="M 0 0L 174 0L 174 49L 0 49Z" stroke="rgba(50,50,50,1)" stroke-width="2" fill-opacity="1" fill="#fff9c4"></path><g id="SvgjsG1560"><text id="SvgjsText1561" font-family="微软雅黑" text-anchor="middle" font-size="12px" width="154px" fill="#323232" font-weight="400" align="middle" lineHeight="125%" anchor="middle" family="微软雅黑" size="12px" weight="400" font-style="" opacity="1" y="14.5" transform="rotate(0)"><tspan id="SvgjsTspan1562" dy="15" x="87"><tspan id="SvgjsTspan1563" style="text-decoration:;">Hashcode Age Bias 00</tspan></tspan></text></g></g><g id="SvgjsG1564" transform="translate(1409.5,188)"><path id="SvgjsPath1565" d="M 0 0L 174 0L 174 49L 0 49Z" stroke="rgba(50,50,50,1)" stroke-width="2" fill-opacity="1" fill="#fff9c4"></path><g id="SvgjsG1566"><text id="SvgjsText1567" font-family="微软雅黑" text-anchor="middle" font-size="12px" width="154px" fill="#323232" font-weight="400" align="middle" lineHeight="125%" anchor="middle" family="微软雅黑" size="12px" weight="400" font-style="" opacity="1" y="14.5" transform="rotate(0)"><tspan id="SvgjsTspan1568" dy="15" x="87"><tspan id="SvgjsTspan1569" style="text-decoration:;">Klass Word</tspan></tspan></text></g></g><g id="SvgjsG1570" transform="translate(1409.5,256.5)"><path id="SvgjsPath1571" d="M 0 0L 174 0L 174 78.5L 0 78.5Z" stroke="rgba(50,50,50,1)" stroke-width="2" fill-opacity="1" fill="#fff9c4"></path><g id="SvgjsG1572"><text id="SvgjsText1573" font-family="微软雅黑" text-anchor="middle" font-size="12px" width="154px" fill="#323232" font-weight="400" align="middle" lineHeight="125%" anchor="middle" family="微软雅黑" size="12px" weight="400" font-style="" opacity="1" y="29.25" transform="rotate(0)"><tspan id="SvgjsTspan1574" dy="15" x="87"><tspan id="SvgjsTspan1575" style="text-decoration:;">Object body</tspan></tspan></text></g></g><g id="SvgjsG1576" transform="translate(1316,373)"><path id="SvgjsPath1577" d="M 0 0L 120 0L 120 40L 0 40Z" stroke="none" fill="none"></path><g id="SvgjsG1578"><text id="SvgjsText1579" font-family="微软雅黑" text-anchor="middle" font-size="21px" width="120px" fill="#323232" font-weight="700" align="middle" lineHeight="125%" anchor="middle" family="微软雅黑" size="21px" weight="700" font-style="" opacity="1" y="1.375" transform="rotate(0)"><tspan id="SvgjsTspan1580" dy="26" x="60"><tspan id="SvgjsTspan1581" style="text-decoration:;">C</tspan></tspan></text></g></g><g id="SvgjsG1582"><path id="SvgjsPath1583" d="M1320.1 281L1363 281L1363 145.5L1408.5 145.5" stroke="#000000" stroke-width="2" fill="none" marker-start="url(#SvgjsMarker1584)"></path></g><g id="SvgjsG1586"><path id="SvgjsPath1587" d="M1180 315L1128 315L1128 25L1496.5 25L1496.5 51.400000000000006" stroke="#323232" stroke-width="2" fill="none" marker-end="url(#SvgjsMarker1588)"></path></g><g id="SvgjsG1590" transform="translate(55.5,484)"><path id="SvgjsPath1591" d="M 0 0L 211 0L 211 293L 0 293Z" stroke="rgba(50,50,50,1)" stroke-width="2" fill-opacity="1" fill="#b2ebf2"></path><g id="SvgjsG1592"><text id="SvgjsText1593" font-family="微软雅黑" text-anchor="middle" font-size="13px" width="191px" fill="#323232" font-weight="400" align="middle" lineHeight="125%" anchor="middle" family="微软雅黑" size="13px" weight="400" font-style="" opacity="1" y="135.875" transform="rotate(0)"></text></g></g><g id="SvgjsG1594" transform="translate(294.5,484)"><path id="SvgjsPath1595" d="M 0 0L 239 0L 239 293L 0 293Z" stroke="rgba(50,50,50,1)" stroke-width="2" fill-opacity="1" fill="#c8e6c9"></path><g id="SvgjsG1596"><text id="SvgjsText1597" font-family="微软雅黑" text-anchor="middle" font-size="13px" width="219px" fill="#323232" font-weight="400" align="middle" lineHeight="125%" anchor="middle" family="微软雅黑" size="13px" weight="400" font-style="" opacity="1" y="135.875" transform="rotate(0)"></text></g></g><g id="SvgjsG1598" transform="translate(75.5,662)"><path id="SvgjsPath1599" d="M 0 0L 171 0L 171 98L 0 98Z" stroke="rgba(50,50,50,1)" stroke-width="2" fill-opacity="1" fill="#64b5f6"></path><g id="SvgjsG1600"><text id="SvgjsText1601" font-family="微软雅黑" text-anchor="middle" font-size="13px" width="151px" fill="#323232" font-weight="400" align="middle" lineHeight="125%" anchor="middle" family="微软雅黑" size="13px" weight="400" font-style="" opacity="1" y="38.375" transform="rotate(0)"></text></g></g><g id="SvgjsG1602" transform="translate(100.5,657)"><path id="SvgjsPath1603" d="M 0 0L 120 0L 120 40L 0 40Z" stroke="none" fill="none"></path><g id="SvgjsG1604"><text id="SvgjsText1605" font-family="微软雅黑" text-anchor="middle" font-size="13px" width="120px" fill="#323232" font-weight="400" align="middle" lineHeight="125%" anchor="middle" family="微软雅黑" size="13px" weight="400" font-style="" opacity="1" y="9.375" transform="rotate(0)"><tspan id="SvgjsTspan1606" dy="16" x="60"><tspan id="SvgjsTspan1607" style="text-decoration:;">Lock Record</tspan></tspan></text></g></g><g id="SvgjsG1608" transform="translate(93.5,692)"><path id="SvgjsPath1609" d="M 0 0L 135 0L 135 28L 0 28Z" stroke="rgba(50,50,50,1)" stroke-width="2" fill-opacity="1" fill="#fff9c4"></path><g id="SvgjsG1610"><text id="SvgjsText1611" font-family="微软雅黑" text-anchor="middle" font-size="12px" width="115px" fill="#323232" font-weight="400" align="middle" lineHeight="125%" anchor="middle" family="微软雅黑" size="12px" weight="400" font-style="" opacity="1" y="4" transform="rotate(0)"><tspan id="SvgjsTspan1612" dy="15" x="67.5"><tspan id="SvgjsTspan1613" style="text-decoration:;">lock record 地址 01</tspan></tspan></text></g></g><g id="SvgjsG1614" transform="translate(93,726)"><path id="SvgjsPath1615" d="M 0 0L 135 0L 135 28L 0 28Z" stroke="rgba(50,50,50,1)" stroke-width="2" fill-opacity="1" fill="#fff9c4"></path><g id="SvgjsG1616"><text id="SvgjsText1617" font-family="微软雅黑" text-anchor="middle" font-size="12px" width="115px" fill="#323232" font-weight="400" align="middle" lineHeight="125%" anchor="middle" family="微软雅黑" size="12px" weight="400" font-style="" opacity="1" y="4" transform="rotate(0)"><tspan id="SvgjsTspan1618" dy="15" x="67.5"><tspan id="SvgjsTspan1619" style="text-decoration:;">Object reference</tspan></tspan></text></g></g><g id="SvgjsG1620" transform="translate(100.5,484)"><path id="SvgjsPath1621" d="M 0 0L 120 0L 120 40L 0 40Z" stroke="none" fill="none"></path><g id="SvgjsG1622"><text id="SvgjsText1623" font-family="微软雅黑" text-anchor="middle" font-size="14px" width="120px" fill="#323232" font-weight="700" align="middle" lineHeight="125%" anchor="middle" family="微软雅黑" size="14px" weight="700" font-style="" opacity="1" y="8.25" transform="rotate(0)"><tspan id="SvgjsTspan1624" dy="17" x="60"><tspan id="SvgjsTspan1625" style="text-decoration:;">Thread - 0</tspan></tspan></text></g></g><g id="SvgjsG1626" transform="translate(348.5,480)"><path id="SvgjsPath1627" d="M 0 0L 120 0L 120 40L 0 40Z" stroke="none" fill="none"></path><g id="SvgjsG1628"><text id="SvgjsText1629" font-family="微软雅黑" text-anchor="middle" font-size="14px" width="120px" fill="#323232" font-weight="700" align="middle" lineHeight="125%" anchor="middle" family="微软雅黑" size="14px" weight="700" font-style="" opacity="1" y="8.25" transform="rotate(0)"><tspan id="SvgjsTspan1630" dy="17" x="60"><tspan id="SvgjsTspan1631" style="text-decoration:;">Object</tspan></tspan></text></g></g><g id="SvgjsG1632" transform="translate(321.5,546)"><path id="SvgjsPath1633" d="M 0 0L 174 0L 174 49L 0 49Z" stroke="rgba(50,50,50,1)" stroke-width="2" fill-opacity="1" fill="#fff9c4"></path><g id="SvgjsG1634"><text id="SvgjsText1635" font-family="微软雅黑" text-anchor="middle" font-size="12px" width="154px" fill="#323232" font-weight="400" align="middle" lineHeight="125%" anchor="middle" family="微软雅黑" size="12px" weight="400" font-style="" opacity="1" y="14.5" transform="rotate(0)"><tspan id="SvgjsTspan1636" dy="15" x="87"><tspan id="SvgjsTspan1637" style="text-decoration:;">Hashcode Age Bias 00</tspan></tspan></text></g></g><g id="SvgjsG1638" transform="translate(321.5,613)"><path id="SvgjsPath1639" d="M 0 0L 174 0L 174 49L 0 49Z" stroke="rgba(50,50,50,1)" stroke-width="2" fill-opacity="1" fill="#fff9c4"></path><g id="SvgjsG1640"><text id="SvgjsText1641" font-family="微软雅黑" text-anchor="middle" font-size="12px" width="154px" fill="#323232" font-weight="400" align="middle" lineHeight="125%" anchor="middle" family="微软雅黑" size="12px" weight="400" font-style="" opacity="1" y="14.5" transform="rotate(0)"><tspan id="SvgjsTspan1642" dy="15" x="87"><tspan id="SvgjsTspan1643" style="text-decoration:;">Klass Word</tspan></tspan></text></g></g><g id="SvgjsG1644" transform="translate(321.5,681.5)"><path id="SvgjsPath1645" d="M 0 0L 174 0L 174 78.5L 0 78.5Z" stroke="rgba(50,50,50,1)" stroke-width="2" fill-opacity="1" fill="#fff9c4"></path><g id="SvgjsG1646"><text id="SvgjsText1647" font-family="微软雅黑" text-anchor="middle" font-size="12px" width="154px" fill="#323232" font-weight="400" align="middle" lineHeight="125%" anchor="middle" family="微软雅黑" size="12px" weight="400" font-style="" opacity="1" y="29.25" transform="rotate(0)"><tspan id="SvgjsTspan1648" dy="15" x="87"><tspan id="SvgjsTspan1649" style="text-decoration:;">Object body</tspan></tspan></text></g></g><g id="SvgjsG1650" transform="translate(228,798)"><path id="SvgjsPath1651" d="M 0 0L 120 0L 120 40L 0 40Z" stroke="none" fill="none"></path><g id="SvgjsG1652"><text id="SvgjsText1653" font-family="微软雅黑" text-anchor="middle" font-size="21px" width="120px" fill="#323232" font-weight="700" align="middle" lineHeight="125%" anchor="middle" family="微软雅黑" size="21px" weight="700" font-style="" opacity="1" y="1.375" transform="rotate(0)"><tspan id="SvgjsTspan1654" dy="26" x="60"><tspan id="SvgjsTspan1655" style="text-decoration:;">D</tspan></tspan></text></g></g><g id="SvgjsG1656"><path id="SvgjsPath1657" d="M232.10000000000002 706L275 706L275 570.5L320.5 570.5" stroke="#000000" stroke-width="2" fill="none" marker-start="url(#SvgjsMarker1658)"></path></g><g id="SvgjsG1660"><path id="SvgjsPath1661" d="M92 740L40 740L40 450L408.5 450L408.5 476.4" stroke="#323232" stroke-width="2" fill="none" marker-end="url(#SvgjsMarker1662)"></path></g><g id="SvgjsG1664" transform="translate(75.5,554)"><path id="SvgjsPath1665" d="M 0 0L 171 0L 171 98L 0 98Z" stroke="rgba(50,50,50,1)" stroke-width="2" fill-opacity="1" fill="#64b5f6"></path><g id="SvgjsG1666"><text id="SvgjsText1667" font-family="微软雅黑" text-anchor="middle" font-size="13px" width="151px" fill="#323232" font-weight="400" align="middle" lineHeight="125%" anchor="middle" family="微软雅黑" size="13px" weight="400" font-style="" opacity="1" y="38.375" transform="rotate(0)"></text></g></g><g id="SvgjsG1668" transform="translate(100.5,550.5)"><path id="SvgjsPath1669" d="M 0 0L 120 0L 120 40L 0 40Z" stroke="none" fill="none"></path><g id="SvgjsG1670"><text id="SvgjsText1671" font-family="微软雅黑" text-anchor="middle" font-size="13px" width="120px" fill="#323232" font-weight="400" align="middle" lineHeight="125%" anchor="middle" family="微软雅黑" size="13px" weight="400" font-style="" opacity="1" y="9.375" transform="rotate(0)"><tspan id="SvgjsTspan1672" dy="16" x="60"><tspan id="SvgjsTspan1673" style="text-decoration:;">Lock Record</tspan></tspan></text></g></g><g id="SvgjsG1674" transform="translate(93,585)"><path id="SvgjsPath1675" d="M 0 0L 135 0L 135 28L 0 28Z" stroke="rgba(50,50,50,1)" stroke-width="2" fill-opacity="1" fill="#fff9c4"></path><g id="SvgjsG1676"><text id="SvgjsText1677" font-family="微软雅黑" text-anchor="middle" font-size="12px" width="115px" fill="#323232" font-weight="400" align="middle" lineHeight="125%" anchor="middle" family="微软雅黑" size="12px" weight="400" font-style="" opacity="1" y="4" transform="rotate(0)"><tspan id="SvgjsTspan1678" dy="15" x="67.5"><tspan id="SvgjsTspan1679" style="text-decoration:;">null</tspan></tspan></text></g></g><g id="SvgjsG1680" transform="translate(93,616.5)"><path id="SvgjsPath1681" d="M 0 0L 135 0L 135 28L 0 28Z" stroke="rgba(50,50,50,1)" stroke-width="2" fill-opacity="1" fill="#fff9c4"></path><g id="SvgjsG1682"><text id="SvgjsText1683" font-family="微软雅黑" text-anchor="middle" font-size="12px" width="115px" fill="#323232" font-weight="400" align="middle" lineHeight="125%" anchor="middle" family="微软雅黑" size="12px" weight="400" font-style="" opacity="1" y="4" transform="rotate(0)"><tspan id="SvgjsTspan1684" dy="15" x="67.5"><tspan id="SvgjsTspan1685" style="text-decoration:;">Object reference</tspan></tspan></text></g></g><g id="SvgjsG1686"><path id="SvgjsPath1687" d="M92 630.5L25 630.5L25 430L408.5 430L408.5 479" stroke="#323232" stroke-width="2" fill="none"></path></g><g id="SvgjsG1688" transform="translate(607.5,477)"><path id="SvgjsPath1689" d="M 0 0L 211 0L 211 293L 0 293Z" stroke="rgba(50,50,50,1)" stroke-width="2" fill-opacity="1" fill="#b2ebf2"></path><g id="SvgjsG1690"><text id="SvgjsText1691" font-family="微软雅黑" text-anchor="middle" font-size="13px" width="191px" fill="#323232" font-weight="400" align="middle" lineHeight="125%" anchor="middle" family="微软雅黑" size="13px" weight="400" font-style="" opacity="1" y="135.875" transform="rotate(0)"></text></g></g><g id="SvgjsG1692" transform="translate(846.5,477)"><path id="SvgjsPath1693" d="M 0 0L 239 0L 239 293L 0 293Z" stroke="rgba(50,50,50,1)" stroke-width="2" fill-opacity="1" fill="#c8e6c9"></path><g id="SvgjsG1694"><text id="SvgjsText1695" font-family="微软雅黑" text-anchor="middle" font-size="13px" width="219px" fill="#323232" font-weight="400" align="middle" lineHeight="125%" anchor="middle" family="微软雅黑" size="13px" weight="400" font-style="" opacity="1" y="135.875" transform="rotate(0)"></text></g></g><g id="SvgjsG1696" transform="translate(627.5,655)"><path id="SvgjsPath1697" d="M 0 0L 171 0L 171 98L 0 98Z" stroke="rgba(50,50,50,1)" stroke-width="2" fill-opacity="1" fill="#64b5f6"></path><g id="SvgjsG1698"><text id="SvgjsText1699" font-family="微软雅黑" text-anchor="middle" font-size="13px" width="151px" fill="#323232" font-weight="400" align="middle" lineHeight="125%" anchor="middle" family="微软雅黑" size="13px" weight="400" font-style="" opacity="1" y="38.375" transform="rotate(0)"></text></g></g><g id="SvgjsG1700" transform="translate(652.5,650)"><path id="SvgjsPath1701" d="M 0 0L 120 0L 120 40L 0 40Z" stroke="none" fill="none"></path><g id="SvgjsG1702"><text id="SvgjsText1703" font-family="微软雅黑" text-anchor="middle" font-size="13px" width="120px" fill="#323232" font-weight="400" align="middle" lineHeight="125%" anchor="middle" family="微软雅黑" size="13px" weight="400" font-style="" opacity="1" y="9.375" transform="rotate(0)"><tspan id="SvgjsTspan1704" dy="16" x="60"><tspan id="SvgjsTspan1705" style="text-decoration:;">Lock Record</tspan></tspan></text></g></g><g id="SvgjsG1706" transform="translate(645.5,685)"><path id="SvgjsPath1707" d="M 0 0L 135 0L 135 28L 0 28Z" stroke="rgba(50,50,50,1)" stroke-width="2" fill-opacity="1" fill="#fff9c4"></path><g id="SvgjsG1708"><text id="SvgjsText1709" font-family="微软雅黑" text-anchor="middle" font-size="12px" width="115px" fill="#323232" font-weight="400" align="middle" lineHeight="125%" anchor="middle" family="微软雅黑" size="12px" weight="400" font-style="" opacity="1" y="4" transform="rotate(0)"><tspan id="SvgjsTspan1710" dy="15" x="67.5"><tspan id="SvgjsTspan1711" style="text-decoration:;">lock record 地址 01</tspan></tspan></text></g></g><g id="SvgjsG1712" transform="translate(645,719)"><path id="SvgjsPath1713" d="M 0 0L 135 0L 135 28L 0 28Z" stroke="rgba(50,50,50,1)" stroke-width="2" fill-opacity="1" fill="#fff9c4"></path><g id="SvgjsG1714"><text id="SvgjsText1715" font-family="微软雅黑" text-anchor="middle" font-size="12px" width="115px" fill="#323232" font-weight="400" align="middle" lineHeight="125%" anchor="middle" family="微软雅黑" size="12px" weight="400" font-style="" opacity="1" y="4" transform="rotate(0)"><tspan id="SvgjsTspan1716" dy="15" x="67.5"><tspan id="SvgjsTspan1717" style="text-decoration:;">Object reference</tspan></tspan></text></g></g><g id="SvgjsG1718" transform="translate(652.5,477)"><path id="SvgjsPath1719" d="M 0 0L 120 0L 120 40L 0 40Z" stroke="none" fill="none"></path><g id="SvgjsG1720"><text id="SvgjsText1721" font-family="微软雅黑" text-anchor="middle" font-size="14px" width="120px" fill="#323232" font-weight="700" align="middle" lineHeight="125%" anchor="middle" family="微软雅黑" size="14px" weight="700" font-style="" opacity="1" y="8.25" transform="rotate(0)"><tspan id="SvgjsTspan1722" dy="17" x="60"><tspan id="SvgjsTspan1723" style="text-decoration:;">Thread - 0</tspan></tspan></text></g></g><g id="SvgjsG1724" transform="translate(900.5,473)"><path id="SvgjsPath1725" d="M 0 0L 120 0L 120 40L 0 40Z" stroke="none" fill="none"></path><g id="SvgjsG1726"><text id="SvgjsText1727" font-family="微软雅黑" text-anchor="middle" font-size="14px" width="120px" fill="#323232" font-weight="700" align="middle" lineHeight="125%" anchor="middle" family="微软雅黑" size="14px" weight="700" font-style="" opacity="1" y="8.25" transform="rotate(0)"><tspan id="SvgjsTspan1728" dy="17" x="60"><tspan id="SvgjsTspan1729" style="text-decoration:;">Object</tspan></tspan></text></g></g><g id="SvgjsG1730" transform="translate(873.5,539)"><path id="SvgjsPath1731" d="M 0 0L 174 0L 174 49L 0 49Z" stroke="rgba(50,50,50,1)" stroke-width="2" fill-opacity="1" fill="#fff9c4"></path><g id="SvgjsG1732"><text id="SvgjsText1733" font-family="微软雅黑" text-anchor="middle" font-size="12px" width="154px" fill="#323232" font-weight="400" align="middle" lineHeight="125%" anchor="middle" family="微软雅黑" size="12px" weight="400" font-style="" opacity="1" y="14.5" transform="rotate(0)"><tspan id="SvgjsTspan1734" dy="15" x="87"><tspan id="SvgjsTspan1735" style="text-decoration:;">Hashcode Age Bias 00</tspan></tspan></text></g></g><g id="SvgjsG1736" transform="translate(873.5,606)"><path id="SvgjsPath1737" d="M 0 0L 174 0L 174 49L 0 49Z" stroke="rgba(50,50,50,1)" stroke-width="2" fill-opacity="1" fill="#fff9c4"></path><g id="SvgjsG1738"><text id="SvgjsText1739" font-family="微软雅黑" text-anchor="middle" font-size="12px" width="154px" fill="#323232" font-weight="400" align="middle" lineHeight="125%" anchor="middle" family="微软雅黑" size="12px" weight="400" font-style="" opacity="1" y="14.5" transform="rotate(0)"><tspan id="SvgjsTspan1740" dy="15" x="87"><tspan id="SvgjsTspan1741" style="text-decoration:;">Klass Word</tspan></tspan></text></g></g><g id="SvgjsG1742" transform="translate(873.5,674.5)"><path id="SvgjsPath1743" d="M 0 0L 174 0L 174 78.5L 0 78.5Z" stroke="rgba(50,50,50,1)" stroke-width="2" fill-opacity="1" fill="#fff9c4"></path><g id="SvgjsG1744"><text id="SvgjsText1745" font-family="微软雅黑" text-anchor="middle" font-size="12px" width="154px" fill="#323232" font-weight="400" align="middle" lineHeight="125%" anchor="middle" family="微软雅黑" size="12px" weight="400" font-style="" opacity="1" y="29.25" transform="rotate(0)"><tspan id="SvgjsTspan1746" dy="15" x="87"><tspan id="SvgjsTspan1747" style="text-decoration:;">Object body</tspan></tspan></text></g></g><g id="SvgjsG1748" transform="translate(780,791)"><path id="SvgjsPath1749" d="M 0 0L 120 0L 120 40L 0 40Z" stroke="none" fill="none"></path><g id="SvgjsG1750"><text id="SvgjsText1751" font-family="微软雅黑" text-anchor="middle" font-size="21px" width="120px" fill="#323232" font-weight="700" align="middle" lineHeight="125%" anchor="middle" family="微软雅黑" size="21px" weight="700" font-style="" opacity="1" y="1.375" transform="rotate(0)"><tspan id="SvgjsTspan1752" dy="26" x="60"><tspan id="SvgjsTspan1753" style="text-decoration:;">E</tspan></tspan></text></g></g><g id="SvgjsG1754"><path id="SvgjsPath1755" d="M872.5 563.5L827 563.5L827 699L781.5 699" stroke="#323232" stroke-width="2" fill="none"></path></g><g id="SvgjsG1756"><path id="SvgjsPath1757" d="M644 733L587 733L587 443L960.5 443L960.5 472" stroke="#323232" stroke-width="2" fill="none"></path></g></svg>