<svg id="SvgjsSvg1758" width="1868" height="442.5" xmlns="http://www.w3.org/2000/svg" version="1.1" xmlns:xlink="http://www.w3.org/1999/xlink" xmlns:svgjs="http://svgjs.com/svgjs"><defs id="SvgjsDefs1759"><marker id="SvgjsMarker1860" markerWidth="14" markerHeight="10" refX="10" refY="5" viewBox="0 0 14 10" orient="auto" markerUnits="userSpaceOnUse" stroke-dasharray="0,0"><path id="SvgjsPath1861" d="M0,0 L14,5 L0,10 L0,0" fill="#323232" stroke="#323232" stroke-width="1"></path></marker><marker id="SvgjsMarker1864" markerWidth="14" markerHeight="10" refX="10" refY="5" viewBox="0 0 14 10" orient="auto" markerUnits="userSpaceOnUse" stroke-dasharray="0,0"><path id="SvgjsPath1865" d="M0,0 L14,5 L0,10 L0,0" fill="#323232" stroke="#323232" stroke-width="1"></path></marker><marker id="SvgjsMarker1868" markerWidth="14" markerHeight="10" refX="4" refY="5" viewBox="0 0 14 10" orient="auto" markerUnits="userSpaceOnUse" stroke-dasharray="0,0"><path id="SvgjsPath1869" d="M14,0 L0,5 L14,10 L14,0" fill="#ff0000" stroke="#ff0000" stroke-width="1"></path></marker><marker id="SvgjsMarker1870" markerWidth="14" markerHeight="10" refX="10" refY="5" viewBox="0 0 14 10" orient="auto" markerUnits="userSpaceOnUse" stroke-dasharray="0,0"><path id="SvgjsPath1871" d="M0,0 L14,5 L0,10 L0,0" fill="#ff0000" stroke="#ff0000" stroke-width="1"></path></marker><marker id="SvgjsMarker1874" markerWidth="14" markerHeight="10" refX="4" refY="5" viewBox="0 0 14 10" orient="auto" markerUnits="userSpaceOnUse" stroke-dasharray="0,0"><path id="SvgjsPath1875" d="M14,0 L0,5 L14,10 L14,0" fill="#323232" stroke="#323232" stroke-width="1"></path></marker><marker id="SvgjsMarker1876" markerWidth="14" markerHeight="10" refX="10" refY="5" viewBox="0 0 14 10" orient="auto" markerUnits="userSpaceOnUse" stroke-dasharray="0,0"><path id="SvgjsPath1877" d="M0,0 L14,5 L0,10 L0,0" fill="#323232" stroke="#323232" stroke-width="1"></path></marker><marker id="SvgjsMarker1956" markerWidth="14" markerHeight="10" refX="10" refY="5" viewBox="0 0 14 10" orient="auto" markerUnits="userSpaceOnUse" stroke-dasharray="0,0"><path id="SvgjsPath1957" d="M0,0 L14,5 L0,10 L0,0" fill="#323232" stroke="#323232" stroke-width="1"></path></marker><marker id="SvgjsMarker1960" markerWidth="14" markerHeight="10" refX="10" refY="5" viewBox="0 0 14 10" orient="auto" markerUnits="userSpaceOnUse" stroke-dasharray="0,0"><path id="SvgjsPath1961" d="M0,0 L14,5 L0,10 L0,0" fill="#323232" stroke="#323232" stroke-width="1"></path></marker><marker id="SvgjsMarker1964" markerWidth="14" markerHeight="10" refX="10" refY="5" viewBox="0 0 14 10" orient="auto" markerUnits="userSpaceOnUse" stroke-dasharray="0,0"><path id="SvgjsPath1965" d="M0,0 L14,5 L0,10 L0,0" fill="#323232" stroke="#323232" stroke-width="1"></path></marker><marker id="SvgjsMarker1986" markerWidth="14" markerHeight="10" refX="10" refY="5" viewBox="0 0 14 10" orient="auto" markerUnits="userSpaceOnUse" stroke-dasharray="0,0"><path id="SvgjsPath1987" d="M0,0 L14,5 L0,10 L0,0" fill="#323232" stroke="#323232" stroke-width="1"></path></marker><marker id="SvgjsMarker1996" markerWidth="14" markerHeight="10" refX="10" refY="5" viewBox="0 0 14 10" orient="auto" markerUnits="userSpaceOnUse" stroke-dasharray="0,0"><path id="SvgjsPath1997" d="M0,0 L14,5 L0,10 L0,0" fill="#323232" stroke="#323232" stroke-width="1"></path></marker></defs><g id="SvgjsG1760" transform="translate(49.5,59)"><path id="SvgjsPath1761" d="M 0 0L 211 0L 211 293L 0 293Z" stroke="rgba(50,50,50,1)" stroke-width="2" fill-opacity="1" fill="#b2ebf2"></path><g id="SvgjsG1762"><text id="SvgjsText1763" font-family="微软雅黑" text-anchor="middle" font-size="13px" width="191px" fill="#323232" font-weight="400" align="middle" lineHeight="125%" anchor="middle" family="微软雅黑" size="13px" weight="400" font-style="" opacity="1" y="135.875" transform="rotate(0)"></text></g></g><g id="SvgjsG1764" transform="translate(288.5,59)"><path id="SvgjsPath1765" d="M 0 0L 239 0L 239 293L 0 293Z" stroke="rgba(50,50,50,1)" stroke-width="2" fill-opacity="1" fill="#c8e6c9"></path><g id="SvgjsG1766"><text id="SvgjsText1767" font-family="微软雅黑" text-anchor="middle" font-size="13px" width="219px" fill="#323232" font-weight="400" align="middle" lineHeight="125%" anchor="middle" family="微软雅黑" size="13px" weight="400" font-style="" opacity="1" y="135.875" transform="rotate(0)"></text></g></g><g id="SvgjsG1768" transform="translate(69.5,237)"><path id="SvgjsPath1769" d="M 0 0L 171 0L 171 98L 0 98Z" stroke="rgba(50,50,50,1)" stroke-width="2" fill-opacity="1" fill="#64b5f6"></path><g id="SvgjsG1770"><text id="SvgjsText1771" font-family="微软雅黑" text-anchor="middle" font-size="13px" width="151px" fill="#323232" font-weight="400" align="middle" lineHeight="125%" anchor="middle" family="微软雅黑" size="13px" weight="400" font-style="" opacity="1" y="38.375" transform="rotate(0)"></text></g></g><g id="SvgjsG1772" transform="translate(94.5,232)"><path id="SvgjsPath1773" d="M 0 0L 120 0L 120 40L 0 40Z" stroke="none" fill="none"></path><g id="SvgjsG1774"><text id="SvgjsText1775" font-family="微软雅黑" text-anchor="middle" font-size="13px" width="120px" fill="#323232" font-weight="400" align="middle" lineHeight="125%" anchor="middle" family="微软雅黑" size="13px" weight="400" font-style="" opacity="1" y="9.375" transform="rotate(0)"><tspan id="SvgjsTspan1776" dy="16" x="60"><tspan id="SvgjsTspan1777" style="text-decoration:;">Lock Record</tspan></tspan></text></g></g><g id="SvgjsG1778" transform="translate(87.5,267)"><path id="SvgjsPath1779" d="M 0 0L 135 0L 135 28L 0 28Z" stroke="rgba(50,50,50,1)" stroke-width="2" fill-opacity="1" fill="#fff9c4"></path><g id="SvgjsG1780"><text id="SvgjsText1781" font-family="微软雅黑" text-anchor="middle" font-size="12px" width="115px" fill="#323232" font-weight="400" align="middle" lineHeight="125%" anchor="middle" family="微软雅黑" size="12px" weight="400" font-style="" opacity="1" y="4" transform="rotate(0)"><tspan id="SvgjsTspan1782" dy="15" x="67.5"><tspan id="SvgjsTspan1783" style="text-decoration:;">lock record 地址 00</tspan></tspan></text></g></g><g id="SvgjsG1784" transform="translate(87,301)"><path id="SvgjsPath1785" d="M 0 0L 135 0L 135 28L 0 28Z" stroke="rgba(50,50,50,1)" stroke-width="2" fill-opacity="1" fill="#fff9c4"></path><g id="SvgjsG1786"><text id="SvgjsText1787" font-family="微软雅黑" text-anchor="middle" font-size="12px" width="115px" fill="#323232" font-weight="400" align="middle" lineHeight="125%" anchor="middle" family="微软雅黑" size="12px" weight="400" font-style="" opacity="1" y="4" transform="rotate(0)"><tspan id="SvgjsTspan1788" dy="15" x="67.5"><tspan id="SvgjsTspan1789" style="text-decoration:;">Object reference</tspan></tspan></text></g></g><g id="SvgjsG1790" transform="translate(94.5,59)"><path id="SvgjsPath1791" d="M 0 0L 120 0L 120 40L 0 40Z" stroke="none" fill="none"></path><g id="SvgjsG1792"><text id="SvgjsText1793" font-family="微软雅黑" text-anchor="middle" font-size="14px" width="120px" fill="#323232" font-weight="700" align="middle" lineHeight="125%" anchor="middle" family="微软雅黑" size="14px" weight="700" font-style="" opacity="1" y="8.25" transform="rotate(0)"><tspan id="SvgjsTspan1794" dy="17" x="60"><tspan id="SvgjsTspan1795" style="text-decoration:;">Thread - 0</tspan></tspan></text></g></g><g id="SvgjsG1796" transform="translate(342.5,55)"><path id="SvgjsPath1797" d="M 0 0L 120 0L 120 40L 0 40Z" stroke="none" fill="none"></path><g id="SvgjsG1798"><text id="SvgjsText1799" font-family="微软雅黑" text-anchor="middle" font-size="14px" width="120px" fill="#323232" font-weight="700" align="middle" lineHeight="125%" anchor="middle" family="微软雅黑" size="14px" weight="700" font-style="" opacity="1" y="8.25" transform="rotate(0)"><tspan id="SvgjsTspan1800" dy="17" x="60"><tspan id="SvgjsTspan1801" style="text-decoration:;">Object</tspan></tspan></text></g></g><g id="SvgjsG1802" transform="translate(315.5,121)"><path id="SvgjsPath1803" d="M 0 0L 174 0L 174 49L 0 49Z" stroke="rgba(50,50,50,1)" stroke-width="2" fill-opacity="1" fill="#fff9c4"></path><g id="SvgjsG1804"><text id="SvgjsText1805" font-family="微软雅黑" text-anchor="middle" font-size="12px" width="154px" fill="#323232" font-weight="400" align="middle" lineHeight="125%" anchor="middle" family="微软雅黑" size="12px" weight="400" font-style="" opacity="1" y="14.5" transform="rotate(0)"><tspan id="SvgjsTspan1806" dy="15" x="87"><tspan id="SvgjsTspan1807" style="text-decoration:;">Hashcode Age Bias 01</tspan></tspan></text></g></g><g id="SvgjsG1808" transform="translate(315.5,188)"><path id="SvgjsPath1809" d="M 0 0L 174 0L 174 49L 0 49Z" stroke="rgba(50,50,50,1)" stroke-width="2" fill-opacity="1" fill="#fff9c4"></path><g id="SvgjsG1810"><text id="SvgjsText1811" font-family="微软雅黑" text-anchor="middle" font-size="12px" width="154px" fill="#323232" font-weight="400" align="middle" lineHeight="125%" anchor="middle" family="微软雅黑" size="12px" weight="400" font-style="" opacity="1" y="14.5" transform="rotate(0)"><tspan id="SvgjsTspan1812" dy="15" x="87"><tspan id="SvgjsTspan1813" style="text-decoration:;">Klass Word</tspan></tspan></text></g></g><g id="SvgjsG1814" transform="translate(315.5,256.5)"><path id="SvgjsPath1815" d="M 0 0L 174 0L 174 78.5L 0 78.5Z" stroke="rgba(50,50,50,1)" stroke-width="2" fill-opacity="1" fill="#fff9c4"></path><g id="SvgjsG1816"><text id="SvgjsText1817" font-family="微软雅黑" text-anchor="middle" font-size="12px" width="154px" fill="#323232" font-weight="400" align="middle" lineHeight="125%" anchor="middle" family="微软雅黑" size="12px" weight="400" font-style="" opacity="1" y="29.25" transform="rotate(0)"><tspan id="SvgjsTspan1818" dy="15" x="87"><tspan id="SvgjsTspan1819" style="text-decoration:;">Object body</tspan></tspan></text></g></g><g id="SvgjsG1820" transform="translate(342.5,372)"><path id="SvgjsPath1821" d="M 0 0L 120 0L 120 40L 0 40Z" stroke="none" fill="none"></path><g id="SvgjsG1822"><text id="SvgjsText1823" font-family="微软雅黑" text-anchor="middle" font-size="21px" width="120px" fill="#323232" font-weight="700" align="middle" lineHeight="125%" anchor="middle" family="微软雅黑" size="21px" weight="700" font-style="" opacity="1" y="1.375" transform="rotate(0)"><tspan id="SvgjsTspan1824" dy="26" x="60"><tspan id="SvgjsTspan1825" style="text-decoration:;">A</tspan></tspan></text></g></g><g id="SvgjsG1826" transform="translate(564.5,59)"><path id="SvgjsPath1827" d="M 0 0L 211 0L 211 293L 0 293Z" stroke="rgba(50,50,50,1)" stroke-width="2" fill-opacity="1" fill="#b2ebf2"></path><g id="SvgjsG1828"><text id="SvgjsText1829" font-family="微软雅黑" text-anchor="middle" font-size="13px" width="191px" fill="#323232" font-weight="400" align="middle" lineHeight="125%" anchor="middle" family="微软雅黑" size="13px" weight="400" font-style="" opacity="1" y="135.875" transform="rotate(0)"></text></g></g><g id="SvgjsG1830" transform="translate(584.5,237)"><path id="SvgjsPath1831" d="M 0 0L 171 0L 171 98L 0 98Z" stroke="rgba(50,50,50,1)" stroke-width="2" fill-opacity="1" fill="#64b5f6"></path><g id="SvgjsG1832"><text id="SvgjsText1833" font-family="微软雅黑" text-anchor="middle" font-size="13px" width="151px" fill="#323232" font-weight="400" align="middle" lineHeight="125%" anchor="middle" family="微软雅黑" size="13px" weight="400" font-style="" opacity="1" y="38.375" transform="rotate(0)"></text></g></g><g id="SvgjsG1834" transform="translate(609.5,232)"><path id="SvgjsPath1835" d="M 0 0L 120 0L 120 40L 0 40Z" stroke="none" fill="none"></path><g id="SvgjsG1836"><text id="SvgjsText1837" font-family="微软雅黑" text-anchor="middle" font-size="13px" width="120px" fill="#323232" font-weight="400" align="middle" lineHeight="125%" anchor="middle" family="微软雅黑" size="13px" weight="400" font-style="" opacity="1" y="9.375" transform="rotate(0)"><tspan id="SvgjsTspan1838" dy="16" x="60"><tspan id="SvgjsTspan1839" style="text-decoration:;">Lock Record</tspan></tspan></text></g></g><g id="SvgjsG1840" transform="translate(602.5,267)"><path id="SvgjsPath1841" d="M 0 0L 135 0L 135 28L 0 28Z" stroke="rgba(50,50,50,1)" stroke-width="2" fill-opacity="1" fill="#fff9c4"></path><g id="SvgjsG1842"><text id="SvgjsText1843" font-family="微软雅黑" text-anchor="middle" font-size="12px" width="115px" fill="#323232" font-weight="400" align="middle" lineHeight="125%" anchor="middle" family="微软雅黑" size="12px" weight="400" font-style="" opacity="1" y="4" transform="rotate(0)"><tspan id="SvgjsTspan1844" dy="15" x="67.5"><tspan id="SvgjsTspan1845" style="text-decoration:;">lock record 地址 00</tspan></tspan></text></g></g><g id="SvgjsG1846" transform="translate(602,301)"><path id="SvgjsPath1847" d="M 0 0L 135 0L 135 28L 0 28Z" stroke="rgba(50,50,50,1)" stroke-width="2" fill-opacity="1" fill="#fff9c4"></path><g id="SvgjsG1848"><text id="SvgjsText1849" font-family="微软雅黑" text-anchor="middle" font-size="12px" width="115px" fill="#323232" font-weight="400" align="middle" lineHeight="125%" anchor="middle" family="微软雅黑" size="12px" weight="400" font-style="" opacity="1" y="4" transform="rotate(0)"><tspan id="SvgjsTspan1850" dy="15" x="67.5"><tspan id="SvgjsTspan1851" style="text-decoration:;">Object reference</tspan></tspan></text></g></g><g id="SvgjsG1852" transform="translate(609.5,59)"><path id="SvgjsPath1853" d="M 0 0L 120 0L 120 40L 0 40Z" stroke="none" fill="none"></path><g id="SvgjsG1854"><text id="SvgjsText1855" font-family="微软雅黑" text-anchor="middle" font-size="14px" width="120px" fill="#323232" font-weight="700" align="middle" lineHeight="125%" anchor="middle" family="微软雅黑" size="14px" weight="700" font-style="" opacity="1" y="8.25" transform="rotate(0)"><tspan id="SvgjsTspan1856" dy="17" x="60"><tspan id="SvgjsTspan1857" style="text-decoration:;">Thread - 1</tspan></tspan></text></g></g><g id="SvgjsG1858"><path id="SvgjsPath1859" d="M314.5 145.5L278 145.5L278 286L244.10000000000002 286" stroke="#323232" stroke-width="2" fill="none" marker-end="url(#SvgjsMarker1860)"></path></g><g id="SvgjsG1862"><path id="SvgjsPath1863" d="M86 315L25 315L25 25L402.5 25L402.5 51.400000000000006" stroke="#323232" stroke-width="2" fill="none" marker-end="url(#SvgjsMarker1864)"></path></g><g id="SvgjsG1866"><path id="SvgjsPath1867" d="M493.06662769154707 145.98904694037446C 560.0739328647625 145.5 531.9260671352375 281 598.9333723084529 280.51095305962554" stroke="#ff0000" stroke-width="2" fill="none" marker-start="url(#SvgjsMarker1868)" marker-end="url(#SvgjsMarker1870)"></path></g><g id="SvgjsG1872"><path id="SvgjsPath1873" d="M740.6 315L811 315L811 25L402.5 25L402.5 51.400000000000006" stroke="#323232" stroke-width="2" fill="none" marker-start="url(#SvgjsMarker1874)" marker-end="url(#SvgjsMarker1876)"></path></g><g id="SvgjsG1878" transform="translate(902,59)"><path id="SvgjsPath1879" d="M 0 0L 211 0L 211 293L 0 293Z" stroke="rgba(50,50,50,1)" stroke-width="2" fill-opacity="1" fill="#b2ebf2"></path><g id="SvgjsG1880"><text id="SvgjsText1881" font-family="微软雅黑" text-anchor="middle" font-size="13px" width="191px" fill="#323232" font-weight="400" align="middle" lineHeight="125%" anchor="middle" family="微软雅黑" size="13px" weight="400" font-style="" opacity="1" y="135.875" transform="rotate(0)"></text></g></g><g id="SvgjsG1882" transform="translate(1141,59)"><path id="SvgjsPath1883" d="M 0 0L 239 0L 239 293L 0 293Z" stroke="rgba(50,50,50,1)" stroke-width="2" fill-opacity="1" fill="#c8e6c9"></path><g id="SvgjsG1884"><text id="SvgjsText1885" font-family="微软雅黑" text-anchor="middle" font-size="13px" width="219px" fill="#323232" font-weight="400" align="middle" lineHeight="125%" anchor="middle" family="微软雅黑" size="13px" weight="400" font-style="" opacity="1" y="135.875" transform="rotate(0)"></text></g></g><g id="SvgjsG1886" transform="translate(922,237)"><path id="SvgjsPath1887" d="M 0 0L 171 0L 171 98L 0 98Z" stroke="rgba(50,50,50,1)" stroke-width="2" fill-opacity="1" fill="#64b5f6"></path><g id="SvgjsG1888"><text id="SvgjsText1889" font-family="微软雅黑" text-anchor="middle" font-size="13px" width="151px" fill="#323232" font-weight="400" align="middle" lineHeight="125%" anchor="middle" family="微软雅黑" size="13px" weight="400" font-style="" opacity="1" y="38.375" transform="rotate(0)"></text></g></g><g id="SvgjsG1890" transform="translate(947,232)"><path id="SvgjsPath1891" d="M 0 0L 120 0L 120 40L 0 40Z" stroke="none" fill="none"></path><g id="SvgjsG1892"><text id="SvgjsText1893" font-family="微软雅黑" text-anchor="middle" font-size="13px" width="120px" fill="#323232" font-weight="400" align="middle" lineHeight="125%" anchor="middle" family="微软雅黑" size="13px" weight="400" font-style="" opacity="1" y="9.375" transform="rotate(0)"><tspan id="SvgjsTspan1894" dy="16" x="60"><tspan id="SvgjsTspan1895" style="text-decoration:;">Lock Record</tspan></tspan></text></g></g><g id="SvgjsG1896" transform="translate(940,267)"><path id="SvgjsPath1897" d="M 0 0L 135 0L 135 28L 0 28Z" stroke="rgba(50,50,50,1)" stroke-width="2" fill-opacity="1" fill="#fff9c4"></path><g id="SvgjsG1898"><text id="SvgjsText1899" font-family="微软雅黑" text-anchor="middle" font-size="12px" width="115px" fill="#323232" font-weight="400" align="middle" lineHeight="125%" anchor="middle" family="微软雅黑" size="12px" weight="400" font-style="" opacity="1" y="4" transform="rotate(0)"><tspan id="SvgjsTspan1900" dy="15" x="67.5"><tspan id="SvgjsTspan1901" style="text-decoration:;">lock record 地址 00</tspan></tspan></text></g></g><g id="SvgjsG1902" transform="translate(939.5,301)"><path id="SvgjsPath1903" d="M 0 0L 135 0L 135 28L 0 28Z" stroke="rgba(50,50,50,1)" stroke-width="2" fill-opacity="1" fill="#fff9c4"></path><g id="SvgjsG1904"><text id="SvgjsText1905" font-family="微软雅黑" text-anchor="middle" font-size="12px" width="115px" fill="#323232" font-weight="400" align="middle" lineHeight="125%" anchor="middle" family="微软雅黑" size="12px" weight="400" font-style="" opacity="1" y="4" transform="rotate(0)"><tspan id="SvgjsTspan1906" dy="15" x="67.5"><tspan id="SvgjsTspan1907" style="text-decoration:;">Object reference</tspan></tspan></text></g></g><g id="SvgjsG1908" transform="translate(947,59)"><path id="SvgjsPath1909" d="M 0 0L 120 0L 120 40L 0 40Z" stroke="none" fill="none"></path><g id="SvgjsG1910"><text id="SvgjsText1911" font-family="微软雅黑" text-anchor="middle" font-size="14px" width="120px" fill="#323232" font-weight="700" align="middle" lineHeight="125%" anchor="middle" family="微软雅黑" size="14px" weight="700" font-style="" opacity="1" y="8.25" transform="rotate(0)"><tspan id="SvgjsTspan1912" dy="17" x="60"><tspan id="SvgjsTspan1913" style="text-decoration:;">Thread - 0</tspan></tspan></text></g></g><g id="SvgjsG1914" transform="translate(1195,55)"><path id="SvgjsPath1915" d="M 0 0L 120 0L 120 40L 0 40Z" stroke="none" fill="none"></path><g id="SvgjsG1916"><text id="SvgjsText1917" font-family="微软雅黑" text-anchor="middle" font-size="14px" width="120px" fill="#323232" font-weight="700" align="middle" lineHeight="125%" anchor="middle" family="微软雅黑" size="14px" weight="700" font-style="" opacity="1" y="8.25" transform="rotate(0)"><tspan id="SvgjsTspan1918" dy="17" x="60"><tspan id="SvgjsTspan1919" style="text-decoration:;">Object</tspan></tspan></text></g></g><g id="SvgjsG1920" transform="translate(1168,121)"><path id="SvgjsPath1921" d="M 0 0L 174 0L 174 49L 0 49Z" stroke="rgba(50,50,50,1)" stroke-width="2" fill-opacity="1" fill="#fff9c4"></path><g id="SvgjsG1922"><text id="SvgjsText1923" font-family="微软雅黑" text-anchor="middle" font-size="12px" width="154px" fill="#323232" font-weight="400" align="middle" lineHeight="125%" anchor="middle" family="微软雅黑" size="12px" weight="400" font-style="" opacity="1" y="14.5" transform="rotate(0)"><tspan id="SvgjsTspan1924" dy="15" x="87"><tspan id="SvgjsTspan1925" style="text-decoration:;">Hashcode Age Bias 01</tspan></tspan></text></g></g><g id="SvgjsG1926" transform="translate(1168,188)"><path id="SvgjsPath1927" d="M 0 0L 174 0L 174 49L 0 49Z" stroke="rgba(50,50,50,1)" stroke-width="2" fill-opacity="1" fill="#fff9c4"></path><g id="SvgjsG1928"><text id="SvgjsText1929" font-family="微软雅黑" text-anchor="middle" font-size="12px" width="154px" fill="#323232" font-weight="400" align="middle" lineHeight="125%" anchor="middle" family="微软雅黑" size="12px" weight="400" font-style="" opacity="1" y="14.5" transform="rotate(0)"><tspan id="SvgjsTspan1930" dy="15" x="87"><tspan id="SvgjsTspan1931" style="text-decoration:;">Klass Word</tspan></tspan></text></g></g><g id="SvgjsG1932" transform="translate(1168,256.5)"><path id="SvgjsPath1933" d="M 0 0L 174 0L 174 78.5L 0 78.5Z" stroke="rgba(50,50,50,1)" stroke-width="2" fill-opacity="1" fill="#fff9c4"></path><g id="SvgjsG1934"><text id="SvgjsText1935" font-family="微软雅黑" text-anchor="middle" font-size="12px" width="154px" fill="#323232" font-weight="400" align="middle" lineHeight="125%" anchor="middle" family="微软雅黑" size="12px" weight="400" font-style="" opacity="1" y="29.25" transform="rotate(0)"><tspan id="SvgjsTspan1936" dy="15" x="87"><tspan id="SvgjsTspan1937" style="text-decoration:;">Object body</tspan></tspan></text></g></g><g id="SvgjsG1938" transform="translate(1195,372)"><path id="SvgjsPath1939" d="M 0 0L 120 0L 120 40L 0 40Z" stroke="none" fill="none"></path><g id="SvgjsG1940"><text id="SvgjsText1941" font-family="微软雅黑" text-anchor="middle" font-size="21px" width="120px" fill="#323232" font-weight="700" align="middle" lineHeight="125%" anchor="middle" family="微软雅黑" size="21px" weight="700" font-style="" opacity="1" y="1.375" transform="rotate(0)"><tspan id="SvgjsTspan1942" dy="26" x="60"><tspan id="SvgjsTspan1943" style="text-decoration:;">B</tspan></tspan></text></g></g><g id="SvgjsG1944" transform="translate(1417,59)"><path id="SvgjsPath1945" d="M 0 0L 211 0L 211 293L 0 293Z" stroke="rgba(50,50,50,1)" stroke-width="2" fill-opacity="1" fill="#ffe0b2"></path><g id="SvgjsG1946"><text id="SvgjsText1947" font-family="微软雅黑" text-anchor="middle" font-size="13px" width="191px" fill="#323232" font-weight="400" align="middle" lineHeight="125%" anchor="middle" family="微软雅黑" size="13px" weight="400" font-style="" opacity="1" y="135.875" transform="rotate(0)"></text></g></g><g id="SvgjsG1948" transform="translate(1462,59)"><path id="SvgjsPath1949" d="M 0 0L 120 0L 120 40L 0 40Z" stroke="none" fill="none"></path><g id="SvgjsG1950"><text id="SvgjsText1951" font-family="微软雅黑" text-anchor="middle" font-size="14px" width="120px" fill="#323232" font-weight="700" align="middle" lineHeight="125%" anchor="middle" family="微软雅黑" size="14px" weight="700" font-style="" opacity="1" y="8.25" transform="rotate(0)"><tspan id="SvgjsTspan1952" dy="17" x="60"><tspan id="SvgjsTspan1953" style="text-decoration:;">Monitor</tspan></tspan></text></g></g><g id="SvgjsG1954"><path id="SvgjsPath1955" d="M1167 145.5L1130.5 145.5L1130.5 286L1096.6 286" stroke="#323232" stroke-width="2" fill="none" marker-end="url(#SvgjsMarker1956)"></path></g><g id="SvgjsG1958"><path id="SvgjsPath1959" d="M938.5 315L877.5 315L877.5 25L1255 25L1255 51.400000000000006" stroke="#323232" stroke-width="2" fill="none" marker-end="url(#SvgjsMarker1960)"></path></g><g id="SvgjsG1962"><path id="SvgjsPath1963" d="M1343 145.5L1372 145.5L1372 29L1522 29L1522 55.400000000000006" stroke="#323232" stroke-width="2" fill="none" marker-end="url(#SvgjsMarker1964)"></path></g><g id="SvgjsG1966" transform="translate(1435,121)"><path id="SvgjsPath1967" d="M 0 0L 174 0L 174 49L 0 49Z" stroke="rgba(50,50,50,1)" stroke-width="2" fill-opacity="1" fill="#fff9c4"></path><g id="SvgjsG1968"><text id="SvgjsText1969" font-family="微软雅黑" text-anchor="middle" font-size="12px" width="154px" fill="#323232" font-weight="400" align="middle" lineHeight="125%" anchor="middle" family="微软雅黑" size="12px" weight="400" font-style="" opacity="1" y="14.5" transform="rotate(0)"><tspan id="SvgjsTspan1970" dy="15" x="87"><tspan id="SvgjsTspan1971" style="text-decoration:;">WaitSet</tspan></tspan></text></g></g><g id="SvgjsG1972" transform="translate(1435,188)"><path id="SvgjsPath1973" d="M 0 0L 174 0L 174 49L 0 49Z" stroke="rgba(50,50,50,1)" stroke-width="2" fill-opacity="1" fill="#fff9c4"></path><g id="SvgjsG1974"><text id="SvgjsText1975" font-family="微软雅黑" text-anchor="middle" font-size="12px" width="154px" fill="#323232" font-weight="400" align="middle" lineHeight="125%" anchor="middle" family="微软雅黑" size="12px" weight="400" font-style="" opacity="1" y="14.5" transform="rotate(0)"><tspan id="SvgjsTspan1976" dy="15" x="87"><tspan id="SvgjsTspan1977" style="text-decoration:;">EntryList</tspan></tspan></text></g></g><g id="SvgjsG1978" transform="translate(1435,256.5)"><path id="SvgjsPath1979" d="M 0 0L 174 0L 174 49L 0 49Z" stroke="rgba(50,50,50,1)" stroke-width="2" fill-opacity="1" fill="#fff9c4"></path><g id="SvgjsG1980"><text id="SvgjsText1981" font-family="微软雅黑" text-anchor="middle" font-size="12px" width="154px" fill="#323232" font-weight="400" align="middle" lineHeight="125%" anchor="middle" family="微软雅黑" size="12px" weight="400" font-style="" opacity="1" y="14.5" transform="rotate(0)"><tspan id="SvgjsTspan1982" dy="15" x="87"><tspan id="SvgjsTspan1983" style="text-decoration:;">Owner</tspan></tspan></text></g></g><g id="SvgjsG1984"><path id="SvgjsPath1985" d="M1522 306.5L1522 417L1007 417L1007 332.6" stroke="#323232" stroke-width="2" fill="none" marker-end="url(#SvgjsMarker1986)"></path></g><g id="SvgjsG1988" transform="translate(1669,188)"><path id="SvgjsPath1989" d="M 0 0L 174 0L 174 49L 0 49Z" stroke="rgba(50,50,50,1)" stroke-width="2" fill-opacity="1" fill="#e0e0e0"></path><g id="SvgjsG1990"><text id="SvgjsText1991" font-family="微软雅黑" text-anchor="middle" font-size="12px" width="154px" fill="#323232" font-weight="400" align="middle" lineHeight="125%" anchor="middle" family="微软雅黑" size="12px" weight="400" font-style="" opacity="1" y="14.5" transform="rotate(0)"><tspan id="SvgjsTspan1992" dy="15" x="87"><tspan id="SvgjsTspan1993" style="text-decoration:;">Thread-1</tspan></tspan></text></g></g><g id="SvgjsG1994"><path id="SvgjsPath1995" d="M1610 212.5L1639 212.5L1639 212.5L1665.4 212.5" stroke="#323232" stroke-width="2" fill="none" marker-end="url(#SvgjsMarker1996)"></path></g></svg>