<svg id="SvgjsSvg1001" width="519" height="440" xmlns="http://www.w3.org/2000/svg" version="1.1" xmlns:xlink="http://www.w3.org/1999/xlink" xmlns:svgjs="http://svgjs.com/svgjs"><defs id="SvgjsDefs1002"><marker id="SvgjsMarker1076" markerWidth="14" markerHeight="10" refX="10" refY="5" viewBox="0 0 14 10" orient="auto" markerUnits="userSpaceOnUse" stroke-dasharray="0,0"><path id="SvgjsPath1077" d="M0,0 L14,5 L0,10 L0,0" fill="#323232" stroke="#323232" stroke-width="1"></path></marker><marker id="SvgjsMarker1080" markerWidth="14" markerHeight="10" refX="10" refY="5" viewBox="0 0 14 10" orient="auto" markerUnits="userSpaceOnUse" stroke-dasharray="0,0"><path id="SvgjsPath1081" d="M0,0 L14,5 L0,10 L0,0" fill="#323232" stroke="#323232" stroke-width="1"></path></marker><marker id="SvgjsMarker1096" markerWidth="14" markerHeight="10" refX="10" refY="5" viewBox="0 0 14 10" orient="auto" markerUnits="userSpaceOnUse" stroke-dasharray="0,0"><path id="SvgjsPath1097" d="M0,0 L14,5 L0,10 L0,0" fill="#323232" stroke="#323232" stroke-width="1"></path></marker><marker id="SvgjsMarker1100" markerWidth="14" markerHeight="10" refX="10" refY="5" viewBox="0 0 14 10" orient="auto" markerUnits="userSpaceOnUse" stroke-dasharray="0,0"><path id="SvgjsPath1101" d="M0,0 L14,5 L0,10 L0,0" fill="#323232" stroke="#323232" stroke-width="1"></path></marker></defs><g id="SvgjsG1008" transform="translate(191,25)"><path id="SvgjsPath1009" d="M 0 0L 137 0L 137 46L 0 46Z" stroke="rgba(33,41,48,1)" stroke-width="2" fill-opacity="1" fill="#b2ebf2"></path><g id="SvgjsG1010"><text id="SvgjsText1011" font-family="微软雅黑" text-anchor="middle" font-size="13px" width="117px" fill="#323232" font-weight="400" align="middle" lineHeight="125%" anchor="middle" family="微软雅黑" size="13px" weight="400" font-style="" opacity="1" y="12.375" transform="rotate(0)"><tspan id="SvgjsTspan1012" dy="16" x="68.5"><tspan id="SvgjsTspan1013" style="text-decoration:;">Thread</tspan></tspan></text></g></g><g id="SvgjsG1014" transform="translate(191,111)"><path id="SvgjsPath1015" d="M 0 0L 137 0L 137 46L 0 46Z" stroke="rgba(33,41,48,1)" stroke-width="2" fill-opacity="1" fill="#ffe0b2"></path><g id="SvgjsG1016"><text id="SvgjsText1017" font-family="微软雅黑" text-anchor="middle" font-size="13px" width="117px" fill="#323232" font-weight="400" align="middle" lineHeight="125%" anchor="middle" family="微软雅黑" size="13px" weight="400" font-style="" opacity="1" y="12.375" transform="rotate(0)"><tspan id="SvgjsTspan1018" dy="16" x="68.5"><tspan id="SvgjsTspan1019" style="text-decoration:;">Selector</tspan></tspan></text></g></g><g id="SvgjsG1020" transform="translate(25,195)"><path id="SvgjsPath1021" d="M 0 0L 137 0L 137 46L 0 46Z" stroke="rgba(33,41,48,1)" stroke-width="2" fill-opacity="1" fill="#bbdefb"></path><g id="SvgjsG1022"><text id="SvgjsText1023" font-family="微软雅黑" text-anchor="middle" font-size="13px" width="117px" fill="#323232" font-weight="400" align="middle" lineHeight="125%" anchor="middle" family="微软雅黑" size="13px" weight="400" font-style="" opacity="1" y="12.375" transform="rotate(0)"><tspan id="SvgjsTspan1024" dy="16" x="68.5"><tspan id="SvgjsTspan1025" style="text-decoration:;">channel</tspan></tspan></text></g></g><g id="SvgjsG1026" transform="translate(191,195)"><path id="SvgjsPath1027" d="M 0 0L 137 0L 137 46L 0 46Z" stroke="rgba(33,41,48,1)" stroke-width="2" fill-opacity="1" fill="#bbdefb"></path><g id="SvgjsG1028"><text id="SvgjsText1029" font-family="微软雅黑" text-anchor="middle" font-size="13px" width="117px" fill="#323232" font-weight="400" align="middle" lineHeight="125%" anchor="middle" family="微软雅黑" size="13px" weight="400" font-style="" opacity="1" y="12.375" transform="rotate(0)"><tspan id="SvgjsTspan1030" dy="16" x="68.5"><tspan id="SvgjsTspan1031" style="text-decoration:;">channel</tspan></tspan></text></g></g><g id="SvgjsG1032" transform="translate(357,195)"><path id="SvgjsPath1033" d="M 0 0L 137 0L 137 46L 0 46Z" stroke="rgba(33,41,48,1)" stroke-width="2" fill-opacity="1" fill="#bbdefb"></path><g id="SvgjsG1034"><text id="SvgjsText1035" font-family="微软雅黑" text-anchor="middle" font-size="13px" width="117px" fill="#323232" font-weight="400" align="middle" lineHeight="125%" anchor="middle" family="微软雅黑" size="13px" weight="400" font-style="" opacity="1" y="12.375" transform="rotate(0)"><tspan id="SvgjsTspan1036" dy="16" x="68.5"><tspan id="SvgjsTspan1037" style="text-decoration:;">channel</tspan></tspan></text></g></g><g id="SvgjsG1038" transform="translate(25,282)"><path id="SvgjsPath1039" d="M 0 0L 137 0L 137 46L 0 46Z" stroke="rgba(33,41,48,1)" stroke-width="2" fill-opacity="1" fill="#e0e0e0"></path><g id="SvgjsG1040"><text id="SvgjsText1041" font-family="微软雅黑" text-anchor="middle" font-size="13px" width="117px" fill="#323232" font-weight="400" align="middle" lineHeight="125%" anchor="middle" family="微软雅黑" size="13px" weight="400" font-style="" opacity="1" y="12.375" transform="rotate(0)"><tspan id="SvgjsTspan1042" dy="16" x="68.5"><tspan id="SvgjsTspan1043" style="text-decoration:;">buffer</tspan></tspan></text></g></g><g id="SvgjsG1044" transform="translate(191,282)"><path id="SvgjsPath1045" d="M 0 0L 137 0L 137 46L 0 46Z" stroke="rgba(33,41,48,1)" stroke-width="2" fill-opacity="1" fill="#e0e0e0"></path><g id="SvgjsG1046"><text id="SvgjsText1047" font-family="微软雅黑" text-anchor="middle" font-size="13px" width="117px" fill="#323232" font-weight="400" align="middle" lineHeight="125%" anchor="middle" family="微软雅黑" size="13px" weight="400" font-style="" opacity="1" y="12.375" transform="rotate(0)"><tspan id="SvgjsTspan1048" dy="16" x="68.5"><tspan id="SvgjsTspan1049" style="text-decoration:;">buffer</tspan></tspan></text></g></g><g id="SvgjsG1050" transform="translate(357,282)"><path id="SvgjsPath1051" d="M 0 0L 137 0L 137 46L 0 46Z" stroke="rgba(33,41,48,1)" stroke-width="2" fill-opacity="1" fill="#e0e0e0"></path><g id="SvgjsG1052"><text id="SvgjsText1053" font-family="微软雅黑" text-anchor="middle" font-size="13px" width="117px" fill="#323232" font-weight="400" align="middle" lineHeight="125%" anchor="middle" family="微软雅黑" size="13px" weight="400" font-style="" opacity="1" y="12.375" transform="rotate(0)"><tspan id="SvgjsTspan1054" dy="16" x="68.5"><tspan id="SvgjsTspan1055" style="text-decoration:;">buffer</tspan></tspan></text></g></g><g id="SvgjsG1056" transform="translate(25,369)"><path id="SvgjsPath1057" d="M 0 0L 137 0L 137 46L 0 46Z" stroke="rgba(33,41,48,1)" stroke-width="2" fill-opacity="1" fill="#e1bee7"></path><g id="SvgjsG1058"><text id="SvgjsText1059" font-family="微软雅黑" text-anchor="middle" font-size="13px" width="117px" fill="#323232" font-weight="400" align="middle" lineHeight="125%" anchor="middle" family="微软雅黑" size="13px" weight="400" font-style="" opacity="1" y="12.375" transform="rotate(0)"><tspan id="SvgjsTspan1060" dy="16" x="68.5"><tspan id="SvgjsTspan1061" style="text-decoration:;">处理</tspan></tspan></text></g></g><g id="SvgjsG1062" transform="translate(191,369)"><path id="SvgjsPath1063" d="M 0 0L 137 0L 137 46L 0 46Z" stroke="rgba(33,41,48,1)" stroke-width="2" fill-opacity="1" fill="#e1bee7"></path><g id="SvgjsG1064"><text id="SvgjsText1065" font-family="微软雅黑" text-anchor="middle" font-size="13px" width="117px" fill="#323232" font-weight="400" align="middle" lineHeight="125%" anchor="middle" family="微软雅黑" size="13px" weight="400" font-style="" opacity="1" y="12.375" transform="rotate(0)"><tspan id="SvgjsTspan1066" dy="16" x="68.5"><tspan id="SvgjsTspan1067" style="text-decoration:;">处理</tspan></tspan></text></g></g><g id="SvgjsG1068" transform="translate(357,369)"><path id="SvgjsPath1069" d="M 0 0L 137 0L 137 46L 0 46Z" stroke="rgba(33,41,48,1)" stroke-width="2" fill-opacity="1" fill="#e1bee7"></path><g id="SvgjsG1070"><text id="SvgjsText1071" font-family="微软雅黑" text-anchor="middle" font-size="13px" width="117px" fill="#323232" font-weight="400" align="middle" lineHeight="125%" anchor="middle" family="微软雅黑" size="13px" weight="400" font-style="" opacity="1" y="12.375" transform="rotate(0)"><tspan id="SvgjsTspan1072" dy="16" x="68.5"><tspan id="SvgjsTspan1073" style="text-decoration:;">处理</tspan></tspan></text></g></g><g id="SvgjsG1074"><path id="SvgjsPath1075" d="M259.5 72L259.5 91L259.5 91L259.5 107.4" stroke="#323232" stroke-width="2" fill="none" marker-end="url(#SvgjsMarker1076)"></path></g><g id="SvgjsG1078"><path id="SvgjsPath1079" d="M259.5 158L259.5 174L93.5 174L93.5 191.4" stroke="#323232" stroke-width="2" fill="none" marker-end="url(#SvgjsMarker1080)"></path></g><g id="SvgjsG1082"><path id="SvgjsPath1083" d="M93.5 242L93.5 261.5L93.5 261.5L93.5 281" stroke="#323232" stroke-width="2" fill="none"></path></g><g id="SvgjsG1084"><path id="SvgjsPath1085" d="M93.5 329L93.5 348.5L93.5 348.5L93.5 368" stroke="#323232" stroke-width="2" fill="none"></path></g><g id="SvgjsG1086"><path id="SvgjsPath1087" d="M259.5 242L259.5 261.5L259.5 261.5L259.5 281" stroke="#323232" stroke-width="2" fill="none"></path></g><g id="SvgjsG1088"><path id="SvgjsPath1089" d="M259.5 329L259.5 348.5L259.5 348.5L259.5 368" stroke="#323232" stroke-width="2" fill="none"></path></g><g id="SvgjsG1090"><path id="SvgjsPath1091" d="M425.5 242L425.5 261.5L425.5 261.5L425.5 281" stroke="#323232" stroke-width="2" fill="none"></path></g><g id="SvgjsG1092"><path id="SvgjsPath1093" d="M425.5 329L425.5 348.5L425.5 348.5L425.5 368" stroke="#323232" stroke-width="2" fill="none"></path></g><g id="SvgjsG1094"><path id="SvgjsPath1095" d="M259.5 158L259.5 174L425.5 174L425.5 191.4" stroke="#323232" stroke-width="2" fill="none" marker-end="url(#SvgjsMarker1096)"></path></g><g id="SvgjsG1098"><path id="SvgjsPath1099" d="M259.5 158L259.5 176L259.5 176L259.5 191.4" stroke="#323232" stroke-width="2" fill="none" marker-end="url(#SvgjsMarker1100)"></path></g></svg>