<svg id="SvgjsSvg1006" width="995" height="515.40625" xmlns="http://www.w3.org/2000/svg" version="1.1" xmlns:xlink="http://www.w3.org/1999/xlink" xmlns:svgjs="http://svgjs.com/svgjs"><defs id="SvgjsDefs1007"><marker id="SvgjsMarker1036" markerWidth="14" markerHeight="10" refX="10" refY="5" viewBox="0 0 14 10" orient="auto" markerUnits="userSpaceOnUse" stroke-dasharray="0,0"><path id="SvgjsPath1037" d="M0,0 L14,5 L0,10 L0,0" fill="#323232" stroke="#323232" stroke-width="1"></path></marker><marker id="SvgjsMarker1044" markerWidth="14" markerHeight="10" refX="10" refY="5" viewBox="0 0 14 10" orient="auto" markerUnits="userSpaceOnUse" stroke-dasharray="0,0"><path id="SvgjsPath1045" d="M0,0 L14,5 L0,10 L0,0" fill="#323232" stroke="#323232" stroke-width="1"></path></marker><marker id="SvgjsMarker1052" markerWidth="14" markerHeight="10" refX="10" refY="5" viewBox="0 0 14 10" orient="auto" markerUnits="userSpaceOnUse" stroke-dasharray="0,0"><path id="SvgjsPath1053" d="M0,0 L14,5 L0,10 L0,0" fill="#323232" stroke="#323232" stroke-width="1"></path></marker><marker id="SvgjsMarker1062" markerWidth="14" markerHeight="10" refX="10" refY="5" viewBox="0 0 14 10" orient="auto" markerUnits="userSpaceOnUse" stroke-dasharray="0,0"><path id="SvgjsPath1063" d="M0,0 L14,5 L0,10 L0,0" fill="#323232" stroke="#323232" stroke-width="1"></path></marker><marker id="SvgjsMarker1072" markerWidth="14" markerHeight="10" refX="10" refY="5" viewBox="0 0 14 10" orient="auto" markerUnits="userSpaceOnUse" stroke-dasharray="0,0"><path id="SvgjsPath1073" d="M0,0 L14,5 L0,10 L0,0" fill="#323232" stroke="#323232" stroke-width="1"></path></marker><marker id="SvgjsMarker1076" markerWidth="14" markerHeight="10" refX="10" refY="5" viewBox="0 0 14 10" orient="auto" markerUnits="userSpaceOnUse" stroke-dasharray="0,0"><path id="SvgjsPath1077" d="M0,0 L14,5 L0,10 L0,0" fill="#323232" stroke="#323232" stroke-width="1"></path></marker><marker id="SvgjsMarker1084" markerWidth="14" markerHeight="10" refX="10" refY="5" viewBox="0 0 14 10" orient="auto" markerUnits="userSpaceOnUse" stroke-dasharray="0,0"><path id="SvgjsPath1085" d="M0,0 L14,5 L0,10 L0,0" fill="#323232" stroke="#323232" stroke-width="1"></path></marker><marker id="SvgjsMarker1114" markerWidth="14" markerHeight="10" refX="10" refY="5" viewBox="0 0 14 10" orient="auto" markerUnits="userSpaceOnUse" stroke-dasharray="0,0"><path id="SvgjsPath1115" d="M0,0 L14,5 L0,10 L0,0" fill="#323232" stroke="#323232" stroke-width="1"></path></marker></defs><g id="SvgjsG1008" transform="translate(303.00624084472656,77.0062484741211)"><path id="SvgjsPath1009" d="M 0 4Q 0 0 4 0L 161 0Q 165 0 165 4L 165 51Q 165 55 161 55L 4 55Q 0 55 0 51Z" stroke="rgba(50,50,50,1)" stroke-width="2" fill-opacity="1" fill="#ffffff"></path><g id="SvgjsG1010"><text id="SvgjsText1011" font-family="微软雅黑" text-anchor="middle" font-size="13px" width="145px" fill="#323232" font-weight="400" align="middle" lineHeight="125%" anchor="middle" family="微软雅黑" size="13px" weight="400" font-style="" opacity="1" y="8.375" transform="rotate(0)"><tspan id="SvgjsTspan1012" dy="16" x="82.5"><tspan id="SvgjsTspan1013" style="text-decoration:;">Doge.py</tspan></tspan><tspan id="SvgjsTspan1014" dy="16" x="82.5"><tspan id="SvgjsTspan1015" style="text-decoration:;">程序入口</tspan></tspan></text></g></g><g id="SvgjsG1016" transform="translate(303.00624084472656,196.0062484741211)"><path id="SvgjsPath1017" d="M 0 4Q 0 0 4 0L 161 0Q 165 0 165 4L 165 51Q 165 55 161 55L 4 55Q 0 55 0 51Z" stroke="rgba(50,50,50,1)" stroke-width="2" fill-opacity="1" fill="#ffffff"></path><g id="SvgjsG1018"><text id="SvgjsText1019" font-family="微软雅黑" text-anchor="middle" font-size="13px" width="145px" fill="#323232" font-weight="400" align="middle" lineHeight="125%" anchor="middle" family="微软雅黑" size="13px" weight="400" font-style="" opacity="1" y="16.875" transform="rotate(0)"><tspan id="SvgjsTspan1020" dy="16" x="82.5"><tspan id="SvgjsTspan1021" style="text-decoration:;">MainEngine</tspan></tspan></text></g></g><g id="SvgjsG1022" transform="translate(551.0062408447266,196.0062484741211)"><path id="SvgjsPath1023" d="M 0 4Q 0 0 4 0L 161 0Q 165 0 165 4L 165 51Q 165 55 161 55L 4 55Q 0 55 0 51Z" stroke="rgba(50,50,50,1)" stroke-width="2" fill-opacity="1" fill="#ffffff"></path><g id="SvgjsG1024"><text id="SvgjsText1025" font-family="微软雅黑" text-anchor="middle" font-size="13px" width="145px" fill="#323232" font-weight="400" align="middle" lineHeight="125%" anchor="middle" family="微软雅黑" size="13px" weight="400" font-style="" opacity="1" y="16.875" transform="rotate(0)"><tspan id="SvgjsTspan1026" dy="16" x="82.5"><tspan id="SvgjsTspan1027" style="text-decoration:;">ProjectEngine</tspan></tspan></text></g></g><g id="SvgjsG1028" transform="translate(55.00624084472656,196.0062484741211)"><path id="SvgjsPath1029" d="M 0 4Q 0 0 4 0L 161 0Q 165 0 165 4L 165 51Q 165 55 161 55L 4 55Q 0 55 0 51Z" stroke="rgba(50,50,50,1)" stroke-width="2" fill-opacity="1" fill="#ffffff"></path><g id="SvgjsG1030"><text id="SvgjsText1031" font-family="微软雅黑" text-anchor="middle" font-size="13px" width="145px" fill="#323232" font-weight="400" align="middle" lineHeight="125%" anchor="middle" family="微软雅黑" size="13px" weight="400" font-style="" opacity="1" y="16.875" transform="rotate(0)"><tspan id="SvgjsTspan1032" dy="16" x="82.5"><tspan id="SvgjsTspan1033" style="text-decoration:;">ModuleEngine</tspan></tspan></text></g></g><g id="SvgjsG1034"><path id="SvgjsPath1035" d="M221.00624084472656 223.5062484741211L261.50624084472656 223.5062484741211L261.50624084472656 223.5062484741211L299.40624084472654 223.5062484741211" stroke="#323232" stroke-width="2" fill="none" marker-end="url(#SvgjsMarker1036)"></path><rect id="SvgjsRect1038" width="26" height="16" x="247.20624084472655" y="215.5062484741211" fill="#ffffff"></rect><text id="SvgjsText1039" font-family="微软雅黑" text-anchor="middle" font-size="13px" width="26px" fill="#323232" font-weight="400" align="top" lineHeight="16px" anchor="middle" family="微软雅黑" size="13px" weight="400" font-style="" opacity="1" y="212.8812484741211" transform="rotate(0)"><tspan id="SvgjsTspan1040" dy="16" x="260.20624084472655"><tspan id="SvgjsTspan1041" style="text-decoration:;">注册</tspan></tspan></text></g><g id="SvgjsG1042"><path id="SvgjsPath1043" d="M550.0062408447266 223.5062484741211L509.50624084472656 223.5062484741211L509.50624084472656 223.5062484741211L471.6062408447266 223.5062484741211" stroke="#323232" stroke-width="2" fill="none" marker-end="url(#SvgjsMarker1044)"></path><rect id="SvgjsRect1046" width="26" height="16" x="497.8062408447266" y="215.5062484741211" fill="#ffffff"></rect><text id="SvgjsText1047" font-family="微软雅黑" text-anchor="middle" font-size="13px" width="26px" fill="#323232" font-weight="400" align="top" lineHeight="16px" anchor="middle" family="微软雅黑" size="13px" weight="400" font-style="" opacity="1" y="212.8812484741211" transform="rotate(0)"><tspan id="SvgjsTspan1048" dy="16" x="510.8062408447266"><tspan id="SvgjsTspan1049" style="text-decoration:;">注册</tspan></tspan></text></g><g id="SvgjsG1050"><path id="SvgjsPath1051" d="M385.50624084472656 133.0062484741211L385.50624084472656 164.0062484741211L385.50624084472656 164.0062484741211L385.50624084472656 192.4062484741211" stroke="#323232" stroke-width="2" fill="none" marker-end="url(#SvgjsMarker1052)"></path></g><g id="SvgjsG1054" transform="translate(55.00624084472656,295.40625)"><path id="SvgjsPath1055" d="M 0 0L 165 0L 165 67L 0 67Z" stroke="rgba(50,50,50,1)" stroke-width="2" fill-opacity="1" fill="#ffffff"></path><g id="SvgjsG1056"><text id="SvgjsText1057" font-family="微软雅黑" text-anchor="middle" font-size="13px" width="145px" fill="#323232" font-weight="400" align="middle" lineHeight="125%" anchor="middle" family="微软雅黑" size="13px" weight="400" font-style="" opacity="1" y="22.875" transform="rotate(0)"><tspan id="SvgjsTspan1058" dy="16" x="82.5"><tspan id="SvgjsTspan1059" style="text-decoration:;">实现各种公共模块方法</tspan></tspan></text></g></g><g id="SvgjsG1060"><path id="SvgjsPath1061" d="M137.50624084472656 294.40625L137.50624084472656 273.20624923706055L137.50624084472656 273.20624923706055L137.50624084472656 254.60624847412112" stroke="#323232" stroke-width="2" fill="none" marker-end="url(#SvgjsMarker1062)"></path></g><g id="SvgjsG1064" transform="translate(772.0062408447266,190.0062484741211)"><path id="SvgjsPath1065" d="M 0 0L 165 0L 165 67L 0 67Z" stroke="rgba(50,50,50,1)" stroke-width="2" fill-opacity="1" fill="#ffffff"></path><g id="SvgjsG1066"><text id="SvgjsText1067" font-family="微软雅黑" text-anchor="middle" font-size="13px" width="145px" fill="#323232" font-weight="400" align="middle" lineHeight="125%" anchor="middle" family="微软雅黑" size="13px" weight="400" font-style="" opacity="1" y="22.875" transform="rotate(0)"><tspan id="SvgjsTspan1068" dy="16" x="82.5"><tspan id="SvgjsTspan1069" style="text-decoration:;">建立各种逻辑运行流程</tspan></tspan></text></g></g><g id="SvgjsG1070"><path id="SvgjsPath1071" d="M771.0062408447266 223.5062484741211L744.0062408447266 223.5062484741211L744.0062408447266 223.5062484741211L719.6062408447266 223.5062484741211" stroke="#323232" stroke-width="2" fill="none" marker-end="url(#SvgjsMarker1072)"></path></g><g id="SvgjsG1074"><path id="SvgjsPath1075" d="M385.50624084472656 252.0062484741211L385.50624084472656 330.0062484741211L854.5062408447266 330.0062484741211L854.5062408447266 260.6062484741211" stroke="#323232" stroke-width="2" fill="none" marker-end="url(#SvgjsMarker1076)"></path><rect id="SvgjsRect1078" width="26" height="16" x="602.7062408447266" y="322.0062484741211" fill="#ffffff"></rect><text id="SvgjsText1079" font-family="微软雅黑" text-anchor="middle" font-size="13px" width="26px" fill="#323232" font-weight="400" align="top" lineHeight="16px" anchor="middle" family="微软雅黑" size="13px" weight="400" font-style="" opacity="1" y="319.3812484741211" transform="rotate(0)"><tspan id="SvgjsTspan1080" dy="16" x="615.7062408447266"><tspan id="SvgjsTspan1081" style="text-decoration:;">调用</tspan></tspan></text></g><g id="SvgjsG1082"><path id="SvgjsPath1083" d="M854.5062408447266 189.0062484741211L854.5062408447266 25.006248474121094L25.006240844726562 25.006248474121094L25.006240844726562 328.90625L51.40624084472657 328.90625" stroke="#323232" stroke-width="2" fill="none" marker-end="url(#SvgjsMarker1084)"></path><rect id="SvgjsRect1086" width="26" height="16" x="343.6062400817871" y="17.006248474121094" fill="#ffffff"></rect><text id="SvgjsText1087" font-family="微软雅黑" text-anchor="middle" font-size="13px" width="26px" fill="#323232" font-weight="400" align="top" lineHeight="16px" anchor="middle" family="微软雅黑" size="13px" weight="400" font-style="" opacity="1" y="14.381248474121094" transform="rotate(0)"><tspan id="SvgjsTspan1088" dy="16" x="356.6062400817871"><tspan id="SvgjsTspan1089" style="text-decoration:;">调用</tspan></tspan></text></g><g id="SvgjsG1090" transform="translate(55.00624084472656,398.40625)"><path id="SvgjsPath1091" d="M 0 0L 807.4000091552734 0L 807.4000091552734 92L 0 92Z" stroke="rgba(50,50,50,1)" stroke-width="2" fill-opacity="1" fill="#ffffff"></path><g id="SvgjsG1092"><text id="SvgjsText1093" font-family="微软雅黑" text-anchor="middle" font-size="13px" width="788px" fill="#323232" font-weight="400" align="middle" lineHeight="125%" anchor="middle" family="微软雅黑" size="13px" weight="400" font-style="" opacity="1" y="35.375" transform="rotate(0)"></text></g></g><g id="SvgjsG1094" transform="translate(64.40625,410.8062515258789)"><path id="SvgjsPath1095" d="M 0 0L 160 0L 160 65.5999984741211L 0 65.5999984741211Z" stroke="rgba(50,50,50,1)" stroke-width="2" fill-opacity="1" fill="#ffffff"></path><g id="SvgjsG1096"><text id="SvgjsText1097" font-family="微软雅黑" text-anchor="middle" font-size="13px" width="140px" fill="#323232" font-weight="400" align="middle" lineHeight="125%" anchor="middle" family="微软雅黑" size="13px" weight="400" font-style="" opacity="1" y="22.174999237060547" transform="rotate(0)"><tspan id="SvgjsTspan1098" dy="16" x="80"><tspan id="SvgjsTspan1099" style="text-decoration:;">数据库存储</tspan></tspan></text></g></g><g id="SvgjsG1100" transform="translate(274.40625,410.8062515258789)"><path id="SvgjsPath1101" d="M 0 0L 160 0L 160 65.5999984741211L 0 65.5999984741211Z" stroke="rgba(50,50,50,1)" stroke-width="2" fill-opacity="1" fill="#ffffff"></path><g id="SvgjsG1102"><text id="SvgjsText1103" font-family="微软雅黑" text-anchor="middle" font-size="13px" width="140px" fill="#323232" font-weight="400" align="middle" lineHeight="125%" anchor="middle" family="微软雅黑" size="13px" weight="400" font-style="" opacity="1" y="22.174999237060547" transform="rotate(0)"><tspan id="SvgjsTspan1104" dy="16" x="80"><tspan id="SvgjsTspan1105" style="text-decoration:;">通知模块</tspan></tspan></text></g></g><g id="SvgjsG1106" transform="translate(473.40625,408.60625076293945)"><path id="SvgjsPath1107" d="M 0 0L 140 0L 140 67.79999923706055L 0 67.79999923706055Z" stroke="rgba(50,50,50,1)" stroke-width="2" fill-opacity="1" fill="#ffffff"></path><g id="SvgjsG1108"><text id="SvgjsText1109" font-family="微软雅黑" text-anchor="middle" font-size="13px" width="120px" fill="#323232" font-weight="400" align="middle" lineHeight="125%" anchor="middle" family="微软雅黑" size="13px" weight="400" font-style="" opacity="1" y="23.274999618530273" transform="rotate(0)"><tspan id="SvgjsTspan1110" dy="16" x="70"><tspan id="SvgjsTspan1111" style="text-decoration:;">工具箱</tspan></tspan></text></g></g><g id="SvgjsG1112"><path id="SvgjsPath1113" d="M938.0062408447266 223.5062484741211L967.0062408447266 223.5062484741211L967.0062408447266 444.40625L866.0062499999999 444.40625" stroke="#323232" stroke-width="2" fill="none" marker-end="url(#SvgjsMarker1114)"></path><rect id="SvgjsRect1116" width="26" height="16" x="954.0062408447266" y="361.9562446594239" fill="#ffffff"></rect><text id="SvgjsText1117" font-family="微软雅黑" text-anchor="middle" font-size="13px" width="26px" fill="#323232" font-weight="400" align="top" lineHeight="16px" anchor="middle" family="微软雅黑" size="13px" weight="400" font-style="" opacity="1" y="359.3312446594239" transform="rotate(0)"><tspan id="SvgjsTspan1118" dy="16" x="967.0062408447266"><tspan id="SvgjsTspan1119" style="text-decoration:;">调用</tspan></tspan></text></g></svg>